<svg width="747" height="199" viewBox="0 0 747 199" fill="none" xmlns="http://www.w3.org/2000/svg">
<g clip-path="url(#clip0_447:1235)">
<path fill-rule="evenodd" clip-rule="evenodd" d="M208.237 126.343C233.412 140.468 257.821 166.2 259.887 193.993C262.029 221.787 241.676 251.718 216.578 270.273C191.48 288.827 161.485 296.157 131.49 296.234C101.419 296.31 71.3472 289.209 46.7085 270.654C22.0698 252.024 3.01689 222.016 -8.15469 180.784C-19.4028 139.552 -22.6165 87.1722 2.02216 73.0464C26.5843 58.9207 79.0755 83.049 118.253 96.4112C157.353 109.697 183.14 112.217 208.237 126.343Z" fill="#D1D6F0"/>
<path d="M64.7323 101.623C65.6546 101.623 66.4023 100.873 66.4023 99.9476C66.4023 99.0222 65.6546 98.272 64.7323 98.272C63.8099 98.272 63.0623 99.0222 63.0623 99.9476C63.0623 100.873 63.8099 101.623 64.7323 101.623Z" fill="white"/>
<path d="M180.632 188.083C182.108 188.083 183.304 186.883 183.304 185.402C183.304 183.921 182.108 182.721 180.632 182.721C179.157 182.721 177.96 183.921 177.96 185.402C177.96 186.883 179.157 188.083 180.632 188.083Z" fill="white"/>
<path d="M215.036 119.384C215.405 119.384 215.704 119.084 215.704 118.714C215.704 118.344 215.405 118.044 215.036 118.044C214.667 118.044 214.368 118.344 214.368 118.714C214.368 119.084 214.667 119.384 215.036 119.384Z" fill="white"/>
<path d="M96.8018 126.087C97.1707 126.087 97.4698 125.787 97.4698 125.416C97.4698 125.046 97.1707 124.746 96.8018 124.746C96.4329 124.746 96.1338 125.046 96.1338 125.416C96.1338 125.787 96.4329 126.087 96.8018 126.087Z" fill="white"/>
<path d="M91.4534 103.299C91.8223 103.299 92.1214 102.999 92.1214 102.629C92.1214 102.258 91.8223 101.958 91.4534 101.958C91.0845 101.958 90.7854 102.258 90.7854 102.629C90.7854 102.999 91.0845 103.299 91.4534 103.299Z" fill="white"/>
<path d="M79.0963 109.666C80.2031 109.666 81.1003 108.766 81.1003 107.655C81.1003 106.545 80.2031 105.645 79.0963 105.645C77.9895 105.645 77.0923 106.545 77.0923 107.655C77.0923 108.766 77.9895 109.666 79.0963 109.666Z" fill="white"/>
<path d="M71.0792 187.413C72.186 187.413 73.0832 186.513 73.0832 185.402C73.0832 184.292 72.186 183.391 71.0792 183.391C69.9724 183.391 69.0752 184.292 69.0752 185.402C69.0752 186.513 69.9724 187.413 71.0792 187.413Z" fill="white"/>
<path d="M165.269 189.423C166.376 189.423 167.273 188.523 167.273 187.413C167.273 186.302 166.376 185.402 165.269 185.402C164.162 185.402 163.265 186.302 163.265 187.413C163.265 188.523 164.162 189.423 165.269 189.423Z" fill="white"/>
<path d="M202.011 125.081C203.118 125.081 204.015 124.181 204.015 123.071C204.015 121.96 203.118 121.06 202.011 121.06C200.904 121.06 200.007 121.96 200.007 123.071C200.007 124.181 200.904 125.081 202.011 125.081Z" fill="white"/>
<path d="M121.18 106.985C122.286 106.985 123.184 106.085 123.184 104.974C123.184 103.864 122.286 102.964 121.18 102.964C120.073 102.964 119.176 103.864 119.176 104.974C119.176 106.085 120.073 106.985 121.18 106.985Z" fill="white"/>
<path d="M64.7313 122.4C65.2846 122.4 65.7333 121.95 65.7333 121.395C65.7333 120.84 65.2846 120.39 64.7313 120.39C64.1779 120.39 63.7292 120.84 63.7292 121.395C63.7292 121.95 64.1779 122.4 64.7313 122.4Z" fill="white"/>
<path d="M31.3343 81.5162C31.8877 81.5162 32.3363 81.0661 32.3363 80.5108C32.3363 79.9556 31.8877 79.5055 31.3343 79.5055C30.7809 79.5055 30.3323 79.9556 30.3323 80.5108C30.3323 81.0661 30.7809 81.5162 31.3343 81.5162Z" fill="white"/>
<path d="M57.386 199.477C57.9394 199.477 58.388 199.027 58.388 198.472C58.388 197.916 57.9394 197.466 57.386 197.466C56.8326 197.466 56.384 197.916 56.384 198.472C56.384 199.027 56.8326 199.477 57.386 199.477Z" fill="white"/>
<path d="M172.289 196.796C172.842 196.796 173.291 196.346 173.291 195.791C173.291 195.235 172.842 194.785 172.289 194.785C171.735 194.785 171.287 195.235 171.287 195.791C171.287 196.346 171.735 196.796 172.289 196.796Z" fill="white"/>
<path d="M209.022 132.454C209.575 132.454 210.024 132.004 210.024 131.448C210.024 130.893 209.575 130.443 209.022 130.443C208.468 130.443 208.02 130.893 208.02 131.448C208.02 132.004 208.468 132.454 209.022 132.454Z" fill="white"/>
<path d="M90.7876 139.156C91.341 139.156 91.7896 138.706 91.7896 138.151C91.7896 137.595 91.341 137.145 90.7876 137.145C90.2343 137.145 89.7856 137.595 89.7856 138.151C89.7856 138.706 90.2343 139.156 90.7876 139.156Z" fill="white"/>
<path d="M84.773 130.778C85.1419 130.778 85.441 130.478 85.441 130.108C85.441 129.738 85.1419 129.438 84.773 129.438C84.4041 129.438 84.105 129.738 84.105 130.108C84.105 130.478 84.4041 130.778 84.773 130.778Z" fill="white"/>
<path d="M149.573 158.258C149.941 158.258 150.241 157.958 150.241 157.587C150.241 157.217 149.941 156.917 149.573 156.917C149.204 156.917 148.905 157.217 148.905 157.587C148.905 157.958 149.204 158.258 149.573 158.258Z" fill="white"/>
<path d="M66.7381 134.8C67.107 134.8 67.4061 134.5 67.4061 134.129C67.4061 133.759 67.107 133.459 66.7381 133.459C66.3691 133.459 66.0701 133.759 66.0701 134.129C66.0701 134.5 66.3691 134.8 66.7381 134.8Z" fill="white"/>
<path d="M33.3431 93.9156C33.712 93.9156 34.0111 93.6155 34.0111 93.2454C34.0111 92.8752 33.712 92.5751 33.3431 92.5751C32.9741 92.5751 32.675 92.8752 32.675 93.2454C32.675 93.6155 32.9741 93.9156 33.3431 93.9156Z" fill="white"/>
<path d="M143.559 171.327C144.112 171.327 144.561 170.877 144.561 170.322C144.561 169.767 144.112 169.317 143.559 169.317C143.005 169.317 142.557 169.767 142.557 170.322C142.557 170.877 143.005 171.327 143.559 171.327Z" fill="white"/>
<path d="M60.7286 147.869C61.282 147.869 61.7306 147.419 61.7306 146.864C61.7306 146.308 61.282 145.858 60.7286 145.858C60.1752 145.858 59.7266 146.308 59.7266 146.864C59.7266 147.419 60.1752 147.869 60.7286 147.869Z" fill="white"/>
<path d="M137.544 162.949C137.913 162.949 138.212 162.649 138.212 162.279C138.212 161.909 137.913 161.609 137.544 161.609C137.175 161.609 136.876 161.909 136.876 162.279C136.876 162.649 137.175 162.949 137.544 162.949Z" fill="white"/>
<path d="M54.7139 139.491C55.0828 139.491 55.3819 139.191 55.3819 138.821C55.3819 138.451 55.0828 138.151 54.7139 138.151C54.345 138.151 54.0459 138.451 54.0459 138.821C54.0459 139.191 54.345 139.491 54.7139 139.491Z" fill="white"/>
<path d="M21.3125 98.6072C21.6815 98.6072 21.9805 98.3072 21.9805 97.937C21.9805 97.5669 21.6815 97.2668 21.3125 97.2668C20.9436 97.2668 20.6445 97.5669 20.6445 97.937C20.6445 98.3072 20.9436 98.6072 21.3125 98.6072Z" fill="white"/>
<path d="M164.935 127.427C165.304 127.427 165.603 127.127 165.603 126.757C165.603 126.387 165.304 126.087 164.935 126.087C164.566 126.087 164.267 126.387 164.267 126.757C164.267 127.127 164.566 127.427 164.935 127.427Z" fill="white"/>
<path d="M158.92 141.167C159.474 141.167 159.922 140.717 159.922 140.162C159.922 139.606 159.474 139.156 158.92 139.156C158.367 139.156 157.918 139.606 157.918 140.162C157.918 140.717 158.367 141.167 158.92 141.167Z" fill="white"/>
<path d="M152.913 132.119C153.282 132.119 153.581 131.819 153.581 131.448C153.581 131.078 153.282 130.778 152.913 130.778C152.544 130.778 152.245 131.078 152.245 131.448C152.245 131.819 152.544 132.119 152.913 132.119Z" fill="white"/>
<path d="M142.225 158.258C142.594 158.258 142.893 157.958 142.893 157.587C142.893 157.217 142.594 156.917 142.225 156.917C141.856 156.917 141.557 157.217 141.557 157.587C141.557 157.958 141.856 158.258 142.225 158.258Z" fill="white"/>
<path d="M59.3926 134.8C59.7615 134.8 60.0606 134.5 60.0606 134.129C60.0606 133.759 59.7615 133.459 59.3926 133.459C59.0237 133.459 58.7246 133.759 58.7246 134.129C58.7246 134.5 59.0237 134.8 59.3926 134.8Z" fill="white"/>
<path d="M25.9888 93.9156C26.3577 93.9156 26.6568 93.6155 26.6568 93.2454C26.6568 92.8752 26.3577 92.5751 25.9888 92.5751C25.6199 92.5751 25.3208 92.8752 25.3208 93.2454C25.3208 93.6155 25.6199 93.9156 25.9888 93.9156Z" fill="white"/>
<path d="M136.213 135.135C136.767 135.135 137.215 134.685 137.215 134.129C137.215 133.574 136.767 133.124 136.213 133.124C135.66 133.124 135.211 133.574 135.211 134.129C135.211 134.685 135.66 135.135 136.213 135.135Z" fill="white"/>
<path d="M130.203 162.949C130.572 162.949 130.871 162.649 130.871 162.279C130.871 161.909 130.572 161.609 130.203 161.609C129.834 161.609 129.535 161.909 129.535 162.279C129.535 162.649 129.834 162.949 130.203 162.949Z" fill="white"/>
<path d="M47.3643 139.491C47.7332 139.491 48.0323 139.191 48.0323 138.821C48.0323 138.451 47.7332 138.151 47.3643 138.151C46.9954 138.151 46.6963 138.451 46.6963 138.821C46.6963 139.191 46.9954 139.491 47.3643 139.491Z" fill="white"/>
<path d="M126.861 148.204C127.23 148.204 127.529 147.904 127.529 147.534C127.529 147.164 127.23 146.864 126.861 146.864C126.492 146.864 126.193 147.164 126.193 147.534C126.193 147.904 126.492 148.204 126.861 148.204Z" fill="white"/>
<path d="M121.519 139.156C122.072 139.156 122.521 138.706 122.521 138.151C122.521 137.595 122.072 137.145 121.519 137.145C120.965 137.145 120.517 137.595 120.517 138.151C120.517 138.706 120.965 139.156 121.519 139.156Z" fill="white"/>
<path d="M114.835 152.896C115.203 152.896 115.503 152.596 115.503 152.226C115.503 151.855 115.203 151.555 114.835 151.555C114.466 151.555 114.167 151.855 114.167 152.226C114.167 152.596 114.466 152.896 114.835 152.896Z" fill="white"/>
<path d="M90.7876 95.591C91.341 95.591 91.7896 95.1409 91.7896 94.5857C91.7896 94.0304 91.341 93.5803 90.7876 93.5803C90.2343 93.5803 89.7856 94.0304 89.7856 94.5857C89.7856 95.1409 90.2343 95.591 90.7876 95.591Z" fill="white"/>
<path d="M176.961 174.008C177.515 174.008 177.963 173.558 177.963 173.003C177.963 172.447 177.515 171.997 176.961 171.997C176.408 171.997 175.959 172.447 175.959 173.003C175.959 173.558 176.408 174.008 176.961 174.008Z" fill="white"/>
<path d="M213.698 109.666C214.252 109.666 214.7 109.216 214.7 108.661C214.7 108.105 214.252 107.655 213.698 107.655C213.145 107.655 212.696 108.105 212.696 108.661C212.696 109.216 213.145 109.666 213.698 109.666Z" fill="white"/>
<path d="M120.847 189.088C121.216 189.088 121.515 188.788 121.515 188.418C121.515 188.048 121.216 187.748 120.847 187.748C120.479 187.748 120.179 188.048 120.179 188.418C120.179 188.788 120.479 189.088 120.847 189.088Z" fill="white"/>
<path d="M38.0154 165.63C38.3843 165.63 38.6834 165.33 38.6834 164.96C38.6834 164.59 38.3843 164.29 38.0154 164.29C37.6465 164.29 37.3474 164.59 37.3474 164.96C37.3474 165.33 37.6465 165.63 38.0154 165.63Z" fill="white"/>
<path d="M157.589 193.78C157.958 193.78 158.257 193.48 158.257 193.11C158.257 192.739 157.958 192.439 157.589 192.439C157.22 192.439 156.921 192.739 156.921 193.11C156.921 193.48 157.22 193.78 157.589 193.78Z" fill="white"/>
<path d="M151.576 184.732C152.129 184.732 152.578 184.282 152.578 183.726C152.578 183.171 152.129 182.721 151.576 182.721C151.022 182.721 150.574 183.171 150.574 183.726C150.574 184.282 151.022 184.732 151.576 184.732Z" fill="white"/>
<path d="M68.7408 161.274C69.2942 161.274 69.7428 160.824 69.7428 160.268C69.7428 159.713 69.2942 159.263 68.7408 159.263C68.1874 159.263 67.7388 159.713 67.7388 160.268C67.7388 160.824 68.1874 161.274 68.7408 161.274Z" fill="white"/>
<path d="M137.544 198.472C137.913 198.472 138.212 198.171 138.212 197.801C138.212 197.431 137.913 197.131 137.544 197.131C137.175 197.131 136.876 197.431 136.876 197.801C136.876 198.171 137.175 198.472 137.544 198.472Z" fill="white"/>
<path d="M54.7139 175.013C55.0828 175.013 55.3819 174.713 55.3819 174.343C55.3819 173.973 55.0828 173.673 54.7139 173.673C54.345 173.673 54.0459 173.973 54.0459 174.343C54.0459 174.713 54.345 175.013 54.7139 175.013Z" fill="white"/>
<path d="M119.512 180.04C120.066 180.04 120.514 179.59 120.514 179.035C120.514 178.48 120.066 178.029 119.512 178.029C118.959 178.029 118.51 178.48 118.51 179.035C118.51 179.59 118.959 180.04 119.512 180.04Z" fill="white"/>
<path d="M36.6736 156.582C37.227 156.582 37.6756 156.132 37.6756 155.577C37.6756 155.022 37.227 154.571 36.6736 154.571C36.1202 154.571 35.6716 155.022 35.6716 155.577C35.6716 156.132 36.1202 156.582 36.6736 156.582Z" fill="white"/>
<path d="M58.719 183.726C59.088 183.726 59.387 183.426 59.387 183.056C59.387 182.686 59.088 182.386 58.719 182.386C58.3501 182.386 58.051 182.686 58.051 183.056C58.051 183.426 58.3501 183.726 58.719 183.726Z" fill="white"/>
<path d="M48.701 183.726C49.0699 183.726 49.369 183.426 49.369 183.056C49.369 182.686 49.0699 182.386 48.701 182.386C48.332 182.386 48.033 182.686 48.033 183.056C48.033 183.426 48.332 183.726 48.701 183.726Z" fill="white"/>
<path d="M96.1311 116.368C96.6845 116.368 97.1331 115.918 97.1331 115.363C97.1331 114.808 96.6845 114.358 96.1311 114.358C95.5778 114.358 95.1292 114.808 95.1292 115.363C95.1292 115.918 95.5778 116.368 96.1311 116.368Z" fill="white"/>
<path d="M87.4498 192.104C88.0031 192.104 88.4518 191.654 88.4518 191.099C88.4518 190.544 88.0031 190.094 87.4498 190.094C86.8964 190.094 86.4478 190.544 86.4478 191.099C86.4478 191.654 86.8964 192.104 87.4498 192.104Z" fill="white"/>
<path d="M87.7808 198.807C88.1497 198.807 88.4488 198.507 88.4488 198.136C88.4488 197.766 88.1497 197.466 87.7808 197.466C87.4119 197.466 87.1128 197.766 87.1128 198.136C87.1128 198.507 87.4119 198.807 87.7808 198.807Z" fill="white"/>
<path d="M184.311 78.8354C184.864 78.8354 185.313 78.3853 185.313 77.8301C185.313 77.2748 184.864 76.8247 184.311 76.8247C183.757 76.8247 183.309 77.2748 183.309 77.8301C183.309 78.3853 183.757 78.8354 184.311 78.8354Z" fill="white"/>
<path d="M178.962 134.465C179.516 134.465 179.964 134.014 179.964 133.459C179.964 132.904 179.516 132.454 178.962 132.454C178.409 132.454 177.96 132.904 177.96 133.459C177.96 134.014 178.409 134.465 178.962 134.465Z" fill="white"/>
<path d="M75.4234 119.049C75.9768 119.049 76.4254 118.599 76.4254 118.044C76.4254 117.489 75.9768 117.038 75.4234 117.038C74.87 117.038 74.4214 117.489 74.4214 118.044C74.4214 118.599 74.87 119.049 75.4234 119.049Z" fill="white"/>
<path d="M67.4065 196.796C67.9599 196.796 68.4085 196.346 68.4085 195.791C68.4085 195.235 67.9599 194.785 67.4065 194.785C66.8532 194.785 66.4045 195.235 66.4045 195.791C66.4045 196.346 66.8532 196.796 67.4065 196.796Z" fill="white"/>
<path d="M180.967 106.65C181.336 106.65 181.635 106.35 181.635 105.98C181.635 105.61 181.336 105.309 180.967 105.309C180.598 105.309 180.299 105.61 180.299 105.98C180.299 106.35 180.598 106.65 180.967 106.65Z" fill="white"/>
<path d="M184.979 115.363C185.348 115.363 185.647 115.063 185.647 114.693C185.647 114.322 185.348 114.022 184.979 114.022C184.61 114.022 184.311 114.322 184.311 114.693C184.311 115.063 184.61 115.363 184.979 115.363Z" fill="white"/>
<path d="M174.954 115.363C175.323 115.363 175.622 115.063 175.622 114.693C175.622 114.322 175.323 114.022 174.954 114.022C174.585 114.022 174.286 114.322 174.286 114.693C174.286 115.063 174.585 115.363 174.954 115.363Z" fill="white"/>
<path d="M204.348 142.842C204.717 142.842 205.016 142.542 205.016 142.172C205.016 141.802 204.717 141.502 204.348 141.502C203.979 141.502 203.68 141.802 203.68 142.172C203.68 142.542 203.979 142.842 204.348 142.842Z" fill="white"/>
<path d="M208.356 151.555C208.724 151.555 209.024 151.255 209.024 150.885C209.024 150.515 208.724 150.215 208.356 150.215C207.987 150.215 207.688 150.515 207.688 150.885C207.688 151.255 207.987 151.555 208.356 151.555Z" fill="white"/>
<path d="M198.337 151.555C198.706 151.555 199.005 151.255 199.005 150.885C199.005 150.515 198.706 150.215 198.337 150.215C197.968 150.215 197.669 150.515 197.669 150.885C197.669 151.255 197.968 151.555 198.337 151.555Z" fill="white"/>
<path d="M13.9673 98.6072C14.3362 98.6072 14.6353 98.3072 14.6353 97.937C14.6353 97.5669 14.3362 97.2668 13.9673 97.2668C13.5984 97.2668 13.2993 97.5669 13.2993 97.937C13.2993 98.3072 13.5984 98.6072 13.9673 98.6072Z" fill="white"/>
<path fill-rule="evenodd" clip-rule="evenodd" d="M141.251 133.893L141.395 120.963C141.404 120.263 141.979 119.702 142.67 119.71C155.715 119.798 168.881 119.709 181.762 117.914C182.691 117.689 188.084 117.157 187.927 116.293C187.951 115.924 187.824 115.569 187.714 115.228C186.027 110.164 183.566 105.222 180.986 100.429L194.548 93.0374C198.736 101.342 210.919 122.588 199.231 128.745C189.743 133.776 178.299 133.868 167.879 134.734C164.606 134.509 140.364 136.791 141.251 133.893Z" fill="#9D8AB9"/>
<path fill-rule="evenodd" clip-rule="evenodd" d="M146.082 136.614C157.279 136.643 168.528 136.42 179.731 135.194L177.713 117.256C165.296 118.607 152.462 118.649 139.915 118.509V124.611C140.368 124.687 140.911 124.802 141.351 124.892C140.88 126.007 140.408 127.122 139.915 128.241C139.915 132.044 139.915 139.794 139.915 143.568L142.046 143.589C143.658 143.606 144.269 138.498 146.082 136.614Z" fill="#0F2D88"/>
<path fill-rule="evenodd" clip-rule="evenodd" d="M178.547 135.322L176.665 117.369C180.002 117.014 183.302 116.572 186.537 115.844C186.566 115.825 186.637 115.817 186.672 115.812C186.668 115.813 186.664 115.814 186.667 115.814C183.953 107.758 179.604 100.038 175.157 92.739L190.394 83.1025C196.355 93.2946 208.739 113.147 204.719 124.942C200.415 133.328 186.876 134.149 178.547 135.322Z" fill="#B5BDE6"/>
<path d="M189.511 124.206C189.606 124.174 189.709 124.219 189.751 124.307L189.759 124.329L192.658 132.897C192.693 132.999 192.638 133.111 192.536 133.145C192.441 133.177 192.338 133.132 192.296 133.044L192.288 133.023L189.389 124.454C189.354 124.352 189.409 124.241 189.511 124.206Z" fill="#1F41A4"/>
<path d="M191.685 123.56C191.769 123.505 191.88 123.524 191.942 123.599L191.955 123.618L196.994 131.405C197.053 131.496 197.027 131.617 196.936 131.676C196.852 131.731 196.742 131.712 196.68 131.637L196.666 131.618L191.627 123.831C191.569 123.74 191.595 123.619 191.685 123.56Z" fill="#1F41A4"/>
<path d="M186.844 124.804C186.943 124.784 187.038 124.842 187.068 124.936L187.074 124.958L188.833 133.81C188.854 133.916 188.786 134.019 188.68 134.04C188.582 134.06 188.486 134.002 188.456 133.908L188.45 133.886L186.691 125.034C186.67 124.928 186.738 124.825 186.844 124.804Z" fill="#1F41A4"/>
<path d="M189.102 83.6879C189.194 83.6319 189.315 83.6614 189.371 83.7538L189.916 84.6569C193.088 89.9237 195.317 93.8654 197.32 97.8687L197.404 98.0379C200.051 103.348 202.044 108.326 203.432 113.302L203.515 113.655C204.371 117.328 204.621 120.016 204.163 122.398C203.583 125.411 201.836 127.704 198.653 129.302C198.556 129.351 198.439 129.312 198.391 129.215C198.342 129.119 198.381 129.001 198.478 128.952C201.552 127.408 203.222 125.217 203.779 122.324C204.239 119.934 203.962 117.198 203.053 113.4C201.703 108.557 199.77 103.7 197.212 98.5298L197.054 98.2128C194.923 93.9371 192.544 89.7508 189.036 83.9569C188.98 83.8644 189.01 83.744 189.102 83.6879Z" fill="#0F2D88"/>
<path d="M186.38 132.892L186.401 133C186.515 133.599 186.574 133.995 186.581 134.259C186.584 134.367 186.499 134.457 186.391 134.46C186.283 134.463 186.193 134.378 186.19 134.27L186.187 134.202C186.174 133.974 186.123 133.636 186.032 133.151L185.896 132.46C185.786 131.916 185.651 131.252 185.656 131.278L185.58 130.898C185.533 130.654 185.49 130.43 185.451 130.212L185.411 129.991C185.032 127.842 184.985 126.519 185.416 125.913L185.427 125.898L185.445 125.865C185.858 125.094 186.443 124.833 187.747 124.605L188.136 124.537C188.488 124.474 188.688 124.428 188.898 124.359L188.933 124.348L188.974 124.339C189.343 124.297 189.653 124.214 190.182 124.026L190.803 123.801C190.847 123.786 190.887 123.772 190.934 123.756C191.878 123.438 192.567 123.399 193.332 123.743L193.389 123.769L193.41 123.775C194.051 123.984 194.973 124.802 196.242 126.187L196.394 126.354L196.592 126.573C196.658 126.648 196.726 126.724 196.795 126.802L197.006 127.042C197.232 127.3 197.462 127.564 197.742 127.891L198.562 128.847C199.109 129.483 199.434 129.845 199.661 130.061C199.739 130.136 199.742 130.26 199.668 130.338C199.593 130.416 199.47 130.419 199.391 130.345L199.314 130.269C199.144 130.1 198.929 129.865 198.631 129.524L198.138 128.954L197.298 127.974C197.083 127.725 196.897 127.51 196.713 127.3L196.503 127.062C196.366 126.907 196.233 126.76 196.105 126.618L195.889 126.381C194.707 125.098 193.833 124.328 193.295 124.149L193.263 124.14L193.234 124.128C192.57 123.812 191.982 123.827 191.141 124.1L190.91 124.178L190.384 124.37C189.835 124.567 189.502 124.663 189.126 124.714L189.039 124.725L188.936 124.758C188.712 124.826 188.484 124.874 188.09 124.943L187.738 125.004C186.603 125.209 186.121 125.433 185.789 126.05L185.767 126.092L185.748 126.122C185.38 126.601 185.439 127.967 185.835 130.142L185.876 130.361C185.903 130.508 185.933 130.661 185.964 130.823L186.38 132.892Z" fill="#1F41A4"/>
<path fill-rule="evenodd" clip-rule="evenodd" d="M174.31 102.65H172.356C161.67 102.65 153.008 93.9726 153.008 83.2681H193.658C193.658 93.9726 184.996 102.65 174.31 102.65Z" fill="#D1D6F0"/>
<path fill-rule="evenodd" clip-rule="evenodd" d="M163.116 186.157L153.148 177.942C152.609 177.496 152.483 176.756 152.871 176.27C159.168 168.282 164.771 159.389 168.473 149.942C170.666 144.167 172.225 138.113 171.623 132.063C170.099 120.082 163 110.115 157.655 99.4918L171.554 92.7571C178.033 104.989 185.949 117.43 187.088 131.658C188.043 147.517 180.748 162.445 172.501 175.405C171.131 176.987 164.783 188.315 163.116 186.157Z" fill="#9D8AB9"/>
<path fill-rule="evenodd" clip-rule="evenodd" d="M168.307 183.865C175.569 174.082 181.809 163.569 185.651 151.896L168.508 146.336C164.788 157.485 158.111 168.026 150.621 177.16C150.765 177.287 154.943 180.939 155.21 181.173C155.476 181.007 155.918 180.635 156.176 180.438L157.94 183.56C160.8 186.061 166.628 191.157 169.467 193.639C169.705 193.361 170.181 192.799 170.411 192.519C173.264 190.394 168.928 187.313 168.307 183.865Z" fill="#1F41A4"/>
<path fill-rule="evenodd" clip-rule="evenodd" d="M185.203 153.238L168.167 147.357C172.866 134.917 169.953 125.137 164.058 113.819C159.098 104.294 152.119 94.6831 152.258 83.1808L170.277 83.3024C170.772 91.4238 176.558 98.1253 180.028 105.458C188.33 121.02 191.497 136.305 185.203 153.238Z" fill="#D1D6F0"/>
<path fill-rule="evenodd" clip-rule="evenodd" d="M182.686 124.906C181.54 126.46 180.356 127.995 179.037 129.401C177.382 128.575 175.643 127.73 173.934 127.049C172.326 120.337 169.344 114.165 165.973 108.13C161.735 100.388 156.606 92.5651 156.644 83.2103L165.654 83.2712C165.777 90.8426 170.418 97.246 173.851 103.751C177.588 110.42 180.902 117.433 182.686 124.906Z" fill="#1F41A4"/>
<path d="M179.543 136.661L188.537 137.198C188.644 137.204 188.727 137.297 188.72 137.405C188.714 137.505 188.634 137.583 188.536 137.588L188.513 137.588L179.52 137.052C179.412 137.045 179.33 136.952 179.336 136.844C179.342 136.744 179.422 136.666 179.52 136.661L179.543 136.661Z" fill="#1F41A4"/>
<path d="M188.573 133.009C188.681 133.006 188.771 133.09 188.775 133.198C188.779 133.299 188.706 133.384 188.609 133.399L188.587 133.401L179.583 133.715C179.475 133.719 179.384 133.634 179.38 133.526C179.377 133.426 179.45 133.34 179.546 133.326L179.569 133.323L188.573 133.009Z" fill="#1F41A4"/>
<path d="M179.217 140.024L188.136 141.301C188.243 141.317 188.317 141.416 188.302 141.523C188.288 141.622 188.202 141.694 188.104 141.691L188.081 141.689L179.162 140.412C179.055 140.396 178.981 140.297 178.996 140.19C179.01 140.091 179.097 140.02 179.195 140.022L179.217 140.024Z" fill="#1F41A4"/>
<path d="M168.865 83.0972C168.973 83.0951 169.062 83.181 169.064 83.2891C169.088 84.4829 169.262 85.7163 169.58 87.0023L169.631 87.2048C170.424 90.3049 171.797 93.1913 174.556 98.0353L176.403 101.265C177.463 103.127 177.7 103.585 178.286 104.759C183.123 113.732 186.193 122.249 187.178 130.506C187.191 130.613 187.115 130.711 187.007 130.723C186.9 130.736 186.803 130.66 186.79 130.552C185.811 122.35 182.758 113.878 177.939 104.94L177.593 104.251C177.091 103.265 176.686 102.543 175.111 99.7922L174.491 98.7105C171.468 93.4353 170.022 90.4224 169.201 87.0963C168.876 85.7832 168.698 84.5211 168.673 83.2969C168.671 83.1888 168.757 83.0994 168.865 83.0972Z" fill="#1F41A4"/>
<path d="M188.336 130.192C188.441 130.165 188.547 130.229 188.574 130.334C188.6 130.438 188.537 130.545 188.432 130.571L188.371 130.586C188.077 130.653 187.628 130.702 186.856 130.76L185.585 130.851C185.131 130.884 184.761 130.914 184.406 130.946L184.187 130.967C182.064 131.173 180.772 131.49 180.408 131.984L180.39 132.01L180.373 132.032C179.787 132.685 179.685 133.346 179.762 134.932L179.777 135.231C179.811 135.967 179.807 136.368 179.74 136.792L179.727 136.868L179.729 136.893C179.751 137.344 179.711 137.735 179.581 138.529L179.53 138.835C179.281 140.338 179.305 141.071 179.795 141.778L179.825 141.821L179.839 141.843C180.141 142.403 181.41 142.84 183.577 143.234L183.794 143.272C184.271 143.356 186.447 143.697 186.902 143.785C187.268 143.855 187.537 143.921 187.726 143.99C187.827 144.027 187.88 144.139 187.843 144.24C187.806 144.342 187.694 144.395 187.592 144.358L187.522 144.334C187.359 144.281 187.129 144.227 186.828 144.169L186.719 144.149C186.134 144.045 184.355 143.765 183.798 143.671L183.726 143.658C181.312 143.234 179.936 142.782 179.514 142.063L179.501 142.041L179.474 142.002C178.918 141.201 178.88 140.403 179.129 138.864L179.208 138.389C179.327 137.649 179.361 137.288 179.336 136.868C179.335 136.852 179.336 136.837 179.339 136.821L179.354 136.731C179.416 136.338 179.42 135.957 179.386 135.245L179.367 134.856C179.296 133.265 179.412 132.541 180.045 131.812L180.074 131.779L180.087 131.761C180.544 131.127 181.876 130.797 184.142 130.577L184.567 130.538C184.767 130.521 184.974 130.504 185.201 130.487L186.822 130.37C187.627 130.309 188.073 130.259 188.336 130.192Z" fill="#1F41A4"/>
<path fill-rule="evenodd" clip-rule="evenodd" d="M253.864 54.2118C254.671 54.7534 254.788 55.9928 254.11 56.9574C251.157 61.1426 247.975 65.1399 244.418 68.9431C243.59 69.8127 242.357 69.9604 241.662 69.2712C240.978 68.5893 241.061 67.3618 241.852 66.5315C245.277 62.8714 248.37 58.9875 251.233 54.929C251.888 53.9994 253.057 53.6703 253.864 54.2118Z" fill="#0F2D88"/>
<path fill-rule="evenodd" clip-rule="evenodd" d="M252.649 50.3523C253.473 50.8678 253.629 52.1014 252.988 53.06C251.747 54.9226 250.453 56.7232 249.111 58.497C248.416 59.4079 247.228 59.6503 246.465 59.0436C245.706 58.44 245.64 57.2432 246.31 56.3651C247.61 54.6468 248.867 52.8975 250.063 51.102C250.677 50.1844 251.823 49.8404 252.649 50.3523Z" fill="#0F2D88"/>
<path fill-rule="evenodd" clip-rule="evenodd" d="M250.233 48.3146C251.068 48.8131 251.254 50.0144 250.637 50.9461C249.441 52.7543 248.191 54.5171 246.89 56.2445C246.224 57.138 245.041 57.3569 244.282 56.7572C243.515 56.1527 243.439 54.9847 244.081 54.124C245.34 52.4518 246.553 50.7407 247.702 49.0028C248.292 48.1116 249.405 47.8078 250.233 48.3146Z" fill="#0F2D88"/>
<path fill-rule="evenodd" clip-rule="evenodd" d="M241.962 51.735C242.741 52.3109 242.864 53.478 242.211 54.32C240.948 55.9562 239.64 57.5535 238.286 59.1012C237.936 59.4972 237.19 59.6881 236.524 59.7553C235.861 59.8271 235.293 59.7962 235.293 59.7962C236.134 58.8725 234.566 58.0054 236.046 56.3166C237.206 54.9714 238.332 53.5833 239.427 52.1657C240.054 51.3567 241.178 51.1543 241.962 51.735Z" fill="#0F2D88"/>
<path fill-rule="evenodd" clip-rule="evenodd" d="M246.677 48.0701C247.49 48.6003 247.674 49.765 247.059 50.6565C245.006 53.6371 242.805 56.5274 240.459 59.2777C240.112 59.6908 239.643 59.9302 239.17 59.9813C238.699 60.0346 238.228 59.9032 237.865 59.5798C237.502 59.2564 237.315 58.8035 237.301 58.337C237.289 57.872 237.448 57.3892 237.783 56.9908C240.043 54.3413 242.179 51.5366 244.161 48.6586C244.751 47.8036 245.862 47.5383 246.677 48.0701Z" fill="#0F2D88"/>
<path fill-rule="evenodd" clip-rule="evenodd" d="M247.533 55.0516C248.971 56.1069 249.778 57.7383 249.863 59.5556C249.949 61.3663 249.302 63.3564 247.904 65.0137C244.835 68.5107 241.518 71.8595 237.784 74.9366C235.913 76.4707 233.955 77.9481 231.818 79.2892C229.687 80.631 227.405 81.8586 224.921 82.8612C222.441 83.8628 219.738 84.6283 216.867 84.9711C213.988 85.3039 211.101 85.1512 208.391 84.6377C205.674 84.1261 203.128 83.2684 200.764 82.2182C198.398 81.1657 196.205 79.9198 194.15 78.562C190.319 76.0091 186.95 73.0845 183.87 69.9612C182.481 68.6129 181.552 67.0727 181.325 65.5944C181.095 64.1133 181.57 62.706 182.919 61.5437C184.27 60.3792 185.953 59.8702 187.563 59.9039C189.176 59.943 190.72 60.5262 191.901 61.6731C194.582 64.2801 197.458 66.6457 200.475 68.5638C203.699 70.6126 207.11 72.1381 210.433 72.7035C212.092 72.9882 213.719 73.0356 215.293 72.8292C216.871 72.6101 218.497 72.1438 220.123 71.4529C221.75 70.7651 223.371 69.8692 224.957 68.8312C226.544 67.7983 228.085 66.5927 229.587 65.3134C231.088 64.0291 232.546 62.6508 233.958 61.205C235.369 59.7562 236.732 58.237 238.054 56.6719C239.281 55.2165 240.914 54.3114 242.619 54.0042C243.469 53.8501 244.337 53.8498 245.175 54.0191C246.01 54.1863 246.815 54.5236 247.533 55.0516Z" fill="#0F2D88"/>
<path fill-rule="evenodd" clip-rule="evenodd" d="M234.175 60.9726L243.445 69.9579C241.712 71.6559 239.898 73.3022 237.974 74.8735C236.153 76.5245 234.223 78.118 232.101 79.5881C229.984 81.0582 227.694 82.4218 225.159 83.561C225.067 83.6021 224.619 83.794 223.985 84.0489C223.655 84.1632 223.278 84.2938 222.878 84.4324C222.677 84.5004 222.471 84.5705 222.261 84.6415C222.052 84.7124 221.842 84.7854 221.616 84.8416C221.172 84.9601 220.728 85.0785 220.309 85.1905C220.098 85.2449 219.895 85.2976 219.7 85.3479C219.501 85.3927 219.306 85.4262 219.126 85.4619C218.405 85.5971 217.889 85.6942 217.781 85.7144C216.167 85.9862 214.506 86.0929 212.885 86.0707C211.259 86.0484 209.659 85.8851 208.111 85.6122C205.01 85.0658 202.124 84.0934 199.463 82.8983C197.346 81.9204 195.362 80.8041 193.497 79.5932C189.719 77.1361 186.392 74.332 183.333 71.3456C181.429 69.5309 179.799 67.0911 179.179 64.726C178.552 62.364 178.924 60.0849 180.825 58.6557C182.745 57.2529 184.974 56.6652 187.381 57.0949C189.798 57.5198 192.368 58.9756 195.207 61.5517C197.21 63.541 199.324 65.3659 201.516 66.9174C203.767 68.4911 206.102 69.7725 208.417 70.5987C210.736 71.4284 213.005 71.788 215.192 71.6136C215.328 71.611 215.469 71.5821 215.608 71.5644L216.029 71.5082L216.451 71.4571C216.593 71.4368 216.737 71.3957 216.881 71.3671L217.749 71.1846L218.633 70.9258C218.781 70.8804 218.929 70.8491 219.078 70.7937L219.525 70.6288C219.824 70.5154 220.125 70.4221 220.426 70.2962C221.026 70.0266 221.635 69.7952 222.237 69.4731C223.451 68.8962 224.654 68.1612 225.853 67.4024C226.444 66.993 227.048 66.6145 227.631 66.1713L228.514 65.5254L229.384 64.8441C231.015 63.6538 232.615 62.3528 234.175 60.9726Z" fill="#B5BDE6"/>
<path fill-rule="evenodd" clip-rule="evenodd" d="M219.713 70.5587L220.205 71.7338C221.96 71.2257 223.747 70.4816 225.512 69.5749C227.28 68.672 229.018 67.5868 230.72 66.4033L229.384 64.8441C226.271 67.3227 222.953 69.3717 219.713 70.5587Z" fill="#0F2D88"/>
<path fill-rule="evenodd" clip-rule="evenodd" d="M224.753 82.5922L225.159 83.5611C227.694 82.4214 229.984 81.0574 232.101 79.5869C234.222 78.1166 236.152 76.523 237.973 74.8718L236.383 73.0152C234.778 74.7868 233.059 76.5116 231.14 78.1272C229.224 79.7432 227.125 81.2685 224.753 82.5922Z" fill="#0F2D88"/>
<path fill-rule="evenodd" clip-rule="evenodd" d="M217.119 81.5404L217.781 85.7144C216.167 85.9862 214.506 86.0927 212.885 86.0707C211.259 86.0484 209.659 85.8851 208.111 85.612C205.01 85.0656 202.124 84.0934 199.463 82.8983L201.192 79.0428C201.478 78.4091 202.046 77.9815 202.717 77.7714C203.393 77.5596 204.166 77.5733 204.93 77.8343C206.337 78.33 207.791 78.7114 209.27 78.9757C210.75 79.2372 212.261 79.3573 213.773 79.334C214.59 79.3087 215.345 79.5383 215.952 79.9168C216.558 80.3093 217.009 80.8556 217.119 81.5404Z" fill="#0F2D88"/>
<path fill-rule="evenodd" clip-rule="evenodd" d="M236.382 73.0153C238.771 72.12 241.127 71.0883 243.445 69.9578C241.712 71.6554 239.897 73.3008 237.972 74.8717L236.382 73.0153Z" fill="#0F2D88"/>
<path fill-rule="evenodd" clip-rule="evenodd" d="M230.72 66.4033C231.961 64.6456 233.106 62.8292 234.175 60.9726C232.615 62.3528 231.015 63.6538 229.384 64.8441L230.72 66.4033Z" fill="#0F2D88"/>
<path fill-rule="evenodd" clip-rule="evenodd" d="M217.727 72.2874L218.641 75.4884C218.223 75.5953 217.807 75.7199 217.387 75.8158L216.124 76.0503C215.281 76.1841 214.431 76.2489 213.576 76.2639C211.866 76.2876 210.142 76.0697 208.443 75.6719C205.042 74.8547 201.763 73.3016 198.707 71.3585C196.758 70.1233 194.893 68.726 193.106 67.2228C191.318 65.72 189.609 64.1082 187.978 62.4178C187.356 61.7725 187.413 60.7325 188.09 60.1117C188.766 59.4903 189.779 59.4942 190.369 60.1047C193.482 63.3245 196.88 66.2557 200.486 68.5463C203.314 70.3465 206.281 71.7306 209.211 72.4325C210.674 72.7742 212.123 72.9545 213.533 72.9347C214.239 72.9214 214.932 72.8695 215.623 72.7589C215.972 72.6904 216.32 72.6258 216.67 72.5649C217.021 72.4842 217.374 72.3757 217.727 72.2874Z" fill="#0F2D88"/>
<path fill-rule="evenodd" clip-rule="evenodd" d="M193.541 83.4639H152.146V64.3507C152.146 59.756 155.864 56.0311 160.451 56.0311H185.236C189.823 56.0311 193.541 59.756 193.541 64.3507V83.4639Z" fill="#D1D6F0"/>
<mask id="mask0_447:1235" style="mask-type:alpha" maskUnits="userSpaceOnUse" x="115" y="29" width="140" height="165">
<path fill-rule="evenodd" clip-rule="evenodd" d="M115.316 193.834H254.552V29.7904H115.316V193.834Z" fill="#E8EBFF"/>
</mask>
<g mask="url(#mask0_447:1235)">
<path fill-rule="evenodd" clip-rule="evenodd" d="M156.54 83.4853H165.554V65.5836H156.54V83.4853Z" fill="#1F41A4"/>
<path fill-rule="evenodd" clip-rule="evenodd" d="M185.012 83.6652C185.002 83.6652 184.992 83.6645 184.981 83.6627C184.875 83.6457 184.802 83.5454 184.819 83.4385C184.843 83.2889 187.214 68.4116 187.945 63.274C188.234 61.2447 188.627 58.4854 187.525 57.2132C187.122 56.7481 186.555 56.5217 185.789 56.5217C185.681 56.5217 185.594 56.4342 185.594 56.326C185.594 56.2179 185.681 56.1302 185.789 56.1302C186.662 56.1302 187.346 56.4084 187.821 56.9568C189.039 58.3638 188.632 61.2254 188.334 63.3149C187.6 68.4702 185.229 83.3506 185.205 83.5004C185.19 83.5967 185.107 83.6652 185.012 83.6652Z" fill="#1F41A4"/>
<path fill-rule="evenodd" clip-rule="evenodd" d="M177.916 83.6652C177.832 83.6652 177.755 83.611 177.729 83.5268C177.684 83.3802 173.223 68.8075 171.153 63.3715C170.243 60.983 167.165 56.5217 163.841 56.5217C163.733 56.5217 163.645 56.4342 163.645 56.326C163.645 56.2179 163.733 56.1302 163.841 56.1302C167.355 56.1302 170.575 60.7555 171.518 63.2319C173.592 68.6801 178.058 83.2654 178.103 83.4121C178.135 83.5155 178.077 83.6249 177.973 83.6566C177.954 83.6625 177.935 83.6652 177.916 83.6652Z" fill="#1F41A4"/>
<path fill-rule="evenodd" clip-rule="evenodd" d="M185.346 68.1164H176.486C176.37 68.1164 176.265 68.0479 176.218 67.9416C176.205 67.9124 174.904 64.9818 173.135 62.0923C170.838 58.3408 168.816 56.3579 167.289 56.3579C167.127 56.3579 166.996 56.2263 166.996 56.0642C166.996 55.9019 167.127 55.7706 167.289 55.7706C171.205 55.7706 175.983 65.9977 176.676 67.5291H185.109C185.237 66.9102 185.585 65.1228 185.772 63.1587C186.071 60.0086 185.829 57.8433 185.072 56.8967C184.781 56.5341 184.42 56.3579 183.966 56.3579C183.804 56.3579 183.673 56.2263 183.673 56.0642C183.673 55.9019 183.804 55.7706 183.966 55.7706C184.6 55.7706 185.126 56.0259 185.529 56.5296C187.566 59.0755 185.712 67.5281 185.632 67.8868C185.602 68.0209 185.483 68.1164 185.346 68.1164Z" fill="#1F41A4"/>
<path fill-rule="evenodd" clip-rule="evenodd" d="M172.54 83.7576C172.408 83.7576 172.289 83.6688 172.256 83.5354L170.037 74.6842L165.346 69.9546C165.232 69.8395 165.233 69.6535 165.347 69.5391C165.463 69.4248 165.648 69.4256 165.762 69.5405L170.509 74.3275C170.546 74.3649 170.573 74.4117 170.586 74.463L172.824 83.3923C172.864 83.5497 172.768 83.7093 172.611 83.7486C172.587 83.7547 172.563 83.7576 172.54 83.7576Z" fill="#B5BDE6"/>
<path fill-rule="evenodd" clip-rule="evenodd" d="M188.085 83.7577C188.061 83.7577 188.037 83.7547 188.013 83.7487C187.856 83.7093 187.761 83.5497 187.8 83.3923L190.039 74.463C190.048 74.4278 190.063 74.3945 190.084 74.3649L193.463 69.5779C193.557 69.4454 193.739 69.4142 193.872 69.5078C194.004 69.6014 194.035 69.7847 193.942 69.917L190.594 74.6592L188.369 83.5354C188.335 83.6688 188.216 83.7577 188.085 83.7577Z" fill="#B5BDE6"/>
<path fill-rule="evenodd" clip-rule="evenodd" d="M123.735 115.243C124.723 116.705 125.766 117.51 126.728 117.926C127.687 118.343 128.568 118.375 129.256 118.286C129.944 118.195 130.306 117.553 130.332 116.844C130.351 116.135 130.037 115.353 129.321 114.961C128.614 114.567 127.699 114.397 126.732 113.84C126.248 113.561 125.738 113.188 125.245 112.635C124.997 112.359 124.747 112.039 124.502 111.666C124.262 111.291 124.024 110.863 123.791 110.371C122.887 108.396 122.383 108.84 122.331 110.195C122.286 111.543 122.746 113.781 123.735 115.243Z" fill="#0F2D88"/>
<path fill-rule="evenodd" clip-rule="evenodd" d="M128.543 98.6661C128.504 98.0787 127.853 97.7845 126.857 97.6797C125.86 97.5764 124.517 97.6682 123.093 97.8847C121.67 98.1007 120.166 98.4441 118.846 98.825C117.528 99.2041 116.388 99.6228 115.706 99.9512C116.121 104.753 117.181 108.558 118.373 111.582C119.58 114.604 120.934 116.852 122.196 118.529C124.737 121.879 126.871 122.965 127.39 123.287C127.655 123.446 127.943 123.485 128.213 123.434C128.484 123.381 128.736 123.236 128.938 123.04C129.34 122.647 129.538 122.035 129.226 121.416C129.079 121.123 128.54 120.391 127.876 119.381C127.215 118.371 126.432 117.08 125.785 115.706C125.134 114.334 124.635 112.874 124.49 111.571C124.426 110.919 124.441 110.308 124.583 109.765C124.726 109.222 124.982 108.751 125.379 108.38C126.345 107.484 127.191 107.522 127.925 107.941C128.659 108.362 129.275 109.17 129.802 109.874C130.421 110.716 131.365 110.747 132.044 110.373C132.721 109.997 133.168 109.223 132.811 108.402C132.223 107.017 131.192 105.317 130.297 103.576C129.398 101.84 128.664 100.064 128.543 98.6661Z" fill="#1F41A4"/>
<path fill-rule="evenodd" clip-rule="evenodd" d="M128.806 100.41C127.889 102.753 127.089 105.214 126.391 107.745C126.391 107.745 125.409 108.068 124.846 109.081C124.567 109.582 124.476 110.229 124.464 110.748C124.449 111.269 124.501 111.664 124.501 111.664C122.708 112.41 120.921 113.172 119.138 113.952C119.138 113.952 119.082 113.829 118.98 113.608C118.881 113.386 118.734 113.065 118.568 112.662C118.402 112.26 118.202 111.781 117.995 111.242C117.793 110.702 117.573 110.107 117.359 109.475C116.938 108.209 116.531 106.799 116.258 105.437C115.98 104.076 115.84 102.761 115.89 101.723C116.021 99.6166 119.263 99.4162 122.46 99.6307C124.059 99.7376 125.647 99.9418 126.833 100.108C128.02 100.275 128.806 100.41 128.806 100.41Z" fill="#D1D6F0"/>
<path fill-rule="evenodd" clip-rule="evenodd" d="M128.806 100.41L115.98 101.774C115.639 99.2601 115.414 96.6909 115.346 94.0549C115.348 93.8149 115.345 93.5774 115.352 93.3358L115.379 92.6089C115.399 92.1237 115.413 91.6411 115.44 91.1544L115.553 89.6828C115.574 89.4369 115.587 89.1941 115.616 88.9458L115.705 88.2007C115.914 86.2247 116.307 84.1958 116.823 82.1615L117.262 80.6281C117.33 80.3738 117.422 80.1164 117.513 79.8595L117.786 79.0901L118.063 78.3222C118.155 78.0667 118.277 77.8097 118.384 77.5542C118.607 77.0426 118.828 76.5322 119.062 76.0244C119.6 75.0071 120.089 74.0229 120.777 72.9735C121.447 71.9614 122.174 71.0011 122.952 70.1089C123.029 70.0255 123.924 68.9438 125.369 67.6381C126.809 66.3276 128.805 64.8567 130.837 63.6897C132.867 62.5097 134.914 61.5923 136.442 60.9899C136.824 60.8366 137.174 60.7011 137.484 60.5889C137.794 60.4742 138.065 60.3722 138.287 60.297C138.732 60.1427 138.985 60.0548 138.985 60.0548C140.706 59.4961 142.42 59.0336 144.127 58.6372C148.548 57.6373 152.911 57.0844 157.243 56.7974C159.802 56.7348 162.807 56.8413 165.146 57.8511C167.482 58.8529 169.146 60.7492 168.952 64.0589C168.786 66.9263 167.836 68.742 165.925 69.8896C164.017 71.0453 161.138 71.5164 157.185 71.8875C153.922 72.0344 150.693 72.3662 147.597 72.9453C144.23 73.6079 141.011 74.5762 138.276 75.9374C136.914 76.6188 135.676 77.3925 134.636 78.2598C134.114 78.6927 133.631 79.1433 133.205 79.6197C132.997 79.8603 132.787 80.0995 132.602 80.3507C132.501 80.4727 132.414 80.6005 132.326 80.7288L132.191 80.9195C132.145 80.9809 132.104 81.0661 132.06 81.1379L131.525 82.0372C131.369 82.3625 131.209 82.6873 131.046 83.0118C130.958 83.1688 130.897 83.3501 130.826 83.5225L130.614 84.0449C130.46 84.3844 130.349 84.7603 130.226 85.1285C129.742 86.6059 129.361 88.1956 129.13 89.8703C128.891 91.5407 128.736 93.2673 128.697 95.035C128.658 96.8023 128.694 98.5982 128.806 100.41Z" fill="#D1D6F0"/>
<path fill-rule="evenodd" clip-rule="evenodd" d="M154.3 71.2202L152.595 58.2147C155.379 57.9138 158.146 57.7464 160.907 57.6846C162.803 57.5973 164.542 58.2962 165.763 59.4689C166.99 60.6414 167.689 62.2795 167.64 64.0623C167.59 65.846 166.849 67.4393 165.744 68.6058C164.635 69.772 163.153 70.5162 161.495 70.5927C159.077 70.7037 156.668 70.9079 154.3 71.2202Z" fill="#1F41A4"/>
<path fill-rule="evenodd" clip-rule="evenodd" d="M127.178 73.7698L122.952 70.109C124.109 68.7659 125.373 67.5826 126.678 66.5344C127.985 65.4868 129.337 64.5764 130.703 63.7743C133.439 62.1724 136.222 60.9936 138.985 60.0547L140.774 65.3568C140.995 66.014 140.871 66.7214 140.513 67.3277C140.336 67.6363 140.099 67.919 139.813 68.1627C139.53 68.4145 139.193 68.6138 138.82 68.7755C137.436 69.3568 136.082 70.0087 134.793 70.7705C134.144 71.1427 133.521 71.5575 132.906 71.9806C132.301 72.4182 131.702 72.8649 131.143 73.3575C130.832 73.6146 130.513 73.8321 130.164 73.978C129.825 74.1336 129.47 74.2329 129.114 74.2724C128.418 74.3646 127.7 74.218 127.178 73.7698Z" fill="#1F41A4"/>
<path fill-rule="evenodd" clip-rule="evenodd" d="M122.854 79.004L123.818 79.418C122.501 81.6315 121.516 84.0379 120.772 86.4943C120.028 88.9543 119.519 91.4708 119.17 93.9946L116.702 93.8509C117.294 91.2431 118.051 88.6536 119.048 86.1423C120.044 83.6349 121.287 81.1994 122.854 79.004Z" fill="#1F41A4"/>
<path fill-rule="evenodd" clip-rule="evenodd" d="M118.099 101.549L115.89 101.723C115.562 99.151 115.355 96.5227 115.316 93.8256L119.17 93.9948C118.67 96.4908 118.324 99.0179 118.099 101.549Z" fill="#1F41A4"/>
<path fill-rule="evenodd" clip-rule="evenodd" d="M179.868 67.4774C179.778 67.4774 179.698 67.416 179.677 67.3253C178.629 62.729 176.356 59.9544 174.635 58.4359C172.767 56.7894 171.126 56.2223 171.109 56.2166C171.007 56.1821 170.952 56.0711 170.987 55.9687C171.021 55.8663 171.131 55.8111 171.234 55.8456C171.301 55.8683 178.001 58.2204 180.058 67.238C180.082 67.3433 180.017 67.4485 179.911 67.4725C179.897 67.4759 179.882 67.4774 179.868 67.4774Z" fill="#B5BDE6"/>
<path fill-rule="evenodd" clip-rule="evenodd" d="M183.288 67.4775C183.199 67.4775 183.119 67.416 183.098 67.3253C181.049 58.3428 182.187 56.0337 182.237 55.9398C182.287 55.8442 182.405 55.8074 182.501 55.8579C182.596 55.9082 182.633 56.0257 182.583 56.1213C182.567 56.1539 181.481 58.4824 183.479 67.238C183.503 67.3433 183.437 67.4485 183.332 67.4726C183.317 67.4759 183.303 67.4775 183.288 67.4775Z" fill="#B5BDE6"/>
</g>
<path fill-rule="evenodd" clip-rule="evenodd" d="M180.367 53.4873H179.393C174.852 53.4873 171.172 49.8002 171.172 45.2518V41.3887C171.172 37.9067 173.989 35.084 177.465 35.084H178.558C182.034 35.084 184.852 37.9067 184.852 41.3887V48.9945C184.852 51.4758 182.844 53.4873 180.367 53.4873Z" fill="#9D8AB9"/>
<path fill-rule="evenodd" clip-rule="evenodd" d="M173.517 46.5371C173.517 47.8888 172.423 48.9843 171.074 48.9843C169.725 48.9843 168.631 47.8888 168.631 46.5371C168.631 45.1854 169.725 44.0898 171.074 44.0898C172.423 44.0898 173.517 45.1854 173.517 46.5371Z" fill="#9D8AB9"/>
<path d="M170.599 45.787C170.599 45.787 171.682 45.787 171.682 46.872" stroke="#00196E" stroke-width="3"/>
<path fill-rule="evenodd" clip-rule="evenodd" d="M170.976 44.0899H170.676C169.532 42.9755 169.092 40.7044 168.96 38.5002C168.779 35.4795 174.014 32.9304 177.035 32.9304H180.549L183.875 38.0207H176.194C176.194 41.349 173.322 44.0899 170.976 44.0899Z" fill="#00196E"/>
<path fill-rule="evenodd" clip-rule="evenodd" d="M175.112 37.8871L179.847 39.3157C181.752 39.8904 183.761 38.8093 184.335 36.901L184.782 35.4133C185.005 34.6709 184.585 33.8876 183.844 33.664L179.811 32.4472C177.302 31.6905 174.656 33.1142 173.9 35.6274C173.612 36.5866 174.154 37.5984 175.112 37.8871Z" fill="#00196E"/>
<path fill-rule="evenodd" clip-rule="evenodd" d="M180.767 59.5565H177.47C174.887 59.5565 172.177 58.1482 171.205 56.0313C171.205 56.0313 171.172 54.4167 171.172 53.5656V52.1911C171.172 51.7958 171.509 51.4753 171.924 51.4753H183.214C183.629 51.4753 183.966 51.7958 183.966 52.1911V56.5129C183.966 58.1939 182.534 59.5565 180.767 59.5565Z" fill="#00196E"/>
<path fill-rule="evenodd" clip-rule="evenodd" d="M185.84 54.3783C185.151 56.0548 183.428 57.1496 181.521 57.1496H180.032C175.584 57.1496 172.967 55.3083 170.287 53.166C170.287 53.166 168.61 51.5509 167.429 48.4799C165.95 44.6359 164.997 38.9785 166.24 36.7017C167.502 34.3894 170.857 29.7905 175.726 29.7905C182.759 29.7905 187.949 33.5932 187.949 40.2313L186.931 48.7289C186.931 50.1162 186.403 53.0073 185.84 54.3783Z" fill="#D1D6F0"/>
<path fill-rule="evenodd" clip-rule="evenodd" d="M169.236 41.4085C169.236 41.4085 171.399 33.1971 180.147 33.1971C184.82 33.1971 187.41 36.861 187.815 41.3527L186.931 48.7287C186.931 48.7287 184.595 57.8307 172.966 49.9625C172.611 49.7225 172.391 49.3404 172.266 48.9455L169.236 41.4085Z" fill="#1F41A4"/>
<path d="M174.297 38.8776L176.17 44.2856" stroke="#E8EBFF" stroke-width="7" stroke-linecap="round" stroke-linejoin="round" stroke-dasharray="12 12"/>
<path fill-rule="evenodd" clip-rule="evenodd" d="M384.335 167.563C385.572 166.476 386.257 165.883 386.932 165.281C391.519 161.194 396.098 157.096 400.695 153.021C402.207 151.681 403.689 150.863 405.923 151.838C418.457 157.313 431.505 158.667 444.894 156.067C459.303 153.269 471.595 146.592 481.005 135.083C496.276 116.408 495.952 90.9511 480.307 72.5891C474.348 65.5968 467.082 60.3853 458.677 56.8055C448.331 52.3988 437.558 50.6999 426.344 51.7891C409.91 53.3851 395.749 59.7655 384.797 72.3482C365.755 94.2267 369.753 124.022 389.467 141.221C390.976 142.537 391.426 143.796 390.783 145.782C388.856 151.736 387.119 157.752 385.324 163.749C385.014 164.783 384.778 165.842 384.335 167.563ZM432.387 160.125C423.365 159.834 414.672 158.241 406.361 154.808C404.49 154.035 403.226 154.19 401.726 155.586C395.954 160.955 390.066 166.198 384.223 171.49C383.844 171.833 383.53 172.32 383.088 172.504C382.571 172.72 381.821 172.909 381.407 172.68C381.018 172.465 380.763 171.69 380.76 171.16C380.756 170.464 381.031 169.759 381.232 169.071C383.22 162.278 385.215 155.486 387.214 148.695C387.446 147.908 387.706 147.128 387.956 146.346C388.477 144.72 388.101 143.537 386.759 142.302C381.269 137.245 377.017 131.246 374.061 124.358C365.862 105.255 370.056 83.6777 385.009 68.3006C394.369 58.6746 405.787 52.8088 418.851 50.2707C436.981 46.7485 454.028 49.7549 469.593 59.8481C481.843 67.7911 490.245 78.8106 493.494 93.2517C497.28 110.088 492.889 125.037 481.856 137.991C472.257 149.263 459.812 155.757 445.429 158.516C441.136 159.339 436.737 159.604 432.387 160.125Z" fill="#B5BDE6"/>
<path d="M384.335 167.563C385.572 166.476 386.257 165.883 386.932 165.281C391.519 161.194 396.098 157.096 400.695 153.021C402.207 151.681 403.689 150.863 405.923 151.838C418.457 157.313 431.505 158.667 444.894 156.067C459.303 153.269 471.595 146.592 481.005 135.083C496.276 116.408 495.952 90.9511 480.307 72.5891C474.348 65.5968 467.082 60.3853 458.677 56.8055C448.331 52.3988 437.558 50.6999 426.344 51.7891C409.91 53.3851 395.749 59.7655 384.797 72.3482C365.755 94.2267 369.753 124.022 389.467 141.221C390.976 142.537 391.426 143.796 390.783 145.782C388.856 151.736 387.119 157.752 385.324 163.749C385.014 164.783 384.778 165.842 384.335 167.563Z" fill="#B5BDE6"/>
<path fill-rule="evenodd" clip-rule="evenodd" d="M355.463 137.429C356.272 141.716 357.059 146.007 357.845 150.298C358.215 152.315 357.651 153.857 355.689 154.788C354.717 155.251 353.75 155.802 352.924 156.489C350.067 158.864 349.248 162.737 350.812 166.036C352.285 169.145 355.141 169.891 357.473 167.408C359.52 165.228 361.081 162.585 362.854 160.143C363.504 159.248 363.686 157.401 365.313 158.209C367.015 159.055 366.146 160.598 365.422 161.65C363.507 164.432 361.715 167.388 359.353 169.747C355.592 173.504 350.357 172.229 348.103 167.365C345.862 162.531 347.266 156.897 351.557 153.698C352.52 152.98 353.593 152.411 354.892 151.6C354.429 146.384 352.287 141.516 352.743 136.461C352.77 136.152 353.01 135.892 353.314 135.836C354.761 135.564 355.255 136.331 355.463 137.429ZM337.363 112.651C337.357 112.708 337.349 112.764 337.34 112.821C336.761 116.414 335.969 119.974 335.39 123.568C334.999 125.992 333.571 126.96 331.251 127.471C328.775 128.018 326.189 128.685 324.045 129.95C320.259 132.181 319.407 136.884 321.698 140.438C323.232 142.815 326.346 143.558 328.818 142.164C330.783 141.054 332.569 139.612 334.425 138.308C335.019 137.89 335.478 137.216 336.121 136.957C336.569 136.778 337.32 136.97 337.755 137.26C338.015 137.434 338.166 138.121 337.986 138.571C337.948 138.668 337.909 138.808 337.831 138.895C334.603 142.484 331.059 145.655 325.912 145.995C323.303 146.167 321.199 144.875 319.616 142.788C315.599 137.49 317.117 130.103 323.196 126.874C325.84 125.469 328.891 124.81 332.25 123.64C332.895 120.205 333.545 116.628 334.247 113.061C334.303 112.777 334.349 112.483 334.408 112.194C334.786 110.362 337.557 110.791 337.363 112.651ZM373.817 137.376C374.197 137.508 374.515 137.809 374.868 138.208C375.441 138.853 375.274 139.843 374.515 140.259L374.442 140.3C373.807 140.647 372.999 140.439 372.631 139.828C372.386 139.421 372.187 139.012 372.17 138.597C372.151 138.176 373.427 137.241 373.817 137.376ZM354.631 130.968C354.978 131.315 354.92 131.85 354.509 132.116C353.908 132.503 353.447 132.821 353.09 132.74C352.521 132.61 351.75 131.725 351.788 131.228C351.823 130.764 352.803 130.046 353.371 130.056C353.749 130.061 354.129 130.466 354.631 130.968ZM380.181 108.473C382.254 110.732 382.617 113.931 381.133 116.909C379.908 119.37 377.955 121.156 375.596 122.542C374.446 123.217 373.255 123.826 371.734 124.654C372.181 126.801 372.548 128.681 372.972 130.549C373.206 131.583 373.261 132.73 371.99 132.78C371.355 132.805 370.424 131.898 370.036 131.127C369.846 130.748 369.766 130.216 369.681 129.742C369.304 127.629 368.146 125.217 368.811 123.488C369.396 121.968 372.11 121.316 373.731 120.089C375.261 118.931 376.88 117.716 377.95 116.183C380.242 112.902 378.762 109.745 374.734 108.889C372.133 108.336 369.596 108.597 367.198 109.771C366.652 110.038 366.16 110.455 365.588 110.616C364.524 110.916 363.585 109.933 363.955 108.925C364.113 108.496 364.443 108.09 364.79 107.773C368.194 104.663 377.066 105.078 380.181 108.473ZM410.654 128.837C411.109 129.358 411.497 129.775 411.42 129.912C411.088 130.503 410.475 131.089 409.862 131.274C409.573 131.36 408.612 130.39 408.69 130.127C408.824 129.678 409.178 129.298 409.601 128.832C409.888 128.517 410.375 128.518 410.654 128.837ZM436.303 102.316C442.255 105.397 442.472 111.605 436.954 115.409C433.018 118.123 428.482 118.581 423.973 118.121C420.694 117.786 418.638 118.73 417.036 121.446C415.994 123.214 414.732 124.876 413.388 126.432C413.302 126.531 413.192 126.609 413.065 126.673C412.094 127.161 410.891 126.378 410.937 125.298C410.945 125.122 410.983 124.965 411.068 124.841L411.696 123.927C413.48 121.337 415.307 118.762 417.407 116.437C418.218 115.539 419.999 115.281 421.376 115.161C423.553 114.969 425.765 115.201 427.959 115.143C430.698 115.069 433.282 114.36 435.5 112.72C438.78 110.296 438.719 107.182 435.195 105.19C433.442 104.2 431.358 103.787 429.423 103.112C426.072 103.057 423.004 103.311 420.293 105.438C420.199 105.512 420.084 105.562 419.956 105.593C418.892 105.851 417.945 104.8 418.204 103.743C418.246 103.571 418.312 103.418 418.415 103.295C419.078 102.497 420.076 101.838 421.065 101.464C426.246 99.5065 431.434 99.7959 436.303 102.316ZM391.3 115.844C391.914 116.372 391.931 117.346 391.333 117.888C391.097 118.103 390.885 118.242 390.683 118.23C390.221 118.2 389.454 117.377 389.457 116.909C389.46 116.41 390.166 115.582 390.642 115.523C390.838 115.498 391.054 115.633 391.3 115.844ZM337.154 103.778C337.566 103.885 337.927 104.18 338.276 104.517C338.756 104.978 338.781 105.718 338.334 106.202L338.019 106.544C337.566 107.036 336.714 106.99 336.292 106.429C335.907 105.918 335.618 105.498 335.595 105.067C335.57 104.628 336.745 103.671 337.154 103.778ZM401.671 87.4608C402.701 90.4116 402.346 93.3561 400.448 95.7119C398.669 97.9188 396.562 99.9914 394.227 101.552C392.443 102.744 391.876 104.052 391.902 105.979L391.915 106.922C391.93 108.181 391.931 109.441 391.827 110.69C391.81 110.888 391.782 111.085 391.746 111.284C391.435 112.981 388.949 112.74 388.956 111.013L388.956 110.981C388.969 108.564 389.117 106.147 389.083 103.732C389.055 101.784 390.049 100.733 391.566 99.7113C393.626 98.3228 395.58 96.7182 397.358 94.9733C398.756 93.6013 399.423 91.7198 399.179 89.6701C398.833 86.7535 396.615 85.5467 394.014 86.8651C393.279 87.237 392.698 87.9551 391.944 88.2431C391.401 88.4505 390.399 88.4441 390.13 88.1033C389.815 87.7051 389.807 86.6255 390.129 86.2135C391.784 84.091 394.052 83.0726 396.717 83.3237C399.218 83.5591 400.849 85.1081 401.671 87.4608ZM353.327 99.1129C353.782 99.2381 354.163 99.6231 354.624 100.123C355.095 100.632 354.963 101.429 354.349 101.759C353.766 102.072 353.327 102.295 353.082 102.168C352.667 101.953 352.355 101.552 352.062 101.119C351.704 100.591 351.825 99.889 352.343 99.512C352.709 99.2456 353.059 99.0387 353.327 99.1129ZM371.28 69.841C371.178 74.0064 369.345 77.3999 366.18 79.9178C363.729 81.8667 361.058 83.5587 358.366 85.1602C356.869 86.0505 356.032 87.0945 355.893 88.8536C355.719 91.0362 355.436 93.2148 355.094 95.3777C355.074 95.5036 355.051 95.6285 355.023 95.7523C354.627 97.5443 351.989 97.1722 352.172 95.3456L352.176 95.309C352.478 92.4052 352.895 89.513 353.301 86.6209C353.566 84.7343 354.908 83.7522 356.402 82.838L357.461 82.1901C359.58 80.893 361.696 79.5796 363.692 78.1066C366.203 76.2543 367.909 73.7807 368.226 70.5194C368.646 66.1955 366.093 62.9656 361.79 63.1412C355.575 63.3945 350.371 65.8913 347.177 71.6342C346.665 72.5548 346.236 73.6329 345.156 72.9283C344.87 72.7418 344.689 72.3339 344.571 71.8646C344.349 70.9665 344.485 70.003 344.927 69.1909C344.999 69.0571 345.074 68.9362 345.146 68.8421C349.676 63.0248 355.499 59.7489 362.922 60.2332C368.067 60.5681 371.409 64.6069 371.28 69.841Z" fill="#1F41A4"/>
<path fill-rule="evenodd" clip-rule="evenodd" d="M570.993 182.66C589.091 188.019 578.083 189.548 591.008 167.651C603.047 146.79 614.48 148.172 635.971 146.568L634.474 133.336C621.331 134.293 606.798 134.248 595.583 142.297C585.766 149.435 579.387 160.076 574.423 170.852C572.892 174.249 571.521 177.696 570.315 181.242C570.113 181.837 570.42 182.476 570.993 182.66Z" fill="#9D8AB9"/>
<mask id="mask1_447:1235" style="mask-type:alpha" maskUnits="userSpaceOnUse" x="562" y="150" width="36" height="38">
<path fill-rule="evenodd" clip-rule="evenodd" d="M597.298 150.429H562.629V187.565H597.298V150.429Z" fill="#E8EBFF"/>
</mask>
<g mask="url(#mask1_447:1235)">
<path fill-rule="evenodd" clip-rule="evenodd" d="M570.244 177.825C573.951 168.025 578.659 158.628 585.31 150.429L597.298 160.296C590.966 168.168 586.438 177.895 583.304 187.565C583.145 187.519 578.563 186.178 578.269 186.092C578.266 185.822 578.331 185.328 578.354 185.049C578.354 185.049 575.274 185.216 575.274 185.216C572.137 184.298 565.743 182.428 562.629 181.516C562.72 181.215 562.906 180.608 563.002 180.311C563.217 177.253 567.459 178.974 570.244 177.825Z" fill="#0F2D88"/>
</g>
<path fill-rule="evenodd" clip-rule="evenodd" d="M584.55 151.374L596.719 161.015C604.207 150.739 614.505 148.845 626.261 148.238C634.437 147.798 643.059 147.714 650.305 142.953L641.856 129.917C635.778 133.312 628.281 132.137 621.394 132.994C606.202 134.165 593.946 138.938 584.55 151.374Z" fill="#B5BDE6"/>
<path d="M594.558 141.538C594.504 141.462 594.398 141.446 594.323 141.501C594.254 141.552 594.235 141.645 594.275 141.719L594.287 141.737L598.865 148.01C598.92 148.085 599.025 148.102 599.1 148.047C599.169 147.996 599.188 147.902 599.148 147.829L599.137 147.811L594.558 141.538Z" fill="#1F41A4"/>
<path d="M597.553 139.568C597.506 139.488 597.402 139.462 597.323 139.51C597.249 139.554 597.221 139.646 597.255 139.723L597.264 139.741L601.237 146.415C601.285 146.495 601.388 146.521 601.468 146.474C601.542 146.43 601.57 146.337 601.536 146.26L601.527 146.243L597.553 139.568Z" fill="#1F41A4"/>
<path d="M591.791 143.729C591.73 143.658 591.624 143.651 591.553 143.712C591.488 143.768 591.477 143.863 591.523 143.933L591.536 143.949L596.611 149.827C596.671 149.898 596.778 149.906 596.848 149.845C596.913 149.788 596.924 149.693 596.878 149.624L596.865 149.607L591.791 143.729Z" fill="#1F41A4"/>
<path d="M642.656 130.842C642.605 130.764 642.501 130.743 642.423 130.795C640.381 132.152 637.55 132.878 633.612 133.259L632.939 133.321C632.092 133.395 631.344 133.444 629.785 133.53L628.28 133.614L627.368 133.659C620.196 134.027 615.894 134.487 611.256 135.555C606.943 136.564 603.251 137.799 600.002 139.417C599.919 139.458 599.885 139.559 599.926 139.643C599.967 139.726 600.068 139.76 600.152 139.718C603.375 138.114 607.043 136.887 611.332 135.883L611.62 135.817C616.317 134.758 620.743 134.318 628.297 133.95L630.785 133.811C631.967 133.741 632.598 133.693 633.487 133.61L633.798 133.58C637.707 133.189 640.537 132.453 642.609 131.076C642.687 131.024 642.708 130.919 642.656 130.842Z" fill="#0F2D88"/>
<path d="M589.821 145.52L589.962 145.67L591.906 147.759C592.505 148.4 592.902 148.811 593.249 149.143L593.286 149.178C594.157 150.005 594.741 150.34 595.364 150.326C595.919 150.314 596.454 150.048 597.435 149.347L597.637 149.201C597.949 148.972 598.843 148.309 599.169 148.07L599.197 148.05C599.963 147.491 600.682 146.99 601.469 146.474C602.734 145.717 602.689 144.329 601.727 142.306L601.694 142.236C601.517 141.87 601.317 141.491 601.064 141.041L600.297 139.696C600.256 139.622 600.222 139.561 600.198 139.518L600.125 139.384C599.903 138.972 599.763 138.67 599.69 138.434C599.663 138.345 599.569 138.296 599.48 138.323C599.391 138.351 599.341 138.445 599.369 138.534C599.45 138.795 599.596 139.113 599.828 139.542L599.947 139.759C600.143 140.109 600.649 140.99 600.716 141.109L600.823 141.3C601.031 141.673 601.202 141.996 601.353 142.305L601.391 142.382C602.317 144.304 602.371 145.542 601.29 146.188C600.573 146.659 599.915 147.115 599.229 147.611L598.908 147.844C598.505 148.139 597.576 148.83 597.372 148.977L597.184 149.112C596.293 149.744 595.813 149.979 595.357 149.989C594.846 150 594.33 149.704 593.518 148.933L593.407 148.827C593.107 148.537 592.762 148.18 592.276 147.661L590.114 145.34L590.066 145.289C590.002 145.221 589.896 145.218 589.828 145.282C589.761 145.345 589.757 145.452 589.821 145.52Z" fill="#1F41A4"/>
<path fill-rule="evenodd" clip-rule="evenodd" d="M651.466 145.737H653.149C662.349 145.737 669.807 138.265 669.807 129.048H634.807C634.807 138.265 642.265 145.737 651.466 145.737Z" fill="#D1D6F0"/>
<path fill-rule="evenodd" clip-rule="evenodd" d="M620.995 204.808C619.203 194.582 617.586 184.359 616.675 173.972L632.136 172.669C633.214 183.783 634.806 195.175 637.131 206.147C636.431 206.347 634.389 206.946 633.661 207.16C630.03 208.225 637.882 205.925 637.128 206.139C637.126 206.132 637.12 206.111 637.118 206.104C636.96 206.151 632.385 207.52 632.092 207.608C631.921 207.396 631.784 207.051 631.639 206.788C630.798 207.326 629.944 207.966 629.103 208.503C625.974 209.439 619.588 211.352 616.481 212.282C616.361 211.877 616.205 211.282 616.101 210.871C614.602 207.872 619.566 206.886 620.995 204.808Z" fill="#1F41A4"/>
<mask id="mask2_447:1235" style="mask-type:alpha" maskUnits="userSpaceOnUse" x="616" y="128" width="55" height="48">
<path fill-rule="evenodd" clip-rule="evenodd" d="M670.438 128.448H616.24V175.213H670.438V128.448Z" fill="#E8EBFF"/>
</mask>
<g mask="url(#mask2_447:1235)">
<path fill-rule="evenodd" clip-rule="evenodd" d="M632.235 173.798C631.918 170.069 631.587 166.036 631.882 162.453C631.879 162.455 631.89 162.445 631.868 162.473C636.707 157.03 644.161 154.986 650.848 151.92C660.683 148.016 670.327 140.594 670.438 128.94L654.93 129.048C654.6 135.267 645.89 136.85 641.031 139.21C635.869 141.372 630.607 143.605 625.904 147.013C621.993 150.033 617.634 153.765 616.729 158.894C615.836 164.31 616.357 169.807 616.784 175.213L632.235 173.798Z" fill="#D1D6F0"/>
</g>
<path fill-rule="evenodd" clip-rule="evenodd" d="M626.803 156.633C628.438 156.779 630.005 157.095 631.508 157.529C642.728 148.287 666 147.608 666.698 129.008L658.953 128.94C658.834 136.286 651.086 139.214 645.282 141.742C638.833 144.501 632.069 146.989 626.557 151.546C626.472 153.298 626.547 155.01 626.803 156.633Z" fill="#1F41A4"/>
<path d="M616.491 160.477C616.399 160.466 616.316 160.532 616.305 160.625C616.295 160.71 616.351 160.789 616.433 160.808L616.453 160.811L624.159 161.709C624.251 161.72 624.335 161.653 624.346 161.561C624.356 161.475 624.299 161.397 624.217 161.377L624.198 161.374L616.491 160.477Z" fill="#1F41A4"/>
<path d="M617.693 155.774C617.608 155.736 617.509 155.773 617.47 155.858C617.434 155.936 617.464 156.028 617.536 156.072L617.553 156.081L624.65 159.329C624.734 159.368 624.834 159.33 624.873 159.246C624.909 159.167 624.879 159.075 624.807 159.032L624.79 159.022L617.693 155.774Z" fill="#1F41A4"/>
<path d="M616.259 164.347C616.167 164.346 616.09 164.421 616.089 164.514C616.088 164.6 616.152 164.672 616.236 164.683L616.255 164.685L624.012 164.782C624.105 164.783 624.181 164.708 624.183 164.615C624.184 164.529 624.12 164.457 624.036 164.446L624.016 164.445L616.259 164.347Z" fill="#1F41A4"/>
<path d="M656.309 129.085L656.306 129.085L656.309 129.068L656.311 129.042L656.308 129.015C656.306 129.008 656.304 129.001 656.294 128.974L656.278 128.949C656.239 128.888 656.221 128.89 656.059 128.901L655.981 128.997C655.971 129.011 655.973 129.011 655.977 129.012L655.971 129.048L655.936 129.279L655.928 129.325C655.887 129.574 655.84 129.814 655.785 130.04C655.754 130.169 655.721 130.288 655.686 130.396C655.143 132.091 653.84 133.604 651.756 135.065C650.077 136.243 647.971 137.352 644.943 138.712L644.381 138.963C643.205 139.48 638.321 141.571 636.628 142.326L636.475 142.394C632.782 144.053 629.931 145.539 627.416 147.195C624.374 149.197 621.984 151.369 620.227 153.841C620.173 153.917 620.191 154.022 620.267 154.076C620.343 154.13 620.448 154.112 620.502 154.037C622.231 151.602 624.591 149.458 627.6 147.476C630.052 145.862 632.832 144.408 636.413 142.791L636.877 142.584C638.719 141.766 643.674 139.646 644.618 139.226L645.082 139.019C648.128 137.651 650.249 136.534 651.949 135.341C654.088 133.841 655.438 132.274 656.007 130.499C656.044 130.383 656.079 130.256 656.112 130.119C656.158 129.932 656.198 129.735 656.234 129.533L656.268 129.333L656.305 129.095L656.306 129.093C656.31 129.088 656.311 129.086 656.309 129.085Z" fill="#1F41A4"/>
<path d="M619.506 153.096C619.439 153.032 619.332 153.034 619.268 153.101C619.203 153.168 619.205 153.275 619.272 153.339C619.434 153.495 619.704 153.701 620.161 154.024L621.451 154.922C621.581 155.013 621.7 155.097 621.816 155.179L621.93 155.261C622.264 155.5 622.56 155.718 622.83 155.926L622.96 156.027C623.981 156.827 624.565 157.451 624.632 157.855L624.635 157.88L624.642 157.912C624.774 158.328 624.75 158.713 624.566 159.109C624.242 159.856 624.104 160.583 623.975 161.875C623.899 162.714 623.861 163.583 623.846 164.611C623.833 165.686 622.966 166.588 621.88 166.645L621.829 166.647L616.269 166.777C616.176 166.779 616.103 166.856 616.105 166.949C616.107 167.035 616.173 167.105 616.257 167.113L616.277 167.114L621.837 166.984C623.129 166.948 624.167 165.888 624.183 164.616C624.197 163.596 624.236 162.734 624.31 161.907L624.331 161.708C624.451 160.574 624.585 159.911 624.873 159.247C625.081 158.799 625.118 158.346 624.981 157.872L624.967 157.824L624.965 157.81C624.882 157.274 624.243 156.597 623.104 155.712L623.035 155.659L622.849 155.517C622.627 155.349 622.388 155.174 622.126 154.986L621.833 154.778C621.711 154.693 621.582 154.603 621.439 154.503L620.527 153.87L620.256 153.678C619.873 153.406 619.64 153.226 619.506 153.096Z" fill="#1F41A4"/>
<path fill-rule="evenodd" clip-rule="evenodd" d="M612.287 58.4167C611.499 58.1354 610.583 58.6895 610.265 59.6544C609.833 61.8335 604.925 74.3933 608.144 74.5937C608.966 74.718 609.771 74.0309 609.939 73.057C610.71 68.8072 611.806 64.6725 613.14 60.6076C613.447 59.6776 613.075 58.6988 612.287 58.4167Z" fill="#0F2D88"/>
<mask id="mask3_447:1235" style="mask-type:alpha" maskUnits="userSpaceOnUse" x="611" y="57" width="6" height="10">
<path fill-rule="evenodd" clip-rule="evenodd" d="M616.5 57.1976H611.684V66.0675H616.5V57.1976Z" fill="#E8EBFF"/>
</mask>
<g mask="url(#mask3_447:1235)">
<path fill-rule="evenodd" clip-rule="evenodd" d="M615.574 57.28C613.069 56.4402 612.544 62.2624 611.764 63.9071C611.492 64.8562 611.934 65.8039 612.744 66.0215C613.55 66.2378 614.41 65.6699 614.673 64.7555C615.193 62.9739 615.756 61.2061 616.383 59.4564C616.701 58.5604 616.351 57.5898 615.574 57.28Z" fill="#0F2D88"/>
</g>
<path fill-rule="evenodd" clip-rule="evenodd" d="M618.221 57.9099C615.751 57.0003 615.225 62.6861 614.458 64.2916C614.183 65.2116 614.639 66.1432 615.442 66.3625C616.253 66.5835 617.098 66.0373 617.363 65.1515C617.872 63.4218 618.432 61.7035 619.043 60.0161C619.356 59.1505 618.995 58.2237 618.221 57.9099Z" fill="#0F2D88"/>
<path fill-rule="evenodd" clip-rule="evenodd" d="M620.099 65.3944C617.578 64.7238 617.545 70.0766 616.897 71.7183C616.665 72.2989 617.686 73.8863 617.952 74.1488C618.159 73.0925 619.561 73.7344 619.969 71.8434C620.034 70.0609 622.43 66.2283 620.099 65.3944Z" fill="#0F2D88"/>
<path fill-rule="evenodd" clip-rule="evenodd" d="M620.212 60.2485C619.429 59.9567 618.531 60.4265 618.231 61.3099C617.225 64.2604 616.358 67.2679 615.662 70.3033C615.454 71.1603 615.92 72.0703 616.783 72.2559C617.635 72.4275 618.415 71.8257 618.613 70.9855C619.283 68.0608 620.125 65.1422 621.096 62.2937C621.384 61.4463 620.997 60.5403 620.212 60.2485Z" fill="#0F2D88"/>
<path fill-rule="evenodd" clip-rule="evenodd" d="M614.953 63.2346C606.334 61.5253 606.994 74.4405 606.22 80.1852C605.897 86.8715 606.602 93.7952 610.016 99.8251C612.405 104.005 616.123 107.292 620.173 109.572C625.463 112.569 631.467 114.159 637.298 114.995C640.295 115.484 643.325 114.671 643.598 111.339C643.795 108.395 641.773 105.67 638.904 105.18C632.818 104.162 626.178 102.147 621.786 97.9941C615.91 92.3482 616.597 83.2783 617.664 75.7965C618.448 71.1863 620.756 65.5097 614.953 63.2346Z" fill="#0F2D88"/>
<path fill-rule="evenodd" clip-rule="evenodd" d="M617.713 75.5266L606.756 73.7099C605.509 83.537 604.75 94.842 611.299 103.148C617.326 111.038 627.284 114.571 636.618 116.077C643.925 117.488 650.353 112.737 644.382 105.965C641.514 102.888 634.525 102.708 630.353 101.206C625.91 99.7031 621.65 97.3102 619.561 93.1845C616.954 87.7189 617.366 81.4513 617.713 75.5266Z" fill="#B5BDE6"/>
<path fill-rule="evenodd" clip-rule="evenodd" d="M618.509 90.4635L617.445 90.7249C616.294 87.6111 615.834 84.1123 615.735 80.7056L617.496 80.8315C617.381 84.2596 617.667 87.6094 618.509 90.4635Z" fill="#0F2D88"/>
<mask id="mask4_447:1235" style="mask-type:alpha" maskUnits="userSpaceOnUse" x="605" y="80" width="4" height="14">
<path fill-rule="evenodd" clip-rule="evenodd" d="M608.266 80.0215H605.902V93.3559H608.266V80.0215Z" fill="#E8EBFF"/>
</mask>
<g mask="url(#mask4_447:1235)">
<path fill-rule="evenodd" clip-rule="evenodd" d="M607.615 93.1403L606.738 93.3559C605.767 88.8733 605.735 84.4368 606.168 80.0215L608.266 80.1713C607.424 84.4121 607.048 88.7001 607.615 93.1403Z" fill="#0F2D88"/>
</g>
<path fill-rule="evenodd" clip-rule="evenodd" d="M612.256 97.8911L609.034 99.5726C611.458 104.38 615.801 108.297 620.37 110.822C623.947 105.092 622.366 105.879 618.05 102.015C616.206 100.672 615.027 96.8485 612.256 97.8911Z" fill="#0F2D88"/>
<path fill-rule="evenodd" clip-rule="evenodd" d="M608.266 80.1714C607.659 78.0572 607.163 75.8953 606.756 73.71C606.472 75.781 606.267 77.8826 606.169 80.0214L608.266 80.1714Z" fill="#0F2D88"/>
<path fill-rule="evenodd" clip-rule="evenodd" d="M615.735 80.7057C616.312 78.9446 616.979 77.2198 617.713 75.5266C617.56 77.3158 617.482 79.0913 617.496 80.8316L615.735 80.7057Z" fill="#0F2D88"/>
<path fill-rule="evenodd" clip-rule="evenodd" d="M618.334 92.7259L615.655 93.7336C619.372 103.584 630.872 106.934 640.401 108.281C642.165 108.539 642.502 105.641 640.772 105.438C632.168 104.144 621.763 101.494 618.334 92.7259Z" fill="#0F2D88"/>
<path fill-rule="evenodd" clip-rule="evenodd" d="M634.906 129.112H670.547V112.655C670.547 108.699 667.346 105.492 663.397 105.492H642.056C638.107 105.492 634.906 108.699 634.906 112.655V129.112Z" fill="#D1D6F0"/>
<mask id="mask5_447:1235" style="mask-type:alpha" maskUnits="userSpaceOnUse" x="605" y="57" width="98" height="106">
<path fill-rule="evenodd" clip-rule="evenodd" d="M702.29 162.51H605.902V57.1976H702.29V162.51Z" fill="#E8EBFF"/>
</mask>
<g mask="url(#mask5_447:1235)">
<path fill-rule="evenodd" clip-rule="evenodd" d="M666.764 129.13H659.003V113.716H666.764V129.13Z" fill="#1F41A4"/>
<path d="M641.58 105.577C640.514 105.577 639.812 106.051 639.442 106.926C639.154 107.608 639.073 108.503 639.144 109.639L639.152 109.746C639.181 110.155 639.225 110.565 639.293 111.076L639.39 111.775L639.547 112.851C639.716 113.999 639.943 115.495 640.219 117.279L640.644 120.016L641.097 122.909C641.229 123.752 641.364 124.603 641.498 125.456L642.083 129.143C642.098 129.235 642.184 129.297 642.276 129.283C642.361 129.269 642.421 129.194 642.417 129.109L642.412 129.071L641.831 125.404C641.651 124.267 641.472 123.131 641.298 122.019L640.45 116.572C640.22 115.076 640.028 113.806 639.88 112.802L639.67 111.349L639.627 111.033C639.564 110.561 639.522 110.178 639.493 109.802L639.487 109.722C639.311 107.23 639.868 105.914 641.58 105.914C641.673 105.914 641.748 105.838 641.748 105.745C641.748 105.652 641.673 105.577 641.58 105.577Z" fill="#1F41A4"/>
<path d="M660.478 105.577C659.099 105.577 657.68 106.396 656.366 107.797C655.281 108.953 654.339 110.453 653.867 111.691L653.751 111.999C653.216 113.435 652.495 115.548 651.632 118.191L651.301 119.207L651.207 119.497C650.658 121.198 650.086 122.998 649.517 124.816L648.918 126.735L648.198 129.067C648.17 129.156 648.22 129.25 648.309 129.277C648.392 129.303 648.479 129.261 648.513 129.184L648.528 129.137L649.044 127.463C649.171 127.055 649.304 126.625 649.444 126.177L649.838 124.917C650.407 123.099 650.978 121.301 651.528 119.601L651.903 118.444C652.851 115.539 653.629 113.263 654.182 111.812C654.638 110.614 655.557 109.152 656.611 108.028C657.868 106.688 659.208 105.914 660.478 105.914C660.571 105.914 660.646 105.838 660.646 105.745C660.646 105.652 660.571 105.577 660.478 105.577Z" fill="#1F41A4"/>
<path d="M643.149 105.267C642.21 105.267 641.591 105.907 641.268 107.032C641.008 107.934 640.935 109.146 641.011 110.595C641.063 111.582 641.182 112.634 641.349 113.703C641.428 114.216 641.514 114.7 641.6 115.14L641.67 115.49L641.714 115.699C641.738 115.807 641.829 115.886 641.937 115.896L641.961 115.897H649.589C649.689 115.897 649.78 115.838 649.82 115.747L649.87 115.635C649.912 115.543 649.961 115.436 650.017 115.316L650.116 115.105C650.252 114.817 650.403 114.506 650.568 114.175C651.157 112.995 651.799 111.815 652.473 110.714C653.58 108.904 654.662 107.494 655.665 106.645C656.344 106.07 656.964 105.773 657.508 105.773C657.648 105.773 657.761 105.66 657.761 105.52C657.761 105.38 657.648 105.267 657.508 105.267C656.824 105.267 656.1 105.613 655.339 106.258C654.286 107.151 653.176 108.598 652.042 110.45C651.36 111.564 650.711 112.757 650.117 113.949L649.994 114.196C649.855 114.48 649.726 114.748 649.609 114.997L649.48 115.275L649.427 115.391H642.165L642.11 115.117L642.095 115.043C642.011 114.609 641.926 114.132 641.847 113.625C641.684 112.572 641.566 111.536 641.515 110.569C641.356 107.547 641.866 105.773 643.149 105.773C643.288 105.773 643.401 105.66 643.401 105.52C643.401 105.38 643.288 105.267 643.149 105.267Z" fill="#1F41A4"/>
<path d="M659.18 117.122C659.088 117.03 658.941 117.025 658.843 117.106L658.823 117.123L654.736 121.245C654.71 121.271 654.691 121.302 654.678 121.336L654.67 121.362L652.743 129.05C652.709 129.185 652.791 129.323 652.926 129.357C653.053 129.389 653.182 129.318 653.225 129.196L653.232 129.173L655.143 121.552L659.182 117.48C659.274 117.387 659.279 117.24 659.198 117.141L659.18 117.122Z" fill="#B5BDE6"/>
<path d="M634.972 117.156C634.892 117.042 634.734 117.014 634.621 117.095C634.514 117.171 634.483 117.315 634.547 117.427L634.56 117.448L637.443 121.531L639.359 129.173C639.391 129.301 639.514 129.381 639.641 129.362L639.665 129.357C639.792 129.325 639.872 129.201 639.853 129.074L639.848 129.05L637.921 121.362C637.915 121.339 637.906 121.317 637.895 121.297L637.882 121.277L634.972 117.156Z" fill="#B5BDE6"/>
<path fill-rule="evenodd" clip-rule="evenodd" d="M696.673 162.457C697.469 162.714 698.406 162.009 698.725 160.901C699.855 156.968 700.741 153.024 701.377 148.977C701.8 146.326 698.797 145.856 698.385 148.507C697.769 152.422 696.906 156.261 695.815 160.058C695.509 161.122 695.878 162.197 696.673 162.457Z" fill="#1F41A4"/>
<path fill-rule="evenodd" clip-rule="evenodd" d="M693.97 162.066C696.406 162.442 696.407 158.398 697.053 156.745C697.322 155.662 696.861 154.632 696.043 154.448C695.229 154.265 694.374 154.967 694.114 156.01C693.946 157.797 691.836 160.981 693.97 162.066Z" fill="#1F41A4"/>
<path fill-rule="evenodd" clip-rule="evenodd" d="M691.279 161.623C693.687 162.079 693.694 158.123 694.334 156.514C694.604 155.463 694.135 154.453 693.323 154.266C692.504 154.079 691.658 154.754 691.399 155.766C691.225 157.513 689.149 160.578 691.279 161.623Z" fill="#1F41A4"/>
<path fill-rule="evenodd" clip-rule="evenodd" d="M688.122 157.982C690.684 158.632 690.817 152.453 691.443 150.722C691.678 150.071 690.685 148.34 690.397 148.021C690.18 149.226 688.781 148.563 688.353 150.725C688.315 152.597 685.788 157.195 688.122 157.982Z" fill="#1F41A4"/>
<path fill-rule="evenodd" clip-rule="evenodd" d="M688.853 160.737C691.598 161.993 692.654 151.092 693.275 149.144C693.444 148.225 693.012 147.202 692.083 147.042C691.162 146.924 690.45 147.721 690.291 148.623C689.708 151.963 688.915 155.319 687.949 158.566C687.662 159.534 688.057 160.48 688.853 160.737Z" fill="#1F41A4"/>
<path fill-rule="evenodd" clip-rule="evenodd" d="M693.267 160.165C700.344 161.505 701.022 152.095 701.643 147.019C702.577 138.462 702.518 129.377 698.46 121.435C693.472 111.741 682.006 108.197 671.974 107.066C668.411 106.925 663.887 105.756 660.77 107.576C658.341 109.055 658.925 113.109 660.799 114.875C663.28 117.603 667.387 116.543 670.633 117.248C675.834 117.972 681.381 119.245 685.574 122.369C692.347 127.681 691.44 138.569 690.473 146.424C690.203 148.281 689.863 150.142 689.462 151.995C688.91 155.279 690.037 159.085 693.267 160.165Z" fill="#D1D6F0"/>
<path fill-rule="evenodd" clip-rule="evenodd" d="M690.638 146.448L701.521 148.033C703.02 135.596 703.135 120.14 691.294 112.506C685.594 108.622 678.796 106.935 672.104 106.086C666.585 105.715 656.056 103.395 656.169 111.838C656.667 118 662.357 117.322 667.572 117.824C672.159 118.192 677.778 119.025 682.29 121.143C691.986 125.255 691.469 137.444 690.638 146.448Z" fill="#D1D6F0"/>
<path fill-rule="evenodd" clip-rule="evenodd" d="M689.681 129.421L690.461 129.193C692.163 132.601 692.996 136.636 693.421 140.536C692.535 142.568 691.541 144.525 690.474 146.424C691.141 140.805 691.324 134.664 689.681 129.421Z" fill="#1F41A4"/>
<path fill-rule="evenodd" clip-rule="evenodd" d="M700.175 126.347L700.938 126.123C702.289 131.074 702.469 136.017 702.159 140.968L700.06 140.864C700.818 136.082 701.086 131.282 700.175 126.347Z" fill="#1F41A4"/>
<path fill-rule="evenodd" clip-rule="evenodd" d="M694.968 121.189L698.046 119.256C694.775 113.995 689.32 110.586 683.659 108.568C681.91 113.148 681.368 113.813 686.241 116.067C687.509 116.768 688.714 117.589 689.822 118.529C691.276 119.724 692.848 122.215 694.968 121.189Z" fill="#1F41A4"/>
<path fill-rule="evenodd" clip-rule="evenodd" d="M702.161 140.968L691.069 140.42C690.971 142.404 690.764 144.412 690.473 146.424L701.521 148.033C701.836 145.713 702.062 143.362 702.161 140.968Z" fill="#1F41A4"/>
<path fill-rule="evenodd" clip-rule="evenodd" d="M668.954 117.476L670.14 106.244C665.24 105.976 657.328 104.471 657.288 111.605C658.101 118.387 664.058 116.811 668.954 117.476Z" fill="#1F41A4"/>
<path d="M654.325 105.438C654.296 105.349 654.2 105.302 654.112 105.332L654.057 105.351C654.045 105.356 654.031 105.361 654.015 105.367C653.939 105.397 653.852 105.433 653.754 105.476C653.475 105.6 653.164 105.757 652.83 105.952C651.879 106.508 650.928 107.251 650.04 108.208C648.401 109.976 647.17 112.265 646.514 115.141C646.494 115.232 646.55 115.322 646.641 115.343C646.731 115.363 646.822 115.307 646.842 115.216C647.485 112.399 648.687 110.163 650.287 108.438C651.151 107.506 652.076 106.783 653 106.244C653.323 106.055 653.622 105.903 653.89 105.785C653.983 105.743 654.066 105.709 654.136 105.682L654.201 105.658C654.209 105.655 654.215 105.653 654.219 105.651C654.307 105.622 654.355 105.526 654.325 105.438Z" fill="#B5BDE6"/>
<path d="M644.639 105.413C644.595 105.33 644.493 105.299 644.411 105.342C644.335 105.383 644.302 105.474 644.333 105.552L644.351 105.593C644.358 105.608 644.366 105.63 644.376 105.659C644.407 105.749 644.439 105.866 644.469 106.012C644.799 107.6 644.624 110.515 643.569 115.141C643.548 115.231 643.605 115.322 643.696 115.343C643.786 115.363 643.876 115.307 643.897 115.216L643.96 114.938C644.959 110.475 645.129 107.611 644.809 105.993L644.799 105.943C644.742 105.667 644.682 105.496 644.639 105.413Z" fill="#B5BDE6"/>
</g>
<path fill-rule="evenodd" clip-rule="evenodd" d="M646.279 103.24H647.118C651.028 103.24 654.197 100.066 654.197 96.1495V92.8232C654.197 89.8252 651.771 87.3948 648.778 87.3948H647.837C644.844 87.3948 642.418 89.8252 642.418 92.8232V99.372C642.418 101.508 644.147 103.24 646.279 103.24Z" fill="#9D8AB9"/>
<path fill-rule="evenodd" clip-rule="evenodd" d="M652.178 97.2562C652.178 98.42 653.119 99.3633 654.281 99.3633C655.442 99.3633 656.384 98.42 656.384 97.2562C656.384 96.0924 655.442 95.149 654.281 95.149C653.119 95.149 652.178 96.0924 652.178 97.2562Z" fill="#9D8AB9"/>
<path d="M654.69 96.6103C654.69 96.6103 653.757 96.6103 653.757 97.5445" stroke="#00196E" stroke-width="3"/>
<path fill-rule="evenodd" clip-rule="evenodd" d="M654.365 95.149H654.623C655.608 94.1895 655.987 92.2341 656.101 90.3362C656.257 87.7353 651.749 85.5405 649.148 85.5405H646.122L643.259 89.9233H649.872C649.872 92.789 652.345 95.149 654.365 95.149Z" fill="#00196E"/>
<path fill-rule="evenodd" clip-rule="evenodd" d="M650.804 89.8084L646.727 91.0384C645.087 91.5332 643.357 90.6023 642.863 88.9593L642.478 87.6783C642.286 87.0391 642.648 86.3647 643.286 86.1721L646.759 85.1245C648.919 84.473 651.197 85.6988 651.847 87.8627C652.096 88.6886 651.629 89.5597 650.804 89.8084Z" fill="#00196E"/>
<path fill-rule="evenodd" clip-rule="evenodd" d="M645.935 108.466H648.774C650.998 108.466 653.332 107.254 654.168 105.431C654.168 105.431 654.197 104.041 654.197 103.308V102.124C654.197 101.784 653.907 101.508 653.549 101.508H643.828C643.47 101.508 643.18 101.784 643.18 102.124V105.845C643.18 107.293 644.414 108.466 645.935 108.466Z" fill="#00196E"/>
<path fill-rule="evenodd" clip-rule="evenodd" d="M641.567 104.008C642.16 105.451 643.644 106.394 645.285 106.394H646.568C650.398 106.394 652.651 104.808 654.959 102.964C654.959 102.964 656.402 101.573 657.42 98.9289C658.693 95.6192 659.513 90.748 658.443 88.7877C657.356 86.7967 654.468 82.837 650.275 82.837C644.22 82.837 639.751 86.1112 639.751 91.8267L640.628 99.1433C640.628 100.338 641.082 102.827 641.567 104.008Z" fill="#D1D6F0"/>
<path fill-rule="evenodd" clip-rule="evenodd" d="M655.863 92.8404C655.863 92.8404 654.001 85.7702 646.469 85.7702C642.445 85.7702 640.215 88.9248 639.867 92.7923L640.628 99.1432C640.628 99.1432 642.639 106.98 652.652 100.206C652.958 99.9989 653.147 99.6698 653.254 99.3298L655.863 92.8404Z" fill="#1F41A4"/>
<path d="M651.505 90.6611L649.893 95.3175" stroke="#E8EBFF" stroke-width="7" stroke-linecap="round" stroke-linejoin="round" stroke-dasharray="12 12"/>
</g>
<defs>
<clipPath id="clip0_447:1235">
<rect width="747" height="199" fill="white"/>
</clipPath>
</defs>
</svg>
