<svg width="628" height="167" viewBox="0 0 628 167" fill="none" xmlns="http://www.w3.org/2000/svg">
<g clip-path="url(#clip0_447:1235)">
<path fill-rule="evenodd" clip-rule="evenodd" d="M175.064 106.026C196.228 117.88 216.749 139.474 218.486 162.799C220.287 186.123 203.176 211.241 182.076 226.812C160.976 242.382 135.76 248.534 110.543 248.598C85.2622 248.662 59.9813 242.703 39.2676 227.132C18.554 211.497 2.53626 186.315 -6.85564 151.713C-16.3119 117.112 -19.0137 73.1546 1.69999 61.3003C22.3493 49.446 66.4784 69.6944 99.4144 80.9079C132.286 92.0573 153.965 94.1719 175.064 106.026Z" fill="#D1D6F0"/>
<path d="M54.4201 85.2818C55.1955 85.2818 55.824 84.6522 55.824 83.8756C55.824 83.099 55.1955 82.4695 54.4201 82.4695C53.6447 82.4695 53.0161 83.099 53.0161 83.8756C53.0161 84.6522 53.6447 85.2818 54.4201 85.2818Z" fill="white"/>
<path d="M151.857 157.838C153.098 157.838 154.103 156.831 154.103 155.589C154.103 154.346 153.098 153.339 151.857 153.339C150.616 153.339 149.611 154.346 149.611 155.589C149.611 156.831 150.616 157.838 151.857 157.838Z" fill="white"/>
<path d="M180.78 100.187C181.09 100.187 181.341 99.935 181.341 99.6243C181.341 99.3137 181.09 99.0619 180.78 99.0619C180.469 99.0619 180.218 99.3137 180.218 99.6243C180.218 99.935 180.469 100.187 180.78 100.187Z" fill="white"/>
<path d="M81.3809 105.811C81.6911 105.811 81.9425 105.56 81.9425 105.249C81.9425 104.938 81.6911 104.687 81.3809 104.687C81.0708 104.687 80.8193 104.938 80.8193 105.249C80.8193 105.56 81.0708 105.811 81.3809 105.811Z" fill="white"/>
<path d="M76.8843 86.688C77.1945 86.688 77.4459 86.4361 77.4459 86.1255C77.4459 85.8149 77.1945 85.563 76.8843 85.563C76.5742 85.563 76.3228 85.8149 76.3228 86.1255C76.3228 86.4361 76.5742 86.688 76.8843 86.688Z" fill="white"/>
<path d="M66.4958 92.0313C67.4263 92.0313 68.1806 91.2758 68.1806 90.3439C68.1806 89.412 67.4263 88.6566 66.4958 88.6566C65.5653 88.6566 64.811 89.412 64.811 90.3439C64.811 91.2758 65.5653 92.0313 66.4958 92.0313Z" fill="white"/>
<path d="M59.756 157.276C60.6865 157.276 61.4408 156.521 61.4408 155.589C61.4408 154.657 60.6865 153.901 59.756 153.901C58.8256 153.901 58.0713 154.657 58.0713 155.589C58.0713 156.521 58.8256 157.276 59.756 157.276Z" fill="white"/>
<path d="M138.941 158.963C139.871 158.963 140.626 158.208 140.626 157.276C140.626 156.344 139.871 155.589 138.941 155.589C138.01 155.589 137.256 156.344 137.256 157.276C137.256 158.208 138.01 158.963 138.941 158.963Z" fill="white"/>
<path d="M169.83 104.968C170.76 104.968 171.515 104.212 171.515 103.28C171.515 102.348 170.76 101.593 169.83 101.593C168.9 101.593 168.145 102.348 168.145 103.28C168.145 104.212 168.9 104.968 169.83 104.968Z" fill="white"/>
<path d="M101.875 89.7814C102.806 89.7814 103.56 89.0259 103.56 88.094C103.56 87.1621 102.806 86.4067 101.875 86.4067C100.945 86.4067 100.19 87.1621 100.19 88.094C100.19 89.0259 100.945 89.7814 101.875 89.7814Z" fill="white"/>
<path d="M54.4193 102.718C54.8845 102.718 55.2617 102.34 55.2617 101.874C55.2617 101.408 54.8845 101.031 54.4193 101.031C53.9541 101.031 53.5769 101.408 53.5769 101.874C53.5769 102.34 53.9541 102.718 54.4193 102.718Z" fill="white"/>
<path d="M26.3426 68.4081C26.8079 68.4081 27.185 68.0303 27.185 67.5644C27.185 67.0984 26.8079 66.7207 26.3426 66.7207C25.8774 66.7207 25.5002 67.0984 25.5002 67.5644C25.5002 68.0303 25.8774 68.4081 26.3426 68.4081Z" fill="white"/>
<path d="M48.2442 167.4C48.7095 167.4 49.0866 167.022 49.0866 166.557C49.0866 166.091 48.7095 165.713 48.2442 165.713C47.779 165.713 47.4019 166.091 47.4019 166.557C47.4019 167.022 47.779 167.4 48.2442 167.4Z" fill="white"/>
<path d="M144.842 165.15C145.308 165.15 145.685 164.773 145.685 164.307C145.685 163.841 145.308 163.463 144.842 163.463C144.377 163.463 144 163.841 144 164.307C144 164.773 144.377 165.15 144.842 165.15Z" fill="white"/>
<path d="M175.724 111.155C176.189 111.155 176.566 110.777 176.566 110.311C176.566 109.845 176.189 109.467 175.724 109.467C175.258 109.467 174.881 109.845 174.881 110.311C174.881 110.777 175.258 111.155 175.724 111.155Z" fill="white"/>
<path d="M76.3248 116.779C76.79 116.779 77.1672 116.401 77.1672 115.936C77.1672 115.47 76.79 115.092 76.3248 115.092C75.8596 115.092 75.4824 115.47 75.4824 115.936C75.4824 116.401 75.8596 116.779 76.3248 116.779Z" fill="white"/>
<path d="M71.2681 109.749C71.5783 109.749 71.8297 109.497 71.8297 109.186C71.8297 108.875 71.5783 108.624 71.2681 108.624C70.958 108.624 70.7065 108.875 70.7065 109.186C70.7065 109.497 70.958 109.749 71.2681 109.749Z" fill="white"/>
<path d="M125.745 132.809C126.055 132.809 126.307 132.557 126.307 132.247C126.307 131.936 126.055 131.684 125.745 131.684C125.435 131.684 125.183 131.936 125.183 132.247C125.183 132.557 125.435 132.809 125.745 132.809Z" fill="white"/>
<path d="M56.1065 113.123C56.4167 113.123 56.6681 112.872 56.6681 112.561C56.6681 112.25 56.4167 111.998 56.1065 111.998C55.7964 111.998 55.5449 112.25 55.5449 112.561C55.5449 112.872 55.7964 113.123 56.1065 113.123Z" fill="white"/>
<path d="M28.0313 78.8136C28.3415 78.8136 28.5929 78.5618 28.5929 78.2512C28.5929 77.9405 28.3415 77.6887 28.0313 77.6887C27.7212 77.6887 27.4697 77.9405 27.4697 78.2512C27.4697 78.5618 27.7212 78.8136 28.0313 78.8136Z" fill="white"/>
<path d="M120.689 143.777C121.155 143.777 121.532 143.399 121.532 142.934C121.532 142.468 121.155 142.09 120.689 142.09C120.224 142.09 119.847 142.468 119.847 142.934C119.847 143.399 120.224 143.777 120.689 143.777Z" fill="white"/>
<path d="M51.0543 124.091C51.5195 124.091 51.8967 123.713 51.8967 123.247C51.8967 122.781 51.5195 122.404 51.0543 122.404C50.5891 122.404 50.2119 122.781 50.2119 123.247C50.2119 123.713 50.5891 124.091 51.0543 124.091Z" fill="white"/>
<path d="M115.632 136.746C115.943 136.746 116.194 136.494 116.194 136.184C116.194 135.873 115.943 135.621 115.632 135.621C115.322 135.621 115.071 135.873 115.071 136.184C115.071 136.494 115.322 136.746 115.632 136.746Z" fill="white"/>
<path d="M45.9979 117.06C46.308 117.06 46.5595 116.809 46.5595 116.498C46.5595 116.187 46.308 115.936 45.9979 115.936C45.6877 115.936 45.4363 116.187 45.4363 116.498C45.4363 116.809 45.6877 117.06 45.9979 117.06Z" fill="white"/>
<path d="M17.9173 82.7508C18.2275 82.7508 18.4789 82.499 18.4789 82.1884C18.4789 81.8777 18.2275 81.6259 17.9173 81.6259C17.6071 81.6259 17.3557 81.8777 17.3557 82.1884C17.3557 82.499 17.6071 82.7508 17.9173 82.7508Z" fill="white"/>
<path d="M138.66 106.936C138.97 106.936 139.222 106.684 139.222 106.374C139.222 106.063 138.97 105.811 138.66 105.811C138.35 105.811 138.098 106.063 138.098 106.374C138.098 106.684 138.35 106.936 138.66 106.936Z" fill="white"/>
<path d="M133.604 118.467C134.069 118.467 134.446 118.089 134.446 117.623C134.446 117.157 134.069 116.779 133.604 116.779C133.139 116.779 132.761 117.157 132.761 117.623C132.761 118.089 133.139 118.467 133.604 118.467Z" fill="white"/>
<path d="M128.553 110.873C128.863 110.873 129.115 110.622 129.115 110.311C129.115 110 128.863 109.749 128.553 109.749C128.243 109.749 127.991 110 127.991 110.311C127.991 110.622 128.243 110.873 128.553 110.873Z" fill="white"/>
<path d="M119.568 132.809C119.878 132.809 120.13 132.557 120.13 132.247C120.13 131.936 119.878 131.684 119.568 131.684C119.258 131.684 119.006 131.936 119.006 132.247C119.006 132.557 119.258 132.809 119.568 132.809Z" fill="white"/>
<path d="M49.9312 113.123C50.2414 113.123 50.4928 112.872 50.4928 112.561C50.4928 112.25 50.2414 111.998 49.9312 111.998C49.6211 111.998 49.3696 112.25 49.3696 112.561C49.3696 112.872 49.6211 113.123 49.9312 113.123Z" fill="white"/>
<path d="M21.8487 78.8136C22.1589 78.8136 22.4103 78.5618 22.4103 78.2512C22.4103 77.9405 22.1589 77.6887 21.8487 77.6887C21.5385 77.6887 21.2871 77.9405 21.2871 78.2512C21.2871 78.5618 21.5385 78.8136 21.8487 78.8136Z" fill="white"/>
<path d="M114.514 113.404C114.979 113.404 115.356 113.027 115.356 112.561C115.356 112.095 114.979 111.717 114.514 111.717C114.049 111.717 113.672 112.095 113.672 112.561C113.672 113.027 114.049 113.404 114.514 113.404Z" fill="white"/>
<path d="M109.461 136.746C109.771 136.746 110.023 136.494 110.023 136.184C110.023 135.873 109.771 135.621 109.461 135.621C109.151 135.621 108.9 135.873 108.9 136.184C108.9 136.494 109.151 136.746 109.461 136.746Z" fill="white"/>
<path d="M39.8189 117.06C40.1291 117.06 40.3805 116.809 40.3805 116.498C40.3805 116.187 40.1291 115.936 39.8189 115.936C39.5088 115.936 39.2573 116.187 39.2573 116.498C39.2573 116.809 39.5088 117.06 39.8189 117.06Z" fill="white"/>
<path d="M106.651 124.372C106.961 124.372 107.213 124.121 107.213 123.81C107.213 123.499 106.961 123.247 106.651 123.247C106.341 123.247 106.09 123.499 106.09 123.81C106.09 124.121 106.341 124.372 106.651 124.372Z" fill="white"/>
<path d="M102.16 116.779C102.625 116.779 103.003 116.401 103.003 115.936C103.003 115.47 102.625 115.092 102.16 115.092C101.695 115.092 101.318 115.47 101.318 115.936C101.318 116.401 101.695 116.779 102.16 116.779Z" fill="white"/>
<path d="M96.5408 128.31C96.851 128.31 97.1024 128.058 97.1024 127.747C97.1024 127.437 96.851 127.185 96.5408 127.185C96.2307 127.185 95.9792 127.437 95.9792 127.747C95.9792 128.058 96.2307 128.31 96.5408 128.31Z" fill="white"/>
<path d="M76.3248 80.2196C76.79 80.2196 77.1672 79.8419 77.1672 79.3759C77.1672 78.91 76.79 78.5322 76.3248 78.5322C75.8596 78.5322 75.4824 78.91 75.4824 79.3759C75.4824 79.8419 75.8596 80.2196 76.3248 80.2196Z" fill="white"/>
<path d="M148.771 146.027C149.236 146.027 149.613 145.649 149.613 145.183C149.613 144.717 149.236 144.339 148.771 144.339C148.305 144.339 147.928 144.717 147.928 145.183C147.928 145.649 148.305 146.027 148.771 146.027Z" fill="white"/>
<path d="M179.655 92.0313C180.121 92.0313 180.498 91.6536 180.498 91.1876C180.498 90.7217 180.121 90.3439 179.655 90.3439C179.19 90.3439 178.813 90.7217 178.813 91.1876C178.813 91.6536 179.19 92.0313 179.655 92.0313Z" fill="white"/>
<path d="M101.596 158.682C101.906 158.682 102.158 158.43 102.158 158.12C102.158 157.809 101.906 157.557 101.596 157.557C101.286 157.557 101.034 157.809 101.034 158.12C101.034 158.43 101.286 158.682 101.596 158.682Z" fill="white"/>
<path d="M31.9593 138.996C32.2694 138.996 32.5209 138.744 32.5209 138.434C32.5209 138.123 32.2694 137.871 31.9593 137.871C31.6491 137.871 31.3977 138.123 31.3977 138.434C31.3977 138.744 31.6491 138.996 31.9593 138.996Z" fill="white"/>
<path d="M132.485 162.619C132.795 162.619 133.046 162.367 133.046 162.057C133.046 161.746 132.795 161.494 132.485 161.494C132.175 161.494 131.923 161.746 131.923 162.057C131.923 162.367 132.175 162.619 132.485 162.619Z" fill="white"/>
<path d="M127.429 155.026C127.894 155.026 128.271 154.648 128.271 154.182C128.271 153.717 127.894 153.339 127.429 153.339C126.964 153.339 126.587 153.717 126.587 154.182C126.587 154.648 126.964 155.026 127.429 155.026Z" fill="white"/>
<path d="M57.7901 135.34C58.2554 135.34 58.6325 134.963 58.6325 134.497C58.6325 134.031 58.2554 133.653 57.7901 133.653C57.3249 133.653 56.9478 134.031 56.9478 134.497C56.9478 134.963 57.3249 135.34 57.7901 135.34Z" fill="white"/>
<path d="M115.632 166.557C115.943 166.557 116.194 166.305 116.194 165.994C116.194 165.684 115.943 165.432 115.632 165.432C115.322 165.432 115.071 165.684 115.071 165.994C115.071 166.305 115.322 166.557 115.632 166.557Z" fill="white"/>
<path d="M45.9979 146.871C46.308 146.871 46.5595 146.619 46.5595 146.308C46.5595 145.998 46.308 145.746 45.9979 145.746C45.6877 145.746 45.4363 145.998 45.4363 146.308C45.4363 146.619 45.6877 146.871 45.9979 146.871Z" fill="white"/>
<path d="M100.473 151.089C100.939 151.089 101.316 150.711 101.316 150.245C101.316 149.779 100.939 149.402 100.473 149.402C100.008 149.402 99.6311 149.779 99.6311 150.245C99.6311 150.711 100.008 151.089 100.473 151.089Z" fill="white"/>
<path d="M30.8314 131.403C31.2966 131.403 31.6738 131.025 31.6738 130.559C31.6738 130.093 31.2966 129.716 30.8314 129.716C30.3662 129.716 29.989 130.093 29.989 130.559C29.989 131.025 30.3662 131.403 30.8314 131.403Z" fill="white"/>
<path d="M49.3648 154.182C49.675 154.182 49.9264 153.931 49.9264 153.62C49.9264 153.309 49.675 153.058 49.3648 153.058C49.0547 153.058 48.8032 153.309 48.8032 153.62C48.8032 153.931 49.0547 154.182 49.3648 154.182Z" fill="white"/>
<path d="M40.9427 154.182C41.2528 154.182 41.5043 153.931 41.5043 153.62C41.5043 153.309 41.2528 153.058 40.9427 153.058C40.6325 153.058 40.3811 153.309 40.3811 153.62C40.3811 153.931 40.6325 154.182 40.9427 154.182Z" fill="white"/>
<path d="M80.8172 97.6557C81.2825 97.6557 81.6596 97.278 81.6596 96.8121C81.6596 96.3461 81.2825 95.9684 80.8172 95.9684C80.352 95.9684 79.9749 96.3461 79.9749 96.8121C79.9749 97.278 80.352 97.6557 80.8172 97.6557Z" fill="white"/>
<path d="M73.5186 161.213C73.9839 161.213 74.361 160.835 74.361 160.369C74.361 159.903 73.9839 159.526 73.5186 159.526C73.0534 159.526 72.6763 159.903 72.6763 160.369C72.6763 160.835 73.0534 161.213 73.5186 161.213Z" fill="white"/>
<path d="M73.7969 166.838C74.1071 166.838 74.3585 166.586 74.3585 166.275C74.3585 165.965 74.1071 165.713 73.7969 165.713C73.4868 165.713 73.2354 165.965 73.2354 166.275C73.2354 166.586 73.4868 166.838 73.7969 166.838Z" fill="white"/>
<path d="M154.95 66.1584C155.415 66.1584 155.792 65.7806 155.792 65.3147C155.792 64.8487 155.415 64.471 154.95 64.471C154.484 64.471 154.107 64.8487 154.107 65.3147C154.107 65.7806 154.484 66.1584 154.95 66.1584Z" fill="white"/>
<path d="M150.453 112.842C150.918 112.842 151.295 112.464 151.295 111.998C151.295 111.532 150.918 111.155 150.453 111.155C149.988 111.155 149.611 111.532 149.611 111.998C149.611 112.464 149.988 112.842 150.453 112.842Z" fill="white"/>
<path d="M63.4083 99.9056C63.8735 99.9056 64.2507 99.5278 64.2507 99.0619C64.2507 98.5959 63.8735 98.2182 63.4083 98.2182C62.9431 98.2182 62.5659 98.5959 62.5659 99.0619C62.5659 99.5278 62.9431 99.9056 63.4083 99.9056Z" fill="white"/>
<path d="M56.6683 165.15C57.1335 165.15 57.5107 164.773 57.5107 164.307C57.5107 163.841 57.1335 163.463 56.6683 163.463C56.2031 163.463 55.8259 163.841 55.8259 164.307C55.8259 164.773 56.2031 165.15 56.6683 165.15Z" fill="white"/>
<path d="M152.138 89.5002C152.448 89.5002 152.7 89.2484 152.7 88.9378C152.7 88.6271 152.448 88.3753 152.138 88.3753C151.828 88.3753 151.576 88.6271 151.576 88.9378C151.576 89.2484 151.828 89.5002 152.138 89.5002Z" fill="white"/>
<path d="M155.511 96.812C155.821 96.812 156.073 96.5602 156.073 96.2496C156.073 95.939 155.821 95.6871 155.511 95.6871C155.201 95.6871 154.949 95.939 154.949 96.2496C154.949 96.5602 155.201 96.812 155.511 96.812Z" fill="white"/>
<path d="M147.083 96.812C147.393 96.812 147.645 96.5602 147.645 96.2496C147.645 95.939 147.393 95.6871 147.083 95.6871C146.773 95.6871 146.521 95.939 146.521 96.2496C146.521 96.5602 146.773 96.812 147.083 96.812Z" fill="white"/>
<path d="M171.794 119.873C172.105 119.873 172.356 119.621 172.356 119.31C172.356 119 172.105 118.748 171.794 118.748C171.484 118.748 171.233 119 171.233 119.31C171.233 119.621 171.484 119.873 171.794 119.873Z" fill="white"/>
<path d="M175.164 127.185C175.474 127.185 175.725 126.933 175.725 126.622C175.725 126.312 175.474 126.06 175.164 126.06C174.853 126.06 174.602 126.312 174.602 126.622C174.602 126.933 174.853 127.185 175.164 127.185Z" fill="white"/>
<path d="M166.741 127.185C167.051 127.185 167.303 126.933 167.303 126.622C167.303 126.312 167.051 126.06 166.741 126.06C166.431 126.06 166.18 126.312 166.18 126.622C166.18 126.933 166.431 127.185 166.741 127.185Z" fill="white"/>
<path d="M11.7423 82.7508C12.0524 82.7508 12.3038 82.499 12.3038 82.1884C12.3038 81.8777 12.0524 81.6259 11.7423 81.6259C11.4321 81.6259 11.1807 81.8777 11.1807 82.1884C11.1807 82.499 11.4321 82.7508 11.7423 82.7508Z" fill="white"/>
<path fill-rule="evenodd" clip-rule="evenodd" d="M118.749 112.363L118.87 101.512C118.878 100.924 119.361 100.454 119.942 100.46C130.909 100.534 141.977 100.459 152.806 98.9532C153.588 98.7641 158.121 98.3177 157.989 97.5923C158.01 97.2828 157.903 96.9847 157.81 96.6992C156.392 92.4488 154.323 88.3014 152.154 84.2796L163.555 78.0765C167.076 85.0459 177.318 102.875 167.493 108.042C159.516 112.264 149.895 112.341 141.135 113.068C138.383 112.879 118.003 114.795 118.749 112.363Z" fill="#9D8AB9"/>
<path fill-rule="evenodd" clip-rule="evenodd" d="M122.81 114.646C132.223 114.67 141.681 114.483 151.099 113.454L149.402 98.4004C138.963 99.5347 128.174 99.5695 117.625 99.4519V104.573C118.007 104.636 118.463 104.733 118.833 104.808C118.437 105.745 118.04 106.68 117.625 107.62C117.625 110.811 117.625 117.314 117.625 120.482L119.417 120.499C120.772 120.514 121.286 116.227 122.81 114.646Z" fill="#0F2D88"/>
<path fill-rule="evenodd" clip-rule="evenodd" d="M150.103 113.562L148.522 98.4959C151.327 98.1979 154.101 97.8264 156.82 97.2156C156.845 97.1996 156.905 97.1934 156.934 97.1891C156.931 97.1899 156.928 97.1909 156.93 97.1903C154.649 90.4297 150.992 83.9513 147.254 77.8261L160.064 69.7393C165.075 78.2924 175.486 94.9527 172.106 104.851C168.488 111.888 157.106 112.578 150.103 113.562Z" fill="#B5BDE6"/>
<path d="M159.321 104.233C159.401 104.206 159.487 104.244 159.522 104.318L159.53 104.336L161.967 111.527C161.996 111.613 161.95 111.706 161.864 111.735C161.784 111.762 161.698 111.724 161.663 111.65L161.655 111.632L159.218 104.442C159.189 104.356 159.235 104.262 159.321 104.233Z" fill="#1F41A4"/>
<path d="M161.149 103.691C161.219 103.645 161.312 103.661 161.365 103.724L161.376 103.739L165.612 110.275C165.661 110.351 165.64 110.453 165.563 110.502C165.493 110.548 165.4 110.533 165.348 110.469L165.336 110.454L161.1 103.918C161.051 103.842 161.073 103.74 161.149 103.691Z" fill="#1F41A4"/>
<path d="M157.079 104.735C157.162 104.719 157.242 104.767 157.267 104.845L157.272 104.864L158.751 112.293C158.769 112.382 158.711 112.468 158.622 112.486C158.54 112.502 158.459 112.454 158.434 112.375L158.429 112.357L156.95 104.928C156.932 104.839 156.99 104.753 157.079 104.735Z" fill="#1F41A4"/>
<path d="M158.977 70.2306C159.055 70.1836 159.156 70.2083 159.203 70.2859L159.661 71.0437C162.329 75.4636 164.202 78.7715 165.886 82.131L165.957 82.273C168.182 86.7292 169.858 90.9071 171.024 95.0824L171.094 95.3785C171.813 98.4609 172.024 100.717 171.638 102.716C171.151 105.245 169.682 107.169 167.006 108.51C166.925 108.551 166.827 108.518 166.786 108.437C166.745 108.356 166.778 108.257 166.859 108.216C169.444 106.921 170.848 105.082 171.316 102.654C171.702 100.648 171.47 98.3521 170.706 95.1649C169.571 91.1003 167.946 87.0248 165.795 82.6858L165.663 82.4198C163.871 78.8316 161.87 75.3185 158.922 70.4563C158.875 70.3787 158.9 70.2777 158.977 70.2306Z" fill="#0F2D88"/>
<path d="M156.689 111.523L156.707 111.613C156.803 112.116 156.852 112.448 156.858 112.67C156.86 112.761 156.789 112.836 156.698 112.839C156.607 112.841 156.532 112.769 156.529 112.679L156.527 112.621C156.516 112.431 156.473 112.146 156.396 111.74L156.282 111.16C156.19 110.703 156.076 110.146 156.08 110.168L156.017 109.849C155.977 109.644 155.941 109.456 155.908 109.274L155.874 109.088C155.555 107.285 155.516 106.174 155.879 105.666L155.888 105.654L155.903 105.625C156.25 104.978 156.742 104.76 157.838 104.568L158.165 104.511C158.461 104.458 158.629 104.42 158.806 104.362L158.835 104.352L158.87 104.344C159.18 104.31 159.44 104.24 159.885 104.082L160.407 103.893C160.444 103.88 160.478 103.869 160.517 103.856C161.311 103.589 161.891 103.556 162.533 103.844L162.581 103.866L162.599 103.872C163.138 104.047 163.913 104.733 164.98 105.896L165.108 106.036L165.274 106.22C165.33 106.283 165.387 106.346 165.445 106.412L165.622 106.613C165.812 106.829 166.005 107.052 166.241 107.326L166.93 108.128C167.39 108.662 167.664 108.966 167.854 109.147C167.92 109.209 167.922 109.313 167.86 109.379C167.797 109.445 167.693 109.447 167.627 109.385L167.562 109.322C167.42 109.18 167.239 108.982 166.988 108.696L166.573 108.218L165.868 107.396C165.687 107.186 165.53 107.006 165.375 106.83L165.199 106.63C165.084 106.5 164.973 106.376 164.864 106.257L164.683 106.058C163.689 104.982 162.955 104.335 162.502 104.186L162.475 104.177L162.451 104.168C161.893 103.903 161.398 103.915 160.691 104.144L160.497 104.21L160.055 104.37C159.594 104.536 159.313 104.617 158.998 104.66L158.924 104.669L158.837 104.696C158.649 104.754 158.458 104.794 158.126 104.852L157.83 104.903C156.877 105.075 156.471 105.263 156.192 105.781L156.174 105.816L156.158 105.841C155.848 106.243 155.898 107.389 156.231 109.215L156.265 109.398C156.288 109.522 156.313 109.65 156.339 109.786L156.689 111.523Z" fill="#1F41A4"/>
<path fill-rule="evenodd" clip-rule="evenodd" d="M146.542 86.1438H144.899C135.916 86.1438 128.634 78.8614 128.634 69.8783H162.807C162.807 78.8614 155.525 86.1438 146.542 86.1438Z" fill="#D1D6F0"/>
<path fill-rule="evenodd" clip-rule="evenodd" d="M137.131 156.222L128.751 149.328C128.297 148.954 128.192 148.333 128.518 147.925C133.812 141.222 138.523 133.759 141.634 125.831C143.478 120.984 144.788 115.904 144.282 110.827C143.001 100.772 137.033 92.4082 132.54 83.4931L144.224 77.8414C149.672 88.1064 156.327 98.547 157.284 110.487C158.087 123.795 151.954 136.323 145.021 147.199C143.869 148.527 138.533 158.033 137.131 156.222Z" fill="#9D8AB9"/>
<path fill-rule="evenodd" clip-rule="evenodd" d="M141.495 154.299C147.6 146.089 152.846 137.267 156.076 127.471L141.664 122.804C138.536 132.16 132.923 141.007 126.626 148.672C126.748 148.778 130.26 151.843 130.484 152.04C130.708 151.901 131.079 151.588 131.297 151.422L132.78 154.043C135.184 156.141 140.084 160.418 142.47 162.501C142.67 162.268 143.071 161.796 143.264 161.561C145.662 159.778 142.017 157.192 141.495 154.299Z" fill="#1F41A4"/>
<path fill-rule="evenodd" clip-rule="evenodd" d="M155.7 128.597L141.377 123.661C145.328 113.222 142.879 105.015 137.923 95.5164C133.753 87.523 127.886 79.4576 128.002 69.805L143.151 69.907C143.567 76.7224 148.432 82.3463 151.348 88.4998C158.328 101.56 160.991 114.387 155.7 128.597Z" fill="#D1D6F0"/>
<path fill-rule="evenodd" clip-rule="evenodd" d="M153.583 104.82C152.62 106.124 151.624 107.413 150.516 108.593C149.124 107.9 147.663 107.191 146.225 106.619C144.874 100.986 142.367 95.8072 139.533 90.7421C135.97 84.2454 131.658 77.6802 131.69 69.8298L139.265 69.8809C139.368 76.2347 143.269 81.6084 146.156 87.0675C149.298 92.6643 152.083 98.5493 153.583 104.82Z" fill="#1F41A4"/>
<path d="M150.941 114.685L158.502 115.136C158.593 115.141 158.662 115.219 158.656 115.309C158.651 115.393 158.584 115.459 158.502 115.464L158.483 115.464L150.921 115.013C150.831 115.008 150.762 114.93 150.767 114.839C150.772 114.755 150.84 114.69 150.922 114.685L150.941 114.685Z" fill="#1F41A4"/>
<path d="M158.532 111.621C158.623 111.618 158.699 111.689 158.702 111.779C158.705 111.864 158.644 111.935 158.563 111.948L158.544 111.949L150.974 112.213C150.884 112.216 150.807 112.145 150.804 112.054C150.801 111.97 150.862 111.899 150.944 111.886L150.963 111.884L158.532 111.621Z" fill="#1F41A4"/>
<path d="M150.667 117.508L158.165 118.58C158.255 118.592 158.318 118.676 158.305 118.765C158.293 118.849 158.22 118.909 158.138 118.906L158.119 118.905L150.621 117.833C150.531 117.82 150.468 117.737 150.481 117.647C150.493 117.564 150.566 117.504 150.648 117.506L150.667 117.508Z" fill="#1F41A4"/>
<path d="M141.964 69.7348C142.055 69.7331 142.13 69.8051 142.132 69.8959C142.152 70.8977 142.298 71.9328 142.565 73.012L142.608 73.1819C143.275 75.7835 144.429 78.2058 146.748 82.2709L148.301 84.981C149.192 86.5436 149.392 86.9284 149.884 87.9133C153.951 95.4432 156.531 102.591 157.36 109.52C157.371 109.61 157.306 109.692 157.216 109.703C157.126 109.713 157.045 109.649 157.034 109.559C156.211 102.676 153.644 95.5658 149.593 88.0649L149.302 87.4866C148.88 86.6594 148.539 86.0534 147.215 83.7452L146.694 82.8374C144.153 78.4106 142.937 75.8821 142.246 73.0909C141.974 71.9889 141.824 70.9298 141.803 69.9024C141.801 69.8117 141.873 69.7367 141.964 69.7348Z" fill="#1F41A4"/>
<path d="M158.333 109.257C158.421 109.234 158.511 109.287 158.533 109.375C158.555 109.463 158.502 109.553 158.414 109.575L158.363 109.587C158.115 109.643 157.738 109.685 157.089 109.734L156.021 109.81C155.639 109.837 155.328 109.862 155.029 109.889L154.845 109.907C153.06 110.08 151.974 110.346 151.668 110.761L151.653 110.782L151.639 110.801C151.146 111.349 151.061 111.903 151.125 113.235L151.137 113.485C151.167 114.103 151.163 114.44 151.107 114.796L151.096 114.859L151.097 114.88C151.116 115.259 151.082 115.587 150.973 116.253L150.93 116.51C150.72 117.771 150.741 118.386 151.153 118.98L151.178 119.016L151.19 119.034C151.443 119.504 152.511 119.871 154.333 120.201L154.514 120.234C154.916 120.304 156.745 120.59 157.127 120.664C157.436 120.723 157.661 120.778 157.82 120.836C157.905 120.867 157.95 120.961 157.919 121.046C157.888 121.131 157.793 121.175 157.708 121.145L157.649 121.124C157.512 121.08 157.319 121.035 157.065 120.986L156.974 120.969C156.482 120.882 154.986 120.647 154.519 120.568L154.458 120.557C152.429 120.202 151.271 119.822 150.916 119.218L150.906 119.2L150.883 119.168C150.415 118.495 150.384 117.826 150.593 116.534L150.659 116.136C150.759 115.514 150.788 115.211 150.767 114.859C150.766 114.846 150.767 114.833 150.769 114.82L150.782 114.744C150.834 114.415 150.837 114.094 150.809 113.497L150.793 113.17C150.733 111.835 150.83 111.227 151.363 110.616L151.387 110.589L151.398 110.573C151.782 110.042 152.902 109.764 154.808 109.58L155.165 109.547C155.333 109.533 155.507 109.519 155.698 109.504L157.061 109.406C157.737 109.355 158.112 109.313 158.333 109.257Z" fill="#1F41A4"/>
<path fill-rule="evenodd" clip-rule="evenodd" d="M213.423 45.4944C214.101 45.9488 214.2 46.989 213.629 47.7985C211.146 51.3107 208.472 54.6651 205.481 57.8568C204.785 58.5866 203.748 58.7105 203.164 58.1322C202.589 57.5599 202.659 56.5298 203.324 55.833C206.204 52.7614 208.804 49.5021 211.211 46.0962C211.761 45.3161 212.744 45.0399 213.423 45.4944Z" fill="#0F2D88"/>
<path fill-rule="evenodd" clip-rule="evenodd" d="M212.401 42.2555C213.094 42.6881 213.225 43.7233 212.686 44.5277C211.642 46.0909 210.554 47.6019 209.427 49.0904C208.842 49.8549 207.843 50.0583 207.202 49.5492C206.564 49.0426 206.509 48.0383 207.072 47.3014C208.164 45.8594 209.221 44.3914 210.227 42.8846C210.743 42.1145 211.707 41.8259 212.401 42.2555Z" fill="#0F2D88"/>
<path fill-rule="evenodd" clip-rule="evenodd" d="M210.369 40.5455C211.072 40.9638 211.228 41.9719 210.709 42.7538C209.704 44.2713 208.653 45.7506 207.559 47.2002C206.999 47.9501 206.005 48.1337 205.366 47.6305C204.722 47.1231 204.658 46.1429 205.197 45.4207C206.256 44.0174 207.276 42.5815 208.242 41.123C208.738 40.3751 209.673 40.1201 210.369 40.5455Z" fill="#0F2D88"/>
<path fill-rule="evenodd" clip-rule="evenodd" d="M203.417 43.4158C204.071 43.8992 204.175 44.8785 203.626 45.5852C202.564 46.9582 201.465 48.2987 200.327 49.5975C200.032 49.9299 199.404 50.0901 198.845 50.1464C198.288 50.2067 197.81 50.1807 197.81 50.1807C198.517 49.4056 197.199 48.6779 198.443 47.2607C199.418 46.1318 200.365 44.9669 201.285 43.7772C201.813 43.0984 202.758 42.9285 203.417 43.4158Z" fill="#0F2D88"/>
<path fill-rule="evenodd" clip-rule="evenodd" d="M207.38 40.3402C208.064 40.7852 208.218 41.7626 207.701 42.5108C205.975 45.012 204.125 47.4376 202.153 49.7456C201.861 50.0923 201.466 50.2932 201.069 50.3361C200.673 50.3808 200.277 50.2706 199.972 49.9991C199.667 49.7277 199.509 49.3477 199.498 48.9562C199.488 48.566 199.622 48.1608 199.903 47.8265C201.803 45.603 203.599 43.2493 205.265 40.8341C205.761 40.1166 206.695 39.894 207.38 40.3402Z" fill="#0F2D88"/>
<path fill-rule="evenodd" clip-rule="evenodd" d="M208.1 46.1991C209.309 47.0847 209.987 48.4538 210.059 49.9788C210.131 51.4984 209.587 53.1685 208.412 54.5592C205.832 57.4939 203.044 60.3042 199.904 62.8865C198.331 64.1739 196.685 65.4137 194.889 66.5392C193.097 67.6653 191.179 68.6954 189.09 69.5368C187.005 70.3773 184.733 71.0197 182.319 71.3074C179.899 71.5867 177.472 71.4586 175.193 71.0276C172.909 70.5983 170.769 69.8785 168.782 68.9972C166.792 68.114 164.949 67.0684 163.221 65.929C160 63.7865 157.168 61.3322 154.579 58.7112C153.411 57.5797 152.63 56.2872 152.439 55.0466C152.246 53.8036 152.645 52.6227 153.779 51.6472C154.915 50.67 156.33 50.2428 157.683 50.2711C159.04 50.3039 160.337 50.7934 161.33 51.7558C163.584 53.9436 166.002 55.9288 168.538 57.5385C171.249 59.2578 174.117 60.538 176.91 61.0125C178.305 61.2514 179.673 61.2912 180.996 61.118C182.322 60.9342 183.69 60.5428 185.057 59.963C186.424 59.3858 187.787 58.634 189.12 57.7629C190.455 56.896 191.75 55.8843 193.013 54.8108C194.275 53.733 195.5 52.5763 196.687 51.363C197.874 50.1472 199.02 48.8723 200.131 47.5589C201.163 46.3375 202.535 45.5779 203.969 45.3201C204.683 45.1908 205.413 45.1905 206.118 45.3326C206.82 45.4729 207.497 45.756 208.1 46.1991Z" fill="#0F2D88"/>
<path fill-rule="evenodd" clip-rule="evenodd" d="M196.87 51.1679L204.663 58.7084C203.207 60.1333 201.681 61.5149 200.064 62.8336C198.533 64.2191 196.91 65.5563 195.127 66.79C193.347 68.0237 191.421 69.168 189.29 70.1241C189.213 70.1586 188.837 70.3196 188.303 70.5335C188.026 70.6295 187.709 70.7391 187.373 70.8554C187.204 70.9124 187.03 70.9712 186.854 71.0309C186.679 71.0903 186.501 71.1516 186.312 71.1988C185.939 71.2982 185.565 71.3976 185.213 71.4915C185.036 71.5372 184.865 71.5814 184.701 71.6236C184.534 71.6613 184.369 71.6894 184.219 71.7193C183.613 71.8328 183.178 71.9143 183.087 71.9312C181.731 72.1593 180.334 72.2488 178.971 72.2302C177.604 72.2115 176.26 72.0745 174.958 71.8454C172.351 71.3869 169.925 70.5708 167.688 69.568C165.908 68.7473 164.24 67.8105 162.672 66.7943C159.496 64.7323 156.699 62.3791 154.127 59.8729C152.527 58.35 151.156 56.3026 150.635 54.3179C150.108 52.3356 150.421 50.423 152.019 49.2236C153.633 48.0465 155.507 47.5532 157.53 47.9139C159.562 48.2704 161.723 49.4921 164.11 51.6539C165.794 53.3234 167.571 54.8548 169.414 56.1568C171.306 57.4775 173.269 58.5528 175.215 59.2461C177.165 59.9424 179.073 60.2442 180.911 60.0978C181.026 60.0957 181.144 60.0714 181.261 60.0566L181.614 60.0094L181.969 59.9666C182.089 59.9495 182.21 59.915 182.331 59.891L183.061 59.7379L183.804 59.5207C183.928 59.4825 184.053 59.4563 184.178 59.4098L184.554 59.2714C184.805 59.1763 185.058 59.0979 185.311 58.9923C185.816 58.766 186.327 58.5718 186.834 58.3016C187.855 57.8174 188.865 57.2006 189.874 56.5638C190.37 56.2203 190.878 55.9027 191.368 55.5307L192.111 54.9887L192.842 54.4169C194.213 53.418 195.558 52.3262 196.87 51.1679Z" fill="#B5BDE6"/>
<path fill-rule="evenodd" clip-rule="evenodd" d="M184.712 59.2126L185.126 60.1987C186.601 59.7724 188.103 59.1479 189.587 58.387C191.073 57.6293 192.535 56.7186 193.965 55.7254L192.842 54.4169C190.225 56.4969 187.436 58.2165 184.712 59.2126Z" fill="#0F2D88"/>
<path fill-rule="evenodd" clip-rule="evenodd" d="M188.949 69.311L189.29 70.1241C191.421 69.1677 193.346 68.0231 195.126 66.789C196.909 65.5551 198.531 64.2178 200.062 62.8321L198.726 61.274C197.377 62.7608 195.932 64.2082 194.318 65.564C192.708 66.9201 190.943 68.2002 188.949 69.311Z" fill="#0F2D88"/>
<path fill-rule="evenodd" clip-rule="evenodd" d="M182.531 68.4284L183.088 71.9312C181.731 72.1592 180.334 72.2486 178.971 72.2302C177.604 72.2115 176.26 72.0745 174.958 71.8453C172.351 71.3867 169.925 70.5708 167.688 69.5679L169.141 66.3324C169.381 65.8006 169.859 65.4418 170.424 65.2655C170.991 65.0877 171.642 65.0992 172.284 65.3182C173.467 65.7342 174.689 66.0543 175.932 66.2761C177.177 66.4956 178.447 66.5963 179.718 66.5767C180.405 66.5556 181.04 66.7483 181.55 67.0659C182.059 67.3953 182.439 67.8537 182.531 68.4284Z" fill="#0F2D88"/>
<path fill-rule="evenodd" clip-rule="evenodd" d="M198.726 61.2741C200.734 60.5228 202.715 59.657 204.663 58.7083C203.206 60.1329 201.68 61.5137 200.063 62.832L198.726 61.2741Z" fill="#0F2D88"/>
<path fill-rule="evenodd" clip-rule="evenodd" d="M193.965 55.7254C195.008 54.2504 195.971 52.726 196.87 51.168C195.558 52.3263 194.214 53.418 192.843 54.417L193.965 55.7254Z" fill="#0F2D88"/>
<path fill-rule="evenodd" clip-rule="evenodd" d="M183.042 60.6633L183.811 63.3496C183.459 63.4393 183.109 63.5438 182.757 63.6243L181.694 63.8211C180.986 63.9333 180.272 63.9877 179.553 64.0004C178.115 64.0202 176.665 63.8374 175.237 63.5035C172.378 62.8178 169.621 61.5144 167.052 59.8837C165.414 58.8472 163.845 57.6746 162.343 56.4131C160.84 55.152 159.403 53.7993 158.033 52.3807C157.509 51.8392 157.557 50.9665 158.126 50.4455C158.695 49.924 159.547 49.9273 160.042 50.4396C162.659 53.1416 165.516 55.6015 168.547 57.5238C170.925 59.0345 173.42 60.1961 175.883 60.7851C177.113 61.0718 178.331 61.2231 179.516 61.2065C180.11 61.1953 180.692 61.1518 181.274 61.0589C181.566 61.0014 181.859 60.9472 182.153 60.8961C182.448 60.8284 182.745 60.7374 183.042 60.6633Z" fill="#0F2D88"/>
<path fill-rule="evenodd" clip-rule="evenodd" d="M162.709 70.0426H127.909V54.0029C127.909 50.147 131.034 47.0211 134.89 47.0211H155.727C159.583 47.0211 162.709 50.147 162.709 54.0029V70.0426Z" fill="#D1D6F0"/>
<mask id="mask0_447:1235" style="mask-type:alpha" maskUnits="userSpaceOnUse" x="96" y="25" width="119" height="138">
<path fill-rule="evenodd" clip-rule="evenodd" d="M96.9453 162.665H214.001V25H96.9453V162.665Z" fill="#E8EBFF"/>
</mask>
<g mask="url(#mask0_447:1235)">
<path fill-rule="evenodd" clip-rule="evenodd" d="M131.603 70.0606H139.18V55.0375H131.603V70.0606Z" fill="#1F41A4"/>
<path fill-rule="evenodd" clip-rule="evenodd" d="M155.539 70.2115C155.53 70.2115 155.522 70.2109 155.513 70.2094C155.423 70.1951 155.362 70.111 155.377 70.0213C155.397 69.8958 157.39 57.4108 158.005 53.0993C158.248 51.3964 158.578 49.0807 157.652 48.0131C157.313 47.6228 156.836 47.4328 156.192 47.4328C156.101 47.4328 156.028 47.3594 156.028 47.2685C156.028 47.1779 156.101 47.1042 156.192 47.1042C156.926 47.1042 157.501 47.3377 157.9 47.7979C158.924 48.9787 158.582 51.3801 158.332 53.1336C157.715 57.4599 155.721 69.9475 155.701 70.0732C155.688 70.154 155.618 70.2115 155.539 70.2115Z" fill="#1F41A4"/>
<path fill-rule="evenodd" clip-rule="evenodd" d="M149.573 70.2115C149.503 70.2115 149.438 70.166 149.416 70.0954C149.379 69.9723 145.627 57.743 143.887 53.1811C143.123 51.1767 140.535 47.4328 137.74 47.4328C137.649 47.4328 137.576 47.3594 137.576 47.2685C137.576 47.1779 137.649 47.1042 137.74 47.1042C140.695 47.1042 143.402 50.9858 144.194 53.064C145.939 57.636 149.693 69.8761 149.73 69.9991C149.757 70.0859 149.708 70.1777 149.622 70.2043C149.605 70.2092 149.589 70.2115 149.573 70.2115Z" fill="#1F41A4"/>
<path fill-rule="evenodd" clip-rule="evenodd" d="M155.82 57.163H148.371C148.274 57.163 148.185 57.1055 148.146 57.0163C148.135 56.9918 147.041 54.5325 145.554 52.1076C143.623 48.9593 141.923 47.2953 140.639 47.2953C140.503 47.2953 140.393 47.1849 140.393 47.0489C140.393 46.9127 140.503 46.8024 140.639 46.8024C143.932 46.8024 147.948 55.385 148.531 56.6701H155.62C155.728 56.1508 156.021 54.6508 156.178 53.0025C156.429 50.359 156.226 48.5418 155.589 47.7475C155.345 47.4432 155.041 47.2953 154.66 47.2953C154.524 47.2953 154.413 47.1849 154.413 47.0489C154.413 46.9127 154.524 46.8024 154.66 46.8024C155.193 46.8024 155.635 47.0167 155.974 47.4394C157.686 49.5759 156.128 56.6693 156.06 56.9703C156.035 57.0829 155.935 57.163 155.82 57.163Z" fill="#1F41A4"/>
<path fill-rule="evenodd" clip-rule="evenodd" d="M145.053 70.2891C144.943 70.2891 144.842 70.2145 144.814 70.1026L142.949 62.6747L139.005 58.7056C138.909 58.609 138.91 58.4529 139.007 58.357C139.103 58.261 139.259 58.2617 139.355 58.3581L143.346 62.3754C143.378 62.4067 143.4 62.446 143.411 62.4891L145.292 69.9825C145.325 70.1146 145.245 70.2485 145.113 70.2815C145.093 70.2866 145.073 70.2891 145.053 70.2891Z" fill="#B5BDE6"/>
<path fill-rule="evenodd" clip-rule="evenodd" d="M158.122 70.2891C158.102 70.2891 158.082 70.2866 158.062 70.2815C157.93 70.2485 157.85 70.1146 157.883 69.9825L159.765 62.4891C159.772 62.4595 159.785 62.4316 159.802 62.4067L162.644 58.3895C162.722 58.2783 162.876 58.2522 162.987 58.3307C163.098 58.4092 163.124 58.563 163.046 58.6741L160.232 62.6537L158.361 70.1026C158.333 70.2145 158.232 70.2891 158.122 70.2891Z" fill="#B5BDE6"/>
<path fill-rule="evenodd" clip-rule="evenodd" d="M104.023 96.7118C104.854 97.9386 105.731 98.6136 106.54 98.963C107.346 99.3132 108.087 99.3396 108.665 99.265C109.243 99.1886 109.548 98.6502 109.569 98.0548C109.586 97.46 109.321 96.8038 108.72 96.4749C108.125 96.144 107.356 96.0017 106.543 95.5341C106.136 95.2999 105.708 94.9867 105.293 94.5227C105.084 94.2911 104.874 94.0229 104.668 93.7096C104.466 93.3952 104.266 93.0355 104.071 92.623C103.311 90.9657 102.887 91.3385 102.843 92.4751C102.805 93.6064 103.192 95.4849 104.023 96.7118Z" fill="#0F2D88"/>
<path fill-rule="evenodd" clip-rule="evenodd" d="M108.065 82.8002C108.033 82.3073 107.486 82.0604 106.648 81.9725C105.81 81.8857 104.681 81.9628 103.484 82.1445C102.287 82.3257 101.023 82.6139 99.9135 82.9336C98.8053 83.2517 97.8469 83.6031 97.2737 83.8786C97.6228 87.9085 98.5135 91.1017 99.5157 93.6394C100.53 96.1757 101.669 98.062 102.73 99.4692C104.866 102.28 106.66 103.192 107.097 103.462C107.319 103.596 107.561 103.628 107.789 103.585C108.016 103.541 108.228 103.419 108.397 103.255C108.735 102.925 108.902 102.412 108.64 101.892C108.516 101.646 108.063 101.032 107.505 100.184C106.949 99.3361 106.291 98.2534 105.747 97.1C105.199 95.9486 104.78 94.7234 104.659 93.6304C104.605 93.0824 104.617 92.5697 104.737 92.1144C104.857 91.659 105.072 91.2637 105.406 90.9518C106.218 90.2 106.929 90.232 107.546 90.5835C108.163 90.9369 108.681 91.6154 109.124 92.2056C109.645 92.9126 110.439 92.9387 111.009 92.6244C111.578 92.3088 111.954 91.6591 111.654 90.9704C111.16 89.8083 110.292 88.3814 109.54 86.9205C108.784 85.4635 108.167 83.9734 108.065 82.8002Z" fill="#1F41A4"/>
<path fill-rule="evenodd" clip-rule="evenodd" d="M108.287 84.2636C107.515 86.2296 106.843 88.2953 106.257 90.419C106.257 90.419 105.431 90.6899 104.958 91.5407C104.723 91.9604 104.646 92.5034 104.636 92.9395C104.623 93.3764 104.668 93.7077 104.668 93.7077C103.16 94.3339 101.658 94.9738 100.159 95.6282C100.159 95.6282 100.111 95.5252 100.026 95.3395C99.9425 95.1531 99.8188 94.884 99.6796 94.5458C99.5396 94.2082 99.372 93.806 99.198 93.3542C99.0283 92.9005 98.8427 92.4013 98.6636 91.8707C98.3094 90.8082 97.9673 89.6256 97.7378 88.4819C97.5041 87.3402 97.386 86.237 97.4281 85.3657C97.5381 83.5979 100.264 83.4296 102.952 83.6097C104.296 83.6994 105.631 83.8708 106.628 84.0102C107.626 84.1504 108.287 84.2636 108.287 84.2636Z" fill="#D1D6F0"/>
<path fill-rule="evenodd" clip-rule="evenodd" d="M108.287 84.2636L97.5038 85.4086C97.2172 83.2987 97.028 81.1426 96.9709 78.9305C96.9728 78.7291 96.9703 78.5298 96.976 78.3271L96.9987 77.717C97.0153 77.3099 97.0273 76.9049 97.0496 76.4965L97.1448 75.2614C97.1627 75.0551 97.1735 74.8513 97.198 74.643L97.2726 74.0177C97.4479 72.3594 97.7785 70.6568 98.2127 68.9496L98.5812 67.6628C98.6384 67.4494 98.7163 67.2334 98.7927 67.0178L99.022 66.3721L99.2548 65.7277C99.3319 65.5133 99.4351 65.2976 99.525 65.0832C99.7124 64.6539 99.8979 64.2256 100.095 63.7994C100.547 62.9457 100.958 62.1198 101.536 61.2391C102.1 60.3897 102.711 59.5838 103.365 58.8351C103.43 58.7651 104.183 57.8574 105.397 56.7617C106.607 55.6619 108.286 54.4275 109.994 53.4481C111.701 52.4579 113.422 51.688 114.706 51.1825C115.027 51.0538 115.322 50.9401 115.582 50.846C115.843 50.7497 116.071 50.6641 116.257 50.601C116.631 50.4716 116.844 50.3978 116.844 50.3978C118.291 49.9289 119.732 49.5408 121.167 49.2081C124.883 48.369 128.552 47.9051 132.193 47.6642C134.345 47.6116 136.871 47.701 138.837 48.5485C140.801 49.3892 142.2 50.9806 142.037 53.758C141.897 56.1643 141.099 57.688 139.492 58.6511C137.888 59.621 135.468 60.0163 132.145 60.3278C129.401 60.451 126.686 60.7295 124.084 61.2155C121.253 61.7715 118.547 62.5841 116.248 63.7264C115.103 64.2982 114.062 64.9475 113.188 65.6753C112.749 66.0386 112.343 66.4168 111.985 66.8165C111.81 67.0185 111.634 67.2192 111.478 67.43C111.393 67.5324 111.319 67.6397 111.246 67.7473L111.132 67.9073C111.094 67.9589 111.059 68.0304 111.022 68.0907L110.572 68.8453C110.441 69.1183 110.307 69.3909 110.17 69.6632C110.096 69.7949 110.045 69.9471 109.984 70.0918L109.806 70.5302C109.677 70.815 109.584 71.1305 109.481 71.4395C109.073 72.6793 108.753 74.0134 108.559 75.4188C108.358 76.8206 108.228 78.2696 108.195 79.753C108.162 81.2361 108.192 82.7432 108.287 84.2636Z" fill="#D1D6F0"/>
<path fill-rule="evenodd" clip-rule="evenodd" d="M129.719 59.7677L128.286 48.8536C130.626 48.6011 132.952 48.4606 135.274 48.4087C136.868 48.3354 138.329 48.9219 139.356 49.9061C140.387 50.8901 140.975 52.2647 140.934 53.7608C140.892 55.2577 140.269 56.5948 139.341 57.5737C138.408 58.5524 137.162 59.1769 135.768 59.2411C133.735 59.3343 131.71 59.5057 129.719 59.7677Z" fill="#1F41A4"/>
<path fill-rule="evenodd" clip-rule="evenodd" d="M106.918 61.9073L103.365 58.8351C104.338 57.7081 105.4 56.715 106.498 55.8354C107.597 54.9562 108.733 54.1923 109.882 53.5191C112.181 52.1749 114.521 51.1856 116.844 50.3976L118.348 54.8472C118.534 55.3987 118.429 55.9923 118.129 56.5011C117.98 56.7601 117.78 56.9973 117.54 57.2019C117.303 57.4131 117.019 57.5804 116.705 57.7161C115.542 58.2039 114.403 58.751 113.32 59.3903C112.774 59.7026 112.251 60.0508 111.734 60.4058C111.225 60.773 110.722 61.148 110.251 61.5613C109.989 61.7771 109.721 61.9596 109.428 62.082C109.143 62.2126 108.845 62.2959 108.545 62.3291C107.96 62.4065 107.357 62.2834 106.918 61.9073Z" fill="#1F41A4"/>
<path fill-rule="evenodd" clip-rule="evenodd" d="M103.283 66.2998L104.093 66.6473C102.986 68.5048 102.158 70.5242 101.532 72.5857C100.907 74.6501 100.479 76.7619 100.185 78.8799L98.1108 78.7593C98.6085 76.5709 99.2447 74.3977 100.083 72.2903C100.92 70.1861 101.965 68.1422 103.283 66.2998Z" fill="#1F41A4"/>
<path fill-rule="evenodd" clip-rule="evenodd" d="M99.2854 85.2195L97.428 85.3659C97.1525 83.2072 96.9782 81.0015 96.9453 78.7381L100.186 78.88C99.7656 80.9747 99.474 83.0954 99.2854 85.2195Z" fill="#1F41A4"/>
<path fill-rule="evenodd" clip-rule="evenodd" d="M151.214 56.6268C151.139 56.6268 151.071 56.5752 151.054 56.4992C150.172 52.642 148.262 50.3135 146.814 49.0392C145.245 47.6575 143.865 47.1815 143.851 47.1768C143.765 47.1478 143.719 47.0547 143.748 46.9688C143.776 46.8828 143.869 46.8365 143.956 46.8654C144.012 46.8845 149.645 48.8583 151.374 56.4259C151.394 56.5143 151.339 56.6025 151.251 56.6227C151.238 56.6255 151.226 56.6268 151.214 56.6268Z" fill="#B5BDE6"/>
<path fill-rule="evenodd" clip-rule="evenodd" d="M154.09 56.6268C154.015 56.6268 153.947 56.5752 153.93 56.4992C152.207 48.961 153.164 47.0233 153.205 46.9444C153.248 46.8643 153.347 46.8334 153.428 46.8758C153.507 46.918 153.538 47.0166 153.497 47.0967C153.483 47.1242 152.57 49.0782 154.25 56.4259C154.27 56.5143 154.215 56.6025 154.126 56.6227C154.114 56.6255 154.102 56.6268 154.09 56.6268Z" fill="#B5BDE6"/>
</g>
<path fill-rule="evenodd" clip-rule="evenodd" d="M151.634 44.8863H150.815C146.998 44.8863 143.903 41.7921 143.903 37.9751V34.7332C143.903 31.8112 146.272 29.4423 149.194 29.4423H150.113C153.035 29.4423 155.404 31.8112 155.404 34.7332V41.116C155.404 43.1983 153.716 44.8863 151.634 44.8863Z" fill="#9D8AB9"/>
<path fill-rule="evenodd" clip-rule="evenodd" d="M145.875 39.0537C145.875 40.188 144.955 41.1074 143.821 41.1074C142.687 41.1074 141.767 40.188 141.767 39.0537C141.767 37.9194 142.687 37 143.821 37C144.955 37 145.875 37.9194 145.875 39.0537Z" fill="#9D8AB9"/>
<path d="M143.422 38.4242C143.422 38.4242 144.332 38.4242 144.332 39.3347" stroke="#00196E" stroke-width="3"/>
<path fill-rule="evenodd" clip-rule="evenodd" d="M143.739 37H143.487C142.525 36.0648 142.155 34.1589 142.044 32.3091C141.892 29.7742 146.293 27.635 148.832 27.635H151.787L154.583 31.9067H148.125C148.125 34.6998 145.711 37 143.739 37Z" fill="#00196E"/>
<path fill-rule="evenodd" clip-rule="evenodd" d="M147.216 31.7947L151.197 32.9936C152.798 33.4758 154.487 32.5686 154.969 30.9672L155.345 29.7187C155.533 29.0956 155.18 28.4383 154.557 28.2507L151.166 27.2295C149.057 26.5945 146.832 27.7893 146.197 29.8984C145.955 30.7033 146.411 31.5524 147.216 31.7947Z" fill="#00196E"/>
<path fill-rule="evenodd" clip-rule="evenodd" d="M151.97 49.9795H149.198C147.026 49.9795 144.748 48.7977 143.931 47.0212C143.931 47.0212 143.903 45.6662 143.903 44.952V43.7985C143.903 43.4668 144.187 43.1978 144.536 43.1978H154.027C154.376 43.1978 154.66 43.4668 154.66 43.7985V47.4254C154.66 48.836 153.456 49.9795 151.97 49.9795Z" fill="#00196E"/>
<path fill-rule="evenodd" clip-rule="evenodd" d="M156.235 45.634C155.656 47.0409 154.207 47.9597 152.604 47.9597H151.352C147.612 47.9597 145.413 46.4144 143.159 44.6167C143.159 44.6167 141.75 43.2612 140.757 40.6841C139.513 37.4583 138.713 32.7105 139.757 30.7999C140.819 28.8594 143.639 25.0001 147.732 25.0001C153.645 25.0001 158.008 28.1912 158.008 33.7619L157.152 40.8931C157.152 42.0573 156.708 44.4835 156.235 45.634Z" fill="#D1D6F0"/>
<path fill-rule="evenodd" clip-rule="evenodd" d="M142.276 34.7499C142.276 34.7499 144.094 27.8589 151.449 27.8589C155.377 27.8589 157.555 30.9336 157.895 34.703L157.152 40.8929C157.152 40.8929 155.188 48.5313 145.412 41.9283C145.113 41.7269 144.928 41.4062 144.824 41.0748L142.276 34.7499Z" fill="#1F41A4"/>
<path d="M146.531 32.6259L148.105 37.1642" stroke="#E8EBFF" stroke-width="7" stroke-linecap="round" stroke-linejoin="round" stroke-dasharray="12 12"/>
<path fill-rule="evenodd" clip-rule="evenodd" d="M323.108 140.618C324.149 139.706 324.724 139.209 325.292 138.703C329.149 135.273 332.998 131.834 336.863 128.414C338.133 127.29 339.38 126.603 341.258 127.422C351.795 132.016 362.764 133.152 374.02 130.971C386.134 128.623 396.468 123.019 404.379 113.361C417.217 97.6894 416.945 76.3258 403.792 60.9165C398.783 55.0486 392.674 50.6752 385.608 47.6709C376.91 43.9729 367.853 42.5472 358.425 43.4613C344.609 44.8006 332.705 50.155 323.497 60.7143C307.489 79.0747 310.85 104.078 327.423 118.512C328.692 119.617 329.07 120.673 328.53 122.34C326.91 127.336 325.45 132.385 323.94 137.417C323.679 138.286 323.481 139.174 323.108 140.618ZM363.506 134.376C355.921 134.132 348.613 132.795 341.626 129.914C340.053 129.266 338.991 129.395 337.729 130.567C332.877 135.073 327.927 139.473 323.015 143.913C322.696 144.202 322.432 144.61 322.061 144.765C321.626 144.946 320.995 145.105 320.647 144.912C320.32 144.732 320.106 144.081 320.103 143.637C320.1 143.053 320.331 142.461 320.5 141.884C322.172 136.183 323.849 130.483 325.529 124.784C325.724 124.124 325.943 123.47 326.153 122.813C326.591 121.449 326.275 120.455 325.147 119.419C320.531 115.176 316.957 110.141 314.471 104.361C307.579 88.3294 311.105 70.222 323.676 57.3176C331.544 49.2395 341.143 44.317 352.127 42.187C367.368 39.2312 381.7 41.7541 394.785 50.2243C405.083 56.89 412.147 66.1376 414.878 78.2565C418.061 92.3853 414.37 104.93 405.095 115.802C397.024 125.261 386.562 130.711 374.47 133.026C370.861 133.717 367.163 133.939 363.506 134.376Z" fill="#B5BDE6"/>
<path d="M323.108 140.618C324.149 139.706 324.724 139.209 325.292 138.703C329.149 135.273 332.998 131.834 336.863 128.414C338.133 127.29 339.38 126.603 341.258 127.422C351.795 132.016 362.764 133.152 374.02 130.971C386.134 128.623 396.468 123.019 404.379 113.361C417.217 97.6894 416.945 76.3258 403.792 60.9165C398.783 55.0486 392.674 50.6752 385.608 47.6709C376.91 43.9729 367.853 42.5472 358.425 43.4613C344.609 44.8006 332.705 50.155 323.497 60.7143C307.489 79.0747 310.85 104.078 327.423 118.512C328.692 119.617 329.07 120.673 328.53 122.34C326.91 127.336 325.45 132.385 323.94 137.417C323.679 138.286 323.481 139.174 323.108 140.618Z" fill="#B5BDE6"/>
<path fill-rule="evenodd" clip-rule="evenodd" d="M298.836 115.33C299.517 118.927 300.178 122.528 300.839 126.129C301.15 127.822 300.676 129.116 299.027 129.897C298.209 130.286 297.396 130.748 296.702 131.325C294.3 133.318 293.612 136.568 294.926 139.337C296.165 141.946 298.566 142.572 300.526 140.488C302.248 138.659 303.56 136.44 305.05 134.392C305.597 133.64 305.75 132.09 307.117 132.769C308.548 133.478 307.818 134.773 307.209 135.656C305.599 137.99 304.093 140.471 302.107 142.451C298.945 145.604 294.544 144.534 292.649 140.452C290.765 136.395 291.945 131.667 295.553 128.983C296.362 128.381 297.265 127.902 298.356 127.222C297.968 122.845 296.167 118.759 296.55 114.518C296.573 114.258 296.774 114.04 297.03 113.993C298.246 113.765 298.662 114.409 298.836 115.33ZM283.62 94.536C283.615 94.584 283.608 94.6313 283.601 94.6791C283.114 97.6943 282.448 100.682 281.961 103.698C281.632 105.732 280.432 106.544 278.482 106.974C276.4 107.432 274.226 107.992 272.424 109.053C269.241 110.926 268.524 114.872 270.451 117.855C271.74 119.85 274.358 120.473 276.436 119.303C278.088 118.372 279.59 117.162 281.15 116.067C281.65 115.717 282.035 115.151 282.576 114.934C282.952 114.783 283.584 114.945 283.95 115.188C284.168 115.334 284.295 115.91 284.144 116.289C284.112 116.369 284.079 116.487 284.013 116.56C281.3 119.572 278.32 122.233 273.993 122.518C271.8 122.663 270.031 121.578 268.7 119.827C265.323 115.381 266.599 109.182 271.71 106.472C273.933 105.293 276.497 104.74 279.322 103.758C279.864 100.875 280.411 97.8737 281.001 94.8805C281.047 94.6421 281.086 94.3955 281.136 94.1524C281.453 92.6153 283.783 92.9754 283.62 94.536ZM314.267 115.286C314.586 115.396 314.853 115.649 315.151 115.983C315.632 116.524 315.492 117.356 314.854 117.705L314.792 117.739C314.258 118.03 313.579 117.856 313.269 117.343C313.064 117.001 312.896 116.658 312.882 116.31C312.866 115.956 313.939 115.172 314.267 115.286ZM298.137 109.908C298.429 110.199 298.38 110.648 298.034 110.871C297.529 111.196 297.142 111.463 296.842 111.395C296.363 111.286 295.715 110.543 295.747 110.126C295.776 109.737 296.6 109.134 297.078 109.142C297.396 109.147 297.715 109.487 298.137 109.908ZM319.617 91.0299C321.359 92.9259 321.665 95.6103 320.418 98.1092C319.387 100.175 317.746 101.673 315.762 102.837C314.795 103.404 313.794 103.914 312.516 104.609C312.891 106.411 313.2 107.988 313.556 109.557C313.753 110.424 313.799 111.386 312.731 111.428C312.197 111.449 311.414 110.688 311.088 110.042C310.928 109.723 310.861 109.277 310.79 108.879C310.473 107.105 309.499 105.082 310.059 103.631C310.55 102.355 312.832 101.808 314.195 100.778C315.481 99.8065 316.842 98.7865 317.742 97.5C319.669 94.747 318.424 92.0973 315.037 91.3792C312.851 90.9152 310.718 91.1343 308.702 92.1191C308.243 92.3433 307.83 92.6933 307.348 92.8288C306.454 93.0801 305.664 92.2555 305.976 91.4094C306.108 91.0495 306.386 90.7087 306.677 90.4429C309.54 87.833 316.998 88.1808 319.617 91.0299ZM345.236 108.12C345.618 108.556 345.944 108.906 345.879 109.022C345.6 109.517 345.085 110.01 344.569 110.164C344.327 110.237 343.519 109.422 343.585 109.202C343.697 108.825 343.994 108.506 344.35 108.115C344.592 107.851 345.001 107.852 345.236 108.12ZM366.798 85.863C371.803 88.4491 371.985 93.6588 367.346 96.8506C364.037 99.1282 360.223 99.5128 356.433 99.1268C353.676 98.8454 351.947 99.6378 350.601 101.917C349.725 103.401 348.664 104.796 347.534 106.101C347.462 106.184 347.369 106.25 347.262 106.304C346.446 106.713 345.434 106.056 345.473 105.15C345.48 105.002 345.512 104.87 345.584 104.766L346.112 103.999C347.611 101.826 349.148 99.6642 350.913 97.7133C351.594 96.9596 353.092 96.7437 354.25 96.6424C356.08 96.4817 357.939 96.6761 359.784 96.6272C362.086 96.5658 364.259 95.9704 366.123 94.5944C368.881 92.5596 368.829 89.9468 365.867 88.2751C364.393 87.444 362.641 87.0977 361.015 86.5316C358.197 86.4854 355.618 86.6985 353.339 88.4831C353.26 88.5451 353.163 88.5868 353.055 88.6132C352.161 88.8299 351.365 87.9479 351.583 87.0604C351.618 86.916 351.673 86.7878 351.76 86.6849C352.317 86.0155 353.156 85.4624 353.988 85.1483C358.343 83.5055 362.705 83.7483 366.798 85.863ZM328.965 97.2158C329.481 97.6586 329.495 98.4767 328.992 98.9314C328.794 99.1113 328.616 99.2279 328.446 99.2177C328.057 99.1933 327.413 98.5022 327.416 98.1098C327.418 97.6906 328.012 96.9958 328.411 96.9463C328.576 96.9254 328.758 97.0387 328.965 97.2158ZM283.445 87.09C283.791 87.1802 284.094 87.4275 284.387 87.7099C284.791 88.0968 284.812 88.7178 284.436 89.1239L284.172 89.4111C283.791 89.8238 283.074 89.7855 282.719 89.3149C282.396 88.8856 282.153 88.5334 282.133 88.1716C282.112 87.803 283.1 87.0004 283.445 87.09ZM337.683 73.3968C338.55 75.8731 338.251 78.3441 336.655 80.3211C335.16 82.1731 333.389 83.9124 331.426 85.2224C329.925 86.2227 329.449 87.3196 329.47 88.9374L329.481 89.7289C329.494 90.7847 329.495 91.8422 329.407 92.8903C329.393 93.057 329.37 93.2223 329.34 93.3888C329.078 94.8131 326.988 94.6111 326.994 93.162L326.994 93.1351C327.005 91.1066 327.129 89.0783 327.1 87.0516C327.078 85.4166 327.913 84.5351 329.188 83.6773C330.92 82.5121 332.563 81.1655 334.058 79.7012C335.233 78.5498 335.793 76.9709 335.588 75.2508C335.298 72.8032 333.433 71.7905 331.246 72.8968C330.628 73.2089 330.14 73.8116 329.506 74.0533C329.05 74.2273 328.207 74.2219 327.981 73.936C327.716 73.6017 327.709 72.6957 327.98 72.35C329.371 70.5688 331.278 69.7141 333.518 69.9249C335.621 70.1224 336.993 71.4224 337.683 73.3968ZM297.041 83.1751C297.424 83.2802 297.743 83.6033 298.131 84.0229C298.527 84.4501 298.416 85.1185 297.9 85.3957C297.41 85.6588 297.041 85.8457 296.835 85.7391C296.486 85.5588 296.224 85.2223 295.977 84.8583C295.677 84.4154 295.778 83.8264 296.213 83.5101C296.521 83.2865 296.815 83.1129 297.041 83.1751ZM312.134 58.6103C312.048 62.1058 310.507 64.9536 307.846 67.0667C305.785 68.7022 303.54 70.1221 301.277 71.4661C300.019 72.2132 299.315 73.0894 299.198 74.5655C299.052 76.3972 298.814 78.2254 298.527 80.0405C298.51 80.1462 298.49 80.251 298.467 80.3549C298.134 81.8588 295.916 81.5465 296.07 80.0136L296.073 79.9829C296.327 77.5461 296.678 75.1189 297.019 72.6919C297.242 71.1087 298.37 70.2845 299.626 69.5173L300.516 68.9736C302.298 67.8851 304.076 66.7828 305.755 65.5467C307.866 63.9923 309.3 61.9165 309.566 59.1796C309.919 55.5509 307.773 52.8404 304.155 52.9878C298.93 53.2004 294.556 55.2957 291.871 60.1151C291.44 60.8877 291.079 61.7925 290.172 61.2011C289.931 61.0446 289.779 60.7023 289.68 60.3085C289.493 59.5548 289.608 58.7462 289.979 58.0647C290.04 57.9524 290.102 57.851 290.163 57.772C293.972 52.8902 298.867 50.141 305.107 50.5474C309.433 50.8285 312.242 54.2178 312.134 58.6103Z" fill="#1F41A4"/>
<path fill-rule="evenodd" clip-rule="evenodd" d="M480.031 153.287C495.246 157.785 485.992 159.068 496.858 140.692C506.979 123.186 516.59 124.345 534.658 122.999L533.4 111.895C522.35 112.698 510.132 112.66 500.704 119.415C492.451 125.405 487.088 134.335 482.915 143.378C481.628 146.229 480.475 149.122 479.461 152.098C479.292 152.597 479.55 153.133 480.031 153.287Z" fill="#9D8AB9"/>
<mask id="mask1_447:1235" style="mask-type:alpha" maskUnits="userSpaceOnUse" x="472" y="126" width="31" height="32">
<path fill-rule="evenodd" clip-rule="evenodd" d="M502.146 126.24H473V157.404H502.146V126.24Z" fill="#E8EBFF"/>
</mask>
<g mask="url(#mask1_447:1235)">
<path fill-rule="evenodd" clip-rule="evenodd" d="M479.401 149.23C482.518 141.006 486.476 133.12 492.068 126.24L502.146 134.52C496.822 141.126 493.016 149.289 490.381 157.404C490.248 157.365 486.395 156.24 486.148 156.168C486.146 155.941 486.2 155.527 486.219 155.292C486.219 155.292 483.63 155.432 483.63 155.432C480.993 154.662 475.618 153.093 473 152.328C473.076 152.075 473.232 151.566 473.313 151.316C473.494 148.75 477.06 150.194 479.401 149.23Z" fill="#0F2D88"/>
</g>
<path fill-rule="evenodd" clip-rule="evenodd" d="M491.428 127.032L501.659 135.123C507.953 126.5 516.611 124.91 526.494 124.401C533.368 124.031 540.616 123.961 546.708 119.965L539.605 109.025C534.495 111.875 528.193 110.889 522.403 111.608C509.631 112.591 499.327 116.596 491.428 127.032Z" fill="#B5BDE6"/>
<path d="M499.843 118.778C499.797 118.715 499.708 118.701 499.645 118.747C499.587 118.79 499.571 118.868 499.605 118.93L499.614 118.945L503.463 124.21C503.509 124.273 503.598 124.286 503.661 124.24C503.719 124.198 503.735 124.119 503.701 124.058L503.691 124.043L499.843 118.778Z" fill="#1F41A4"/>
<path d="M502.36 117.125C502.32 117.058 502.234 117.036 502.167 117.076C502.104 117.113 502.081 117.191 502.11 117.255L502.117 117.27L505.458 122.871C505.498 122.938 505.585 122.96 505.652 122.92C505.714 122.883 505.737 122.806 505.708 122.741L505.701 122.726L502.36 117.125Z" fill="#1F41A4"/>
<path d="M497.516 120.617C497.465 120.558 497.375 120.551 497.316 120.602C497.262 120.649 497.252 120.729 497.291 120.788L497.302 120.802L501.568 125.735C501.619 125.794 501.708 125.8 501.767 125.749C501.822 125.702 501.832 125.622 501.793 125.564L501.782 125.549L497.516 120.617Z" fill="#1F41A4"/>
<path d="M540.279 109.802C540.235 109.737 540.148 109.719 540.083 109.762C538.366 110.901 535.986 111.51 532.675 111.831L532.109 111.883C531.397 111.945 530.768 111.985 529.458 112.058L528.192 112.128L527.426 112.166C521.396 112.475 517.779 112.861 513.881 113.757C510.254 114.604 507.15 115.64 504.419 116.998C504.349 117.033 504.321 117.117 504.355 117.187C504.39 117.257 504.475 117.286 504.545 117.251C507.255 115.905 510.338 114.875 513.945 114.032L514.187 113.977C518.135 113.089 521.856 112.719 528.207 112.411L530.298 112.294C531.292 112.235 531.823 112.195 532.57 112.125L532.832 112.1C536.118 111.772 538.497 111.154 540.239 109.998C540.304 109.955 540.322 109.867 540.279 109.802Z" fill="#0F2D88"/>
<path d="M495.86 122.12L495.978 122.246L497.612 123.999C498.116 124.537 498.45 124.881 498.742 125.16L498.773 125.19C499.505 125.883 499.996 126.164 500.52 126.153C500.987 126.143 501.436 125.92 502.261 125.331L502.431 125.209C502.693 125.017 503.444 124.46 503.719 124.26L503.742 124.243C504.386 123.774 504.991 123.353 505.652 122.92C506.716 122.285 506.678 121.121 505.869 119.422L505.841 119.363C505.693 119.057 505.524 118.739 505.312 118.361L504.667 117.232C504.632 117.17 504.603 117.119 504.584 117.083L504.523 116.971C504.336 116.625 504.218 116.372 504.157 116.174C504.134 116.099 504.055 116.057 503.98 116.08C503.905 116.103 503.863 116.183 503.887 116.257C503.954 116.476 504.078 116.743 504.272 117.103L504.372 117.285C504.537 117.579 504.963 118.318 505.019 118.418L505.109 118.578C505.284 118.891 505.428 119.162 505.555 119.422L505.586 119.486C506.365 121.099 506.41 122.138 505.502 122.68C504.899 123.075 504.345 123.458 503.769 123.874L503.499 124.07C503.161 124.318 502.379 124.897 502.208 125.021L502.05 125.134C501.301 125.665 500.897 125.862 500.514 125.87C500.084 125.88 499.65 125.631 498.968 124.984L498.875 124.895C498.623 124.652 498.332 124.352 497.923 123.917L496.106 121.969L496.066 121.926C496.012 121.869 495.923 121.866 495.866 121.92C495.809 121.973 495.806 122.063 495.86 122.12Z" fill="#1F41A4"/>
<path fill-rule="evenodd" clip-rule="evenodd" d="M547.684 122.302H549.099C556.834 122.302 563.104 116.032 563.104 108.297H533.68C533.68 116.032 539.95 122.302 547.684 122.302Z" fill="#D1D6F0"/>
<path fill-rule="evenodd" clip-rule="evenodd" d="M522.068 171.874C520.561 163.292 519.202 154.714 518.437 145.997L531.434 144.903C532.34 154.23 533.678 163.79 535.633 172.998C535.045 173.166 533.328 173.668 532.716 173.848C529.664 174.742 536.265 172.811 535.631 172.991C535.629 172.985 535.624 172.968 535.622 172.961C535.489 173.001 531.644 174.15 531.397 174.224C531.253 174.045 531.138 173.756 531.017 173.536C530.309 173.987 529.591 174.524 528.884 174.975C526.254 175.761 520.885 177.365 518.273 178.146C518.172 177.807 518.041 177.307 517.954 176.962C516.693 174.445 520.866 173.618 522.068 171.874Z" fill="#1F41A4"/>
<mask id="mask2_447:1235" style="mask-type:alpha" maskUnits="userSpaceOnUse" x="518" y="107" width="46" height="41">
<path fill-rule="evenodd" clip-rule="evenodd" d="M563.634 107.793H518.07V147.038H563.634V107.793Z" fill="#E8EBFF"/>
</mask>
<g mask="url(#mask2_447:1235)">
<path fill-rule="evenodd" clip-rule="evenodd" d="M531.517 145.851C531.25 142.721 530.973 139.336 531.22 136.33C531.218 136.332 531.227 136.323 531.208 136.347C535.277 131.779 541.543 130.064 547.165 127.491C555.434 124.215 563.541 117.986 563.634 108.206L550.597 108.297C550.32 113.516 542.997 114.844 538.912 116.824C534.572 118.639 530.148 120.513 526.195 123.373C522.907 125.908 519.242 129.039 518.482 133.343C517.731 137.888 518.168 142.501 518.528 147.038L531.517 145.851Z" fill="#D1D6F0"/>
</g>
<path fill-rule="evenodd" clip-rule="evenodd" d="M526.951 131.446C528.325 131.568 529.642 131.834 530.906 132.198C540.338 124.442 559.903 123.872 560.49 108.263L553.979 108.206C553.879 114.37 547.365 116.828 542.486 118.949C537.064 121.265 531.378 123.352 526.744 127.177C526.673 128.647 526.735 130.084 526.951 131.446Z" fill="#1F41A4"/>
<path d="M518.281 134.671C518.204 134.662 518.134 134.718 518.125 134.795C518.116 134.868 518.163 134.933 518.232 134.949L518.249 134.952L524.727 135.705C524.805 135.715 524.875 135.659 524.884 135.581C524.893 135.509 524.845 135.444 524.776 135.427L524.76 135.424L518.281 134.671Z" fill="#1F41A4"/>
<path d="M519.292 130.725C519.221 130.693 519.137 130.724 519.104 130.795C519.074 130.861 519.099 130.938 519.16 130.975L519.174 130.983L525.141 133.708C525.212 133.741 525.296 133.71 525.328 133.638C525.358 133.572 525.333 133.495 525.273 133.459L525.258 133.451L519.292 130.725Z" fill="#1F41A4"/>
<path d="M518.087 137.92C518.008 137.919 517.944 137.981 517.943 138.059C517.942 138.132 517.996 138.192 518.067 138.201L518.083 138.203L524.604 138.284C524.682 138.285 524.747 138.223 524.748 138.144C524.748 138.072 524.695 138.011 524.624 138.002L524.608 138.001L518.087 137.92Z" fill="#1F41A4"/>
<path d="M551.756 108.328L551.754 108.328L551.756 108.313L551.757 108.292L551.755 108.269C551.754 108.263 551.752 108.257 551.743 108.235L551.73 108.213C551.698 108.163 551.682 108.164 551.546 108.173L551.481 108.254C551.472 108.266 551.474 108.266 551.477 108.266L551.472 108.296L551.442 108.49L551.436 108.529C551.401 108.738 551.362 108.94 551.316 109.129C551.289 109.237 551.262 109.337 551.233 109.428C550.776 110.85 549.68 112.12 547.929 113.346C546.517 114.334 544.747 115.265 542.201 116.407L541.728 116.617C540.74 117.051 536.633 118.806 535.21 119.439L535.082 119.496C531.977 120.889 529.58 122.135 527.465 123.525C524.908 125.206 522.899 127.029 521.422 129.103C521.377 129.166 521.392 129.255 521.456 129.3C521.519 129.345 521.608 129.33 521.653 129.267C523.107 127.224 525.091 125.424 527.621 123.762C529.682 122.407 532.019 121.187 535.03 119.83L535.42 119.655C536.968 118.97 541.134 117.19 541.928 116.838L542.318 116.664C544.878 115.516 546.662 114.579 548.091 113.578C549.889 112.319 551.024 111.004 551.502 109.514C551.533 109.417 551.563 109.31 551.591 109.196C551.629 109.038 551.663 108.873 551.693 108.703L551.721 108.536L551.752 108.336L551.753 108.335C551.757 108.33 551.757 108.328 551.756 108.328Z" fill="#1F41A4"/>
<path d="M520.816 128.478C520.759 128.423 520.67 128.425 520.616 128.482C520.561 128.538 520.563 128.627 520.62 128.682C520.756 128.812 520.983 128.986 521.367 129.257L522.451 130.01C522.56 130.086 522.66 130.157 522.757 130.226L522.854 130.294C523.135 130.495 523.383 130.678 523.61 130.852L523.719 130.937C524.578 131.609 525.069 132.132 525.125 132.471L525.128 132.492L525.134 132.519C525.245 132.868 525.224 133.192 525.07 133.523C524.797 134.15 524.682 134.76 524.573 135.845C524.509 136.549 524.477 137.278 524.465 138.141C524.453 139.043 523.725 139.8 522.812 139.847L522.769 139.849L518.095 139.958C518.017 139.96 517.955 140.025 517.957 140.103C517.958 140.175 518.014 140.234 518.085 140.24L518.101 140.241L522.776 140.132C523.862 140.102 524.734 139.213 524.748 138.145C524.76 137.289 524.792 136.566 524.855 135.872L524.872 135.705C524.973 134.753 525.086 134.197 525.328 133.639C525.503 133.263 525.534 132.883 525.419 132.485L525.407 132.446L525.405 132.433C525.336 131.983 524.798 131.416 523.841 130.673L523.783 130.628L523.626 130.509C523.44 130.368 523.239 130.221 523.018 130.064L522.772 129.889C522.67 129.818 522.562 129.742 522.441 129.658L521.674 129.127L521.446 128.966C521.125 128.737 520.929 128.586 520.816 128.478Z" fill="#1F41A4"/>
<path fill-rule="evenodd" clip-rule="evenodd" d="M514.747 49.0231C514.085 48.787 513.315 49.252 513.047 50.0617C512.684 51.8904 508.558 62.4305 511.264 62.5987C511.955 62.703 512.632 62.1264 512.773 61.3091C513.421 57.7427 514.343 54.2729 515.465 50.8617C515.722 50.0812 515.409 49.2597 514.747 49.0231Z" fill="#0F2D88"/>
<mask id="mask3_447:1235" style="mask-type:alpha" maskUnits="userSpaceOnUse" x="514" y="48" width="5" height="8">
<path fill-rule="evenodd" clip-rule="evenodd" d="M518.289 48H514.24V55.4435H518.289V48Z" fill="#E8EBFF"/>
</mask>
<g mask="url(#mask3_447:1235)">
<path fill-rule="evenodd" clip-rule="evenodd" d="M517.511 48.0691C515.404 47.3643 514.964 52.2503 514.308 53.6306C514.079 54.427 514.45 55.2223 515.131 55.405C515.809 55.5865 516.532 55.1099 516.753 54.3426C517.19 52.8475 517.664 51.3639 518.19 49.8955C518.458 49.1437 518.164 48.3291 517.511 48.0691Z" fill="#0F2D88"/>
</g>
<path fill-rule="evenodd" clip-rule="evenodd" d="M519.735 48.5977C517.659 47.8344 517.217 52.606 516.572 53.9533C516.341 54.7254 516.724 55.5071 517.399 55.6911C518.081 55.8766 518.791 55.4182 519.014 54.6749C519.442 53.2233 519.913 51.7814 520.426 50.3653C520.689 49.6389 520.386 48.8611 519.735 48.5977Z" fill="#0F2D88"/>
<path fill-rule="evenodd" clip-rule="evenodd" d="M521.314 54.8787C519.195 54.316 519.167 58.808 518.623 60.1857C518.427 60.6729 519.286 62.0051 519.509 62.2253C519.683 61.3389 520.862 61.8776 521.205 60.2907C521.259 58.7948 523.274 55.5785 521.314 54.8787Z" fill="#0F2D88"/>
<path fill-rule="evenodd" clip-rule="evenodd" d="M521.41 50.5602C520.751 50.3154 519.996 50.7096 519.744 51.451C518.898 53.9271 518.169 56.4509 517.584 58.9982C517.41 59.7174 517.801 60.4811 518.527 60.6368C519.243 60.7808 519.899 60.2758 520.065 59.5707C520.629 57.1164 521.336 54.6671 522.153 52.2766C522.394 51.5655 522.07 50.8051 521.41 50.5602Z" fill="#0F2D88"/>
<path fill-rule="evenodd" clip-rule="evenodd" d="M516.988 53.0662C509.742 51.6318 510.297 62.4701 509.647 67.2911C509.375 72.9022 509.967 78.7125 512.838 83.7728C514.846 87.2805 517.971 90.0394 521.377 91.9526C525.824 94.4677 530.871 95.8019 535.774 96.5035C538.293 96.914 540.84 96.2313 541.07 93.4349C541.235 90.9642 539.536 88.6779 537.123 88.267C532.007 87.412 526.425 85.7213 522.732 82.2362C517.793 77.4982 518.371 69.8868 519.267 63.6081C519.927 59.7392 521.867 54.9754 516.988 53.0662Z" fill="#0F2D88"/>
<path fill-rule="evenodd" clip-rule="evenodd" d="M519.308 63.3816L510.097 61.8571C509.049 70.1039 508.411 79.591 513.916 86.5615C518.984 93.1823 527.355 96.1477 535.202 97.4114C541.345 98.5955 546.749 94.6082 541.729 88.9256C539.318 86.3434 533.442 86.1924 529.934 84.9318C526.2 83.6704 522.619 81.6623 520.862 78.2C518.67 73.6134 519.016 68.3536 519.308 63.3816Z" fill="#B5BDE6"/>
<path fill-rule="evenodd" clip-rule="evenodd" d="M519.978 75.9166L519.083 76.136C518.115 73.5229 517.729 70.5867 517.646 67.7278L519.126 67.8335C519.029 70.7103 519.27 73.5215 519.978 75.9166Z" fill="#0F2D88"/>
<mask id="mask4_447:1235" style="mask-type:alpha" maskUnits="userSpaceOnUse" x="509" y="67" width="3" height="12">
<path fill-rule="evenodd" clip-rule="evenodd" d="M511.366 67.1537H509.379V78.3439H511.366V67.1537Z" fill="#E8EBFF"/>
</mask>
<g mask="url(#mask4_447:1235)">
<path fill-rule="evenodd" clip-rule="evenodd" d="M510.819 78.1629L510.082 78.3439C509.265 74.5821 509.238 70.859 509.603 67.1537L511.366 67.2794C510.658 70.8382 510.343 74.4368 510.819 78.1629Z" fill="#0F2D88"/>
</g>
<path fill-rule="evenodd" clip-rule="evenodd" d="M514.72 82.1498L512.012 83.5609C514.05 87.5951 517.701 90.8822 521.542 93.0014C524.549 88.1928 523.22 88.853 519.592 85.6108C518.042 84.4836 517.05 81.2748 514.72 82.1498Z" fill="#0F2D88"/>
<path fill-rule="evenodd" clip-rule="evenodd" d="M511.366 67.2795C510.856 65.5053 510.439 63.691 510.097 61.8571C509.858 63.5951 509.686 65.3587 509.603 67.1536L511.366 67.2795Z" fill="#0F2D88"/>
<path fill-rule="evenodd" clip-rule="evenodd" d="M517.646 67.7278C518.131 66.25 518.692 64.8025 519.309 63.3815C519.18 64.883 519.114 66.3731 519.126 67.8335L517.646 67.7278Z" fill="#0F2D88"/>
<path fill-rule="evenodd" clip-rule="evenodd" d="M519.83 77.8152L517.578 78.6609C520.703 86.927 530.372 89.7384 538.382 90.8686C539.865 91.0853 540.149 88.6534 538.694 88.4832C531.461 87.3975 522.713 85.173 519.83 77.8152Z" fill="#0F2D88"/>
<path fill-rule="evenodd" clip-rule="evenodd" d="M533.762 108.35H563.726V94.5394C563.726 91.2194 561.035 88.528 557.715 88.528H539.774C536.454 88.528 533.762 91.2194 533.762 94.5394V108.35Z" fill="#D1D6F0"/>
<mask id="mask5_447:1235" style="mask-type:alpha" maskUnits="userSpaceOnUse" x="509" y="48" width="82" height="89">
<path fill-rule="evenodd" clip-rule="evenodd" d="M590.412 136.377H509.379V48H590.412V136.377Z" fill="#E8EBFF"/>
</mask>
<g mask="url(#mask5_447:1235)">
<path fill-rule="evenodd" clip-rule="evenodd" d="M560.545 108.365H554.021V95.4302H560.545V108.365Z" fill="#1F41A4"/>
<path d="M539.373 88.5996C538.477 88.5996 537.887 88.9978 537.576 89.7319C537.333 90.3043 537.265 91.0554 537.326 92.0082L537.332 92.0982C537.356 92.4415 537.393 92.7855 537.45 93.2146L537.532 93.8014L537.664 94.7041C537.806 95.6677 537.997 96.9226 538.229 98.4197L538.586 100.717L538.967 103.145C539.078 103.852 539.191 104.567 539.304 105.282L539.796 108.376C539.808 108.453 539.881 108.506 539.958 108.494C540.03 108.482 540.08 108.419 540.077 108.348L540.073 108.316L539.584 105.238C539.433 104.284 539.282 103.331 539.136 102.397L538.423 97.8272C538.23 96.5714 538.068 95.5057 537.944 94.6632L537.767 93.4438L537.731 93.1784C537.678 92.7824 537.643 92.4607 537.619 92.1456L537.614 92.0782C537.466 89.9871 537.934 88.8825 539.373 88.8825C539.451 88.8825 539.515 88.8192 539.515 88.7411C539.515 88.6629 539.451 88.5996 539.373 88.5996Z" fill="#1F41A4"/>
<path d="M555.26 88.5996C554.101 88.5996 552.908 89.2869 551.803 90.4628C550.892 91.433 550.1 92.6916 549.703 93.731L549.606 93.9893C549.155 95.1941 548.549 96.9676 547.823 99.1856L547.546 100.038L547.467 100.281C547.005 101.709 546.524 103.219 546.045 104.745L545.542 106.355L544.937 108.312C544.914 108.387 544.956 108.466 545.03 108.489C545.1 108.51 545.173 108.476 545.201 108.411L545.214 108.371L545.648 106.967C545.755 106.624 545.867 106.263 545.984 105.887L546.315 104.83C546.794 103.305 547.274 101.795 547.736 100.369L548.052 99.3973C548.848 96.96 549.503 95.05 549.967 93.8318C550.351 92.8271 551.123 91.6 552.01 90.6565C553.066 89.532 554.193 88.8825 555.26 88.8825C555.339 88.8825 555.402 88.8192 555.402 88.7411C555.402 88.6629 555.339 88.5996 555.26 88.5996Z" fill="#1F41A4"/>
<path d="M540.692 88.3397C539.903 88.3397 539.383 88.8764 539.111 89.8207C538.893 90.5781 538.831 91.5949 538.895 92.8112C538.939 93.6391 539.039 94.5224 539.179 95.4187C539.246 95.8498 539.318 96.2558 539.39 96.6248L539.449 96.9184L539.486 97.0944C539.507 97.1849 539.583 97.251 539.674 97.2594L539.694 97.2603H546.107C546.191 97.2603 546.267 97.2108 546.301 97.134L546.343 97.0405C546.378 96.9634 546.419 96.8738 546.467 96.7729L546.55 96.5957C546.664 96.3543 546.791 96.0928 546.93 95.8154C547.425 94.8249 547.964 93.8344 548.531 92.9109C549.462 91.3919 550.371 90.2089 551.215 89.4957C551.785 89.0132 552.306 88.7641 552.764 88.7641C552.882 88.7641 552.977 88.669 552.977 88.5519C552.977 88.4347 552.882 88.3397 552.764 88.3397C552.189 88.3397 551.581 88.6303 550.94 89.1716C550.055 89.9203 549.122 91.1348 548.169 92.6891C547.596 93.6241 547.05 94.625 546.55 95.6258L546.447 95.8328C546.33 96.0708 546.222 96.2956 546.124 96.5047L546.015 96.7381L545.97 96.8358H539.865L539.819 96.606L539.807 96.5436C539.736 96.1797 539.665 95.7789 539.598 95.3534C539.461 94.4703 539.362 93.6008 539.319 92.7888C539.185 90.2534 539.614 88.7641 540.692 88.7641C540.81 88.7641 540.905 88.669 540.905 88.5519C540.905 88.4347 540.81 88.3397 540.692 88.3397Z" fill="#1F41A4"/>
<path d="M554.17 98.2884C554.092 98.211 553.969 98.2065 553.886 98.2748L553.87 98.2894L550.434 101.748C550.412 101.77 550.396 101.796 550.385 101.824L550.378 101.846L548.758 108.298C548.73 108.412 548.799 108.527 548.912 108.556C549.019 108.583 549.128 108.523 549.164 108.421L549.17 108.402L550.776 102.006L554.171 98.5885C554.249 98.5106 554.253 98.3876 554.185 98.3045L554.17 98.2884Z" fill="#B5BDE6"/>
<path d="M533.818 98.3164C533.751 98.2207 533.618 98.198 533.523 98.2656C533.433 98.3293 533.407 98.4504 533.461 98.5442L533.472 98.5614L535.895 101.988L537.506 108.402C537.533 108.508 537.636 108.576 537.743 108.56L537.763 108.556C537.87 108.529 537.938 108.425 537.921 108.318L537.917 108.298L536.297 101.846C536.292 101.827 536.285 101.809 536.275 101.792L536.264 101.775L533.818 98.3164Z" fill="#B5BDE6"/>
<path fill-rule="evenodd" clip-rule="evenodd" d="M585.69 136.333C586.36 136.549 587.147 135.957 587.415 135.027C588.365 131.727 589.11 128.417 589.645 125.021C590 122.796 587.476 122.402 587.129 124.627C586.612 127.912 585.886 131.134 584.969 134.32C584.712 135.213 585.022 136.115 585.69 136.333Z" fill="#1F41A4"/>
<path fill-rule="evenodd" clip-rule="evenodd" d="M583.418 136.005C585.465 136.321 585.466 132.927 586.009 131.54C586.235 130.631 585.848 129.766 585.16 129.612C584.475 129.459 583.757 130.047 583.538 130.923C583.397 132.422 581.624 135.095 583.418 136.005Z" fill="#1F41A4"/>
<path fill-rule="evenodd" clip-rule="evenodd" d="M581.156 135.634C583.18 136.016 583.186 132.696 583.724 131.346C583.95 130.464 583.556 129.616 582.874 129.46C582.185 129.302 581.474 129.869 581.256 130.718C581.11 132.184 579.365 134.756 581.156 135.634Z" fill="#1F41A4"/>
<path fill-rule="evenodd" clip-rule="evenodd" d="M578.501 132.578C580.655 133.124 580.767 127.938 581.293 126.485C581.491 125.939 580.655 124.486 580.413 124.218C580.231 125.23 579.055 124.674 578.695 126.488C578.663 128.059 576.539 131.917 578.501 132.578Z" fill="#1F41A4"/>
<path fill-rule="evenodd" clip-rule="evenodd" d="M579.116 134.89C581.424 135.944 582.311 126.796 582.833 125.161C582.976 124.39 582.613 123.532 581.832 123.397C581.057 123.298 580.459 123.967 580.325 124.724C579.835 127.526 579.168 130.343 578.356 133.068C578.114 133.88 578.447 134.674 579.116 134.89Z" fill="#1F41A4"/>
<path fill-rule="evenodd" clip-rule="evenodd" d="M582.827 134.41C588.777 135.534 589.346 127.637 589.868 123.378C590.654 116.197 590.605 108.572 587.193 101.908C582.999 93.7728 573.36 90.7988 564.926 89.8495C561.931 89.7309 558.127 88.7499 555.506 90.2775C553.465 91.5183 553.955 94.9206 555.532 96.4023C557.617 98.6918 561.07 97.802 563.798 98.3943C568.171 99.0019 572.834 100.07 576.359 102.692C582.054 107.149 581.291 116.287 580.478 122.878C580.251 124.437 579.965 125.998 579.628 127.553C579.164 130.309 580.111 133.503 582.827 134.41Z" fill="#D1D6F0"/>
<path fill-rule="evenodd" clip-rule="evenodd" d="M580.616 122.899L589.766 124.228C591.026 113.791 591.122 100.821 581.167 94.4146C576.376 91.1549 570.661 89.7391 565.035 89.0273C560.395 88.7154 551.543 86.769 551.638 93.8539C552.057 99.0252 556.84 98.4565 561.224 98.8774C565.081 99.1859 569.805 99.8854 573.598 101.662C581.75 105.114 581.315 115.343 580.616 122.899Z" fill="#D1D6F0"/>
<path fill-rule="evenodd" clip-rule="evenodd" d="M579.812 108.61L580.467 108.418C581.898 111.278 582.599 114.664 582.956 117.938C582.211 119.642 581.375 121.285 580.478 122.879C581.039 118.163 581.193 113.009 579.812 108.61Z" fill="#1F41A4"/>
<path fill-rule="evenodd" clip-rule="evenodd" d="M588.634 106.03L589.276 105.842C590.411 109.997 590.562 114.145 590.302 118.299L588.537 118.212C589.174 114.2 589.399 110.171 588.634 106.03Z" fill="#1F41A4"/>
<path fill-rule="evenodd" clip-rule="evenodd" d="M584.257 101.701L586.844 100.079C584.095 95.6638 579.509 92.8033 574.75 91.1101C573.278 94.9537 572.823 95.5117 576.92 97.403C577.986 97.9914 578.999 98.6802 579.93 99.4692C581.152 100.472 582.474 102.562 584.257 101.701Z" fill="#1F41A4"/>
<path fill-rule="evenodd" clip-rule="evenodd" d="M590.304 118.299L580.979 117.84C580.897 119.505 580.723 121.19 580.478 122.878L589.766 124.228C590.031 122.282 590.221 120.308 590.304 118.299Z" fill="#1F41A4"/>
<path fill-rule="evenodd" clip-rule="evenodd" d="M562.387 98.5853L563.384 89.1598C559.265 88.9345 552.613 87.6716 552.579 93.6581C553.263 99.3501 558.27 98.0277 562.387 98.5853Z" fill="#1F41A4"/>
<path d="M550.088 88.4829C550.063 88.4089 549.983 88.369 549.909 88.3939L549.863 88.4105C549.852 88.4144 549.841 88.4188 549.828 88.4238C549.764 88.4484 549.69 88.4787 549.608 88.5152C549.373 88.6189 549.112 88.7512 548.832 88.9148C548.031 89.3811 547.232 90.005 546.486 90.8078C545.108 92.2913 544.073 94.2126 543.522 96.6256C543.504 96.7018 543.552 96.7777 543.628 96.7951C543.704 96.8125 543.78 96.7648 543.797 96.6887C544.338 94.3248 545.349 92.448 546.693 91.0004C547.419 90.2189 548.197 89.6121 548.974 89.1592C549.245 89.0011 549.497 88.8735 549.722 88.774C549.801 88.7394 549.87 88.7107 549.93 88.6878L549.984 88.6674C549.99 88.6651 549.996 88.6633 549.999 88.6621C550.073 88.6372 550.113 88.557 550.088 88.4829Z" fill="#B5BDE6"/>
<path d="M541.944 88.4619C541.908 88.3928 541.822 88.3664 541.753 88.4029C541.689 88.4367 541.662 88.5129 541.687 88.579L541.703 88.6134C541.708 88.6261 541.715 88.6444 541.724 88.6687C541.75 88.7444 541.777 88.8424 541.802 88.9645C542.079 90.2972 541.932 92.7438 541.045 96.6256C541.028 96.7018 541.075 96.7777 541.152 96.7951C541.228 96.8125 541.304 96.7648 541.321 96.6887L541.374 96.4553C542.214 92.7101 542.357 90.3069 542.088 88.9486L542.079 88.907C542.031 88.6749 541.981 88.5317 541.944 88.4619Z" fill="#B5BDE6"/>
</g>
<path fill-rule="evenodd" clip-rule="evenodd" d="M543.324 86.6389H544.029C547.316 86.6389 549.98 83.9747 549.98 80.6882V77.8968C549.98 75.3809 547.94 73.3413 545.424 73.3413H544.633C542.117 73.3413 540.078 75.3809 540.078 77.8968V83.3926C540.078 85.1855 541.531 86.6389 543.324 86.6389Z" fill="#9D8AB9"/>
<path fill-rule="evenodd" clip-rule="evenodd" d="M548.282 81.6169C548.282 82.5936 549.074 83.3852 550.051 83.3852C551.027 83.3852 551.819 82.5936 551.819 81.6169C551.819 80.6403 551.027 79.8486 550.051 79.8486C549.074 79.8486 548.282 80.6403 548.282 81.6169Z" fill="#9D8AB9"/>
<path d="M550.395 81.075C550.395 81.075 549.611 81.075 549.611 81.8589" stroke="#00196E" stroke-width="3"/>
<path fill-rule="evenodd" clip-rule="evenodd" d="M550.121 79.8486H550.338C551.167 79.0434 551.485 77.4024 551.581 75.8097C551.712 73.6271 547.923 71.7852 545.736 71.7852H543.192L540.785 75.4633H546.345C546.345 77.8681 548.424 79.8486 550.121 79.8486Z" fill="#00196E"/>
<path fill-rule="evenodd" clip-rule="evenodd" d="M547.128 75.3668L543.7 76.399C542.322 76.8142 540.867 76.0331 540.452 74.6542L540.128 73.5793C539.967 73.0428 540.271 72.4768 540.807 72.3153L543.727 71.4361C545.543 70.8893 547.458 71.9181 548.005 73.734C548.214 74.427 547.821 75.1581 547.128 75.3668Z" fill="#00196E"/>
<path fill-rule="evenodd" clip-rule="evenodd" d="M543.035 91.0242H545.421C547.291 91.0242 549.253 90.0067 549.956 88.477C549.956 88.477 549.98 87.3104 549.98 86.6955V85.7022C549.98 85.4166 549.736 85.1851 549.435 85.1851H541.263C540.962 85.1851 540.718 85.4166 540.718 85.7022V88.825C540.718 90.0397 541.755 91.0242 543.035 91.0242Z" fill="#00196E"/>
<path fill-rule="evenodd" clip-rule="evenodd" d="M539.363 87.2827C539.861 88.4941 541.109 89.2851 542.488 89.2851H543.566C546.787 89.2851 548.68 87.9547 550.621 86.4068C550.621 86.4068 551.834 85.2397 552.69 83.0207C553.76 80.2432 554.449 76.1554 553.55 74.5103C552.636 72.8395 550.208 69.5165 546.683 69.5165C541.592 69.5165 537.836 72.2641 537.836 77.0606L538.573 83.2006C538.573 84.2031 538.955 86.292 539.363 87.2827Z" fill="#D1D6F0"/>
<path fill-rule="evenodd" clip-rule="evenodd" d="M551.381 77.9112C551.381 77.9112 549.816 71.978 543.483 71.978C540.101 71.978 538.226 74.6253 537.933 77.8709L538.573 83.2005C538.573 83.2005 540.264 89.7773 548.682 84.092C548.939 83.9186 549.098 83.6425 549.188 83.3571L551.381 77.9112Z" fill="#1F41A4"/>
<path d="M547.717 76.0825L546.362 79.9901" stroke="#E8EBFF" stroke-width="7" stroke-linecap="round" stroke-linejoin="round" stroke-dasharray="12 12"/>
</g>
<defs>
<clipPath id="clip0_447:1235">
<rect width="628" height="167" fill="white"/>
</clipPath>
</defs>
</svg>
